BriemScript-Black.ufo
<glyph name="exclam" format="2">
  <advance width="350"/>
  <unicode hex="0021"/>
  <outline>
    <contour>
      <point x="133" y="255" type="curve" smooth="yes"/>
      <point x="206" y="255"/>
      <point x="254" y="270"/>
      <point x="260" y="298" type="curve" smooth="yes"/>
      <point x="263" y="313"/>
      <point x="322" y="498"/>
      <point x="322" y="560" type="curve" smooth="yes"/>
      <point x="322" y="636"/>
      <point x="209" y="652"/>
      <point x="137" y="652" type="curve" smooth="yes"/>
      <point x="105" y="652"/>
      <point x="90" y="644"/>
      <point x="90" y="625" type="curve" smooth="yes"/>
      <point x="90" y="573"/>
      <point x="95" y="314"/>
      <point x="95" y="268" type="curve" smooth="yes"/>
      <point x="95" y="259"/>
      <point x="117" y="255"/>
    </contour>
    <contour>
      <point x="158" y="-1" type="curve" smooth="yes"/>
      <point x="215" y="-1"/>
      <point x="272" y="23"/>
      <point x="272" y="93" type="curve" smooth="yes"/>
      <point x="272" y="136"/>
      <point x="236" y="190"/>
      <point x="181" y="190" type="curve" smooth="yes"/>
      <point x="130" y="190"/>
      <point x="65" y="147"/>
      <point x="65" y="89" type="curve" smooth="yes"/>
      <point x="65" y="22"/>
      <point x="111" y="-1"/>
    </contour>
  </outline>
</glyph>
<glyph name="numbersign" format="2">
  <advance width="831"/>
  <unicode hex="0023"/>
  <outline>
    <contour>
      <point x="295" y="-13" type="curve" smooth="yes"/>
      <point x="332" y="-13"/>
      <point x="337" y="-5"/>
      <point x="337" y="16" type="curve" smooth="yes"/>
      <point x="337" y="61"/>
      <point x="339" y="119"/>
      <point x="341" y="179" type="curve" smooth="yes"/>
      <point x="482" y="179" type="line" smooth="yes"/>
      <point x="477" y="101"/>
      <point x="474" y="54"/>
      <point x="474" y="48" type="curve" smooth="yes"/>
      <point x="474" y="6"/>
      <point x="565" y="-13"/>
      <point x="620" y="-13" type="curve" smooth="yes"/>
      <point x="657" y="-13"/>
      <point x="662" y="-5"/>
      <point x="662" y="16" type="curve" smooth="yes"/>
      <point x="662" y="61"/>
      <point x="664" y="119"/>
      <point x="666" y="179" type="curve" smooth="yes"/>
      <point x="744" y="179" type="line" smooth="yes"/>
      <point x="759" y="179"/>
      <point x="770" y="201"/>
      <point x="770" y="237" type="curve" smooth="yes"/>
      <point x="770" y="260"/>
      <point x="767" y="263"/>
      <point x="757" y="263" type="curve" smooth="yes"/>
      <point x="670" y="263" type="line" smooth="yes"/>
      <point x="672" y="310"/>
      <point x="675" y="355"/>
      <point x="677" y="392" type="curve" smooth="yes"/>
      <point x="759" y="392" type="line" smooth="yes"/>
      <point x="774" y="392"/>
      <point x="785" y="414"/>
      <point x="785" y="450" type="curve" smooth="yes"/>
      <point x="785" y="473"/>
      <point x="782" y="476"/>
      <point x="772" y="476" type="curve" smooth="yes"/>
      <point x="681" y="476" type="line" smooth="yes"/>
      <point x="684" y="539"/>
      <point x="687" y="585"/>
      <point x="687" y="591" type="curve" smooth="yes"/>
      <point x="687" y="634"/>
      <point x="596" y="652"/>
      <point x="542" y="652" type="curve" smooth="yes"/>
      <point x="504" y="652"/>
      <point x="500" y="645"/>
      <point x="500" y="623" type="curve" smooth="yes"/>
      <point x="500" y="582"/>
      <point x="499" y="531"/>
      <point x="496" y="476" type="curve" smooth="yes"/>
      <point x="356" y="476" type="line" smooth="yes"/>
      <point x="359" y="539"/>
      <point x="362" y="585"/>
      <point x="362" y="591" type="curve" smooth="yes"/>
      <point x="362" y="634"/>
      <point x="271" y="652"/>
      <point x="217" y="652" type="curve" smooth="yes"/>
      <point x="179" y="652"/>
      <point x="175" y="645"/>
      <point x="175" y="623" type="curve" smooth="yes"/>
      <point x="175" y="582"/>
      <point x="174" y="531"/>
      <point x="171" y="476" type="curve" smooth="yes"/>
      <point x="97" y="476" type="line" smooth="yes"/>
      <point x="82" y="476"/>
      <point x="71" y="454"/>
      <point x="71" y="418" type="curve" smooth="yes"/>
      <point x="71" y="395"/>
      <point x="74" y="392"/>
      <point x="84" y="392" type="curve" smooth="yes"/>
      <point x="167" y="392" type="line" smooth="yes"/>
      <point x="161" y="263" type="line" smooth="yes"/>
      <point x="82" y="263" type="line" smooth="yes"/>
      <point x="67" y="263"/>
      <point x="56" y="241"/>
      <point x="56" y="205" type="curve" smooth="yes"/>
      <point x="56" y="182"/>
      <point x="59" y="179"/>
      <point x="69" y="179" type="curve" smooth="yes"/>
      <point x="156" y="179" type="line" smooth="yes"/>
      <point x="152" y="107"/>
      <point x="149" y="55"/>
      <point x="149" y="48" type="curve" smooth="yes"/>
      <point x="149" y="6"/>
      <point x="240" y="-13"/>
    </contour>
    <contour>
      <point x="345" y="263" type="line" smooth="yes"/>
      <point x="351" y="392" type="line" smooth="yes"/>
      <point x="492" y="392" type="line" smooth="yes"/>
      <point x="486" y="263" type="line" smooth="yes"/>
    </contour>
  </outline>
</glyph>
<glyph name="ampersand" format="2">
  <advance width="797"/>
  <unicode hex="0026"/>
  <outline>
    <contour>
      <point x="381" y="-13" type="curve" smooth="yes"/>
      <point x="696" y="-13"/>
      <point x="772" y="158"/>
      <point x="772" y="223" type="curve" smooth="yes"/>
      <point x="772" y="286"/>
      <point x="748" y="316"/>
      <point x="712" y="326" type="curve" smooth="yes"/>
      <point x="651" y="326" type="line"/>
      <point x="680" y="348"/>
      <point x="738" y="400"/>
      <point x="743" y="407" type="curve" smooth="yes"/>
      <point x="750" y="417"/>
      <point x="754" y="429"/>
      <point x="754" y="443" type="curve" smooth="yes"/>
      <point x="754" y="482"/>
      <point x="730" y="531"/>
      <point x="704" y="564" type="curve" smooth="yes"/>
      <point x="691" y="580"/>
      <point x="683" y="587"/>
      <point x="676" y="587" type="curve" smooth="yes"/>
      <point x="670" y="587"/>
      <point x="665" y="582"/>
      <point x="658" y="573" type="curve" smooth="yes"/>
      <point x="608" y="509"/>
      <point x="437" y="345"/>
      <point x="425" y="333" type="curve" smooth="yes"/>
      <point x="416" y="324"/>
      <point x="414" y="313"/>
      <point x="414" y="297" type="curve" smooth="yes"/>
      <point x="414" y="258"/>
      <point x="439" y="208"/>
      <point x="466" y="175" type="curve" smooth="yes"/>
      <point x="479" y="159"/>
      <point x="487" y="152"/>
      <point x="494" y="152" type="curve" smooth="yes"/>
      <point x="500" y="152"/>
      <point x="506" y="157"/>
      <point x="512" y="165" type="curve" smooth="yes"/>
      <point x="539" y="200"/>
      <point x="576" y="241"/>
      <point x="596" y="264" type="curve"/>
      <point x="607" y="264"/>
      <point x="622" y="242"/>
      <point x="622" y="215" type="curve" smooth="yes"/>
      <point x="622" y="143"/>
      <point x="531" y="70"/>
      <point x="435" y="70" type="curve" smooth="yes"/>
      <point x="352" y="70"/>
      <point x="270" y="111"/>
      <point x="270" y="219" type="curve" smooth="yes"/>
      <point x="270" y="277"/>
      <point x="299" y="334"/>
      <point x="362" y="352" type="curve" smooth="yes"/>
      <point x="373" y="355"/>
      <point x="376" y="365"/>
      <point x="376" y="374" type="curve" smooth="yes"/>
      <point x="376" y="387"/>
      <point x="375" y="390"/>
      <point x="368" y="397" type="curve" smooth="yes"/>
      <point x="352" y="414"/>
      <point x="337" y="439"/>
      <point x="337" y="475" type="curve" smooth="yes"/>
      <point x="337" y="523"/>
      <point x="353" y="549"/>
      <point x="388" y="549" type="curve" smooth="yes"/>
      <point x="414" y="549"/>
      <point x="439" y="541"/>
      <point x="456" y="535" type="curve" smooth="yes"/>
      <point x="465" y="532"/>
      <point x="472" y="530"/>
      <point x="476" y="530" type="curve" smooth="yes"/>
      <point x="485" y="530"/>
      <point x="499" y="552"/>
      <point x="499" y="591" type="curve" smooth="yes"/>
      <point x="499" y="608"/>
      <point x="494" y="617"/>
      <point x="486" y="620" type="curve" smooth="yes"/>
      <point x="443" y="638"/>
      <point x="378" y="652"/>
      <point x="316" y="652" type="curve" smooth="yes"/>
      <point x="221" y="652"/>
      <point x="131" y="619"/>
      <point x="131" y="517" type="curve" smooth="yes"/>
      <point x="131" y="440"/>
      <point x="195" y="401"/>
      <point x="253" y="377" type="curve"/>
      <point x="121" y="377"/>
      <point x="67" y="298"/>
      <point x="67" y="200" type="curve" smooth="yes"/>
      <point x="67" y="57"/>
      <point x="215" y="-13"/>
    </contour>
  </outline>
</glyph>
<glyph name="parenright" format="2">
  <advance width="400"/>
  <unicode hex="0029"/>
  <outline>
    <contour>
      <point x="51" y="-244" type="curve" smooth="yes"/>
      <point x="92" y="-244"/>
      <point x="140" y="-234"/>
      <point x="166" y="-206" type="curve" smooth="yes"/>
      <point x="239" y="-127"/>
      <point x="324" y="44"/>
      <point x="324" y="268" type="curve" smooth="yes"/>
      <point x="324" y="417"/>
      <point x="286" y="576"/>
      <point x="188" y="718" type="curve" smooth="yes"/>
      <point x="166" y="750"/>
      <point x="95" y="756"/>
      <point x="78" y="756" type="curve" smooth="yes"/>
      <point x="49" y="756"/>
      <point x="44" y="749"/>
      <point x="44" y="735" type="curve" smooth="yes"/>
      <point x="44" y="720"/>
      <point x="129" y="578"/>
      <point x="129" y="275" type="curve" smooth="yes"/>
      <point x="129" y="82"/>
      <point x="75" y="-75"/>
      <point x="37" y="-156" type="curve" smooth="yes"/>
      <point x="17" y="-198"/>
      <point x="15" y="-209"/>
      <point x="15" y="-220" type="curve" smooth="yes"/>
      <point x="15" y="-237"/>
      <point x="23" y="-244"/>
    </contour>
  </outline>
</glyph>
<glyph name="asterisk" format="2">
  <advance width="481"/>
  <unicode hex="002A"/>
  <outline>
    <contour>
      <point x="285" y="278" type="curve" smooth="yes"/>
      <point x="304" y="278"/>
      <point x="314" y="288"/>
      <point x="314" y="308" type="curve" smooth="yes"/>
      <point x="314" y="342"/>
      <point x="297" y="402"/>
      <point x="290" y="473" type="curve" smooth="yes"/>
      <point x="337" y="418"/>
      <point x="372" y="367"/>
      <point x="396" y="343" type="curve" smooth="yes"/>
      <point x="403" y="336"/>
      <point x="410" y="333"/>
      <point x="417" y="333" type="curve" smooth="yes"/>
      <point x="446" y="333"/>
      <point x="479" y="398"/>
      <point x="479" y="423" type="curve" smooth="yes"/>
      <point x="479" y="439"/>
      <point x="474" y="451"/>
      <point x="466" y="458" type="curve" smooth="yes"/>
      <point x="444" y="478"/>
      <point x="375" y="491"/>
      <point x="321" y="512" type="curve" smooth="yes"/>
      <point x="378" y="520"/>
      <point x="446" y="518"/>
      <point x="473" y="533" type="curve" smooth="yes"/>
      <point x="484" y="539"/>
      <point x="494" y="553"/>
      <point x="494" y="575" type="curve" smooth="yes"/>
      <point x="494" y="601"/>
      <point x="472" y="665"/>
      <point x="447" y="665" type="curve" smooth="yes"/>
      <point x="442" y="665"/>
      <point x="436" y="664"/>
      <point x="430" y="660" type="curve" smooth="yes"/>
      <point x="401" y="643"/>
      <point x="356" y="598"/>
      <point x="299" y="556" type="curve" smooth="yes"/>
      <point x="321" y="609"/>
      <point x="358" y="669"/>
      <point x="358" y="700" type="curve" smooth="yes"/>
      <point x="358" y="723"/>
      <point x="336" y="756"/>
      <point x="256" y="756" type="curve" smooth="yes"/>
      <point x="237" y="756"/>
      <point x="227" y="746"/>
      <point x="227" y="726" type="curve" smooth="yes"/>
      <point x="227" y="700"/>
      <point x="237" y="656"/>
      <point x="245" y="604" type="curve" smooth="yes"/>
      <point x="247" y="591"/>
      <point x="249" y="578"/>
      <point x="250" y="564" type="curve" smooth="yes"/>
      <point x="205" y="616"/>
      <point x="173" y="668"/>
      <point x="147" y="691" type="curve" smooth="yes"/>
      <point x="140" y="698"/>
      <point x="133" y="701"/>
      <point x="126" y="701" type="curve" smooth="yes"/>
      <point x="106" y="701"/>
      <point x="64" y="642"/>
      <point x="64" y="609" type="curve" smooth="yes"/>
      <point x="64" y="594"/>
      <point x="70" y="583"/>
      <point x="77" y="576" type="curve" smooth="yes"/>
      <point x="99" y="554"/>
      <point x="167" y="542"/>
      <point x="221" y="523" type="curve" smooth="yes"/>
      <point x="165" y="515"/>
      <point x="95" y="517"/>
      <point x="69" y="502" type="curve" smooth="yes"/>
      <point x="58" y="495"/>
      <point x="47" y="481"/>
      <point x="47" y="457" type="curve" smooth="yes"/>
      <point x="47" y="436"/>
      <point x="65" y="370"/>
      <point x="94" y="370" type="curve" smooth="yes"/>
      <point x="99" y="370"/>
      <point x="105" y="371"/>
      <point x="112" y="375" type="curve" smooth="yes"/>
      <point x="141" y="392"/>
      <point x="185" y="436"/>
      <point x="242" y="478" type="curve" smooth="yes"/>
      <point x="220" y="425"/>
      <point x="183" y="365"/>
      <point x="183" y="334" type="curve" smooth="yes"/>
      <point x="183" y="311"/>
      <point x="205" y="278"/>
    </contour>
  </outline>
</glyph>
<glyph name="comma" format="2">
  <advance width="275"/>
  <unicode hex="002C"/>
  <outline>
    <contour>
      <point x="73" y="-78" type="curve" smooth="yes"/>
      <point x="105" y="-78"/>
      <point x="116" y="-75"/>
      <point x="142" y="-57" type="curve" smooth="yes"/>
      <point x="180" y="-31"/>
      <point x="259" y="48"/>
      <point x="259" y="79" type="curve" smooth="yes"/>
      <point x="259" y="96"/>
      <point x="251" y="112"/>
      <point x="229" y="136" type="curve" smooth="yes"/>
      <point x="209" y="157"/>
      <point x="162" y="193"/>
      <point x="141" y="193" type="curve" smooth="yes"/>
      <point x="129" y="193"/>
      <point x="124" y="189"/>
      <point x="116" y="167" type="curve" smooth="yes"/>
      <point x="104" y="134"/>
      <point x="46" y="17"/>
      <point x="21" y="-32" type="curve" smooth="yes"/>
      <point x="15" y="-44"/>
      <point x="11" y="-50"/>
      <point x="11" y="-53" type="curve" smooth="yes"/>
      <point x="11" y="-56"/>
      <point x="45" y="-78"/>
    </contour>
  </outline>
</glyph>
<glyph name="period" format="2">
  <advance width="275"/>
  <unicode hex="002E"/>
  <outline>
    <contour>
      <point x="133" y="0" type="curve" smooth="yes"/>
      <point x="190" y="0"/>
      <point x="247" y="25"/>
      <point x="247" y="101" type="curve" smooth="yes"/>
      <point x="247" y="145"/>
      <point x="211" y="202"/>
      <point x="156" y="202" type="curve" smooth="yes"/>
      <point x="105" y="202"/>
      <point x="40" y="157"/>
      <point x="40" y="95" type="curve" smooth="yes"/>
      <point x="40" y="24"/>
      <point x="86" y="0"/>
    </contour>
  </outline>
</glyph>
<glyph name="slash" format="2">
  <advance width="487"/>
  <unicode hex="002F"/>
  <outline>
    <contour>
      <point x="170" y="-35" type="curve" smooth="yes"/>
      <point x="195" y="-35"/>
      <point x="210" y="-31"/>
      <point x="228" y="13" type="curve" smooth="yes"/>
      <point x="253" y="74"/>
      <point x="423" y="499"/>
      <point x="436" y="528" type="curve" smooth="yes"/>
      <point x="447" y="552"/>
      <point x="468" y="593"/>
      <point x="468" y="603" type="curve" smooth="yes"/>
      <point x="468" y="636"/>
      <point x="360" y="675"/>
      <point x="321" y="675" type="curve" smooth="yes"/>
      <point x="296" y="675"/>
      <point x="282" y="671"/>
      <point x="263" y="627" type="curve" smooth="yes"/>
      <point x="255" y="608"/>
      <point x="69" y="141"/>
      <point x="55" y="112" type="curve" smooth="yes"/>
      <point x="41" y="82"/>
      <point x="23" y="47"/>
      <point x="23" y="38" type="curve" smooth="yes"/>
      <point x="23" y="5"/>
      <point x="141" y="-35"/>
    </contour>
  </outline>
</glyph>
<glyph name="zero" format="2">
  <advance width="590"/>
  <unicode hex="0030"/>
  <outline>
    <contour>
      <point x="285" y="-13" type="curve" smooth="yes"/>
      <point x="472" y="-13"/>
      <point x="565" y="134"/>
      <point x="565" y="374" type="curve" smooth="yes"/>
      <point x="565" y="562"/>
      <point x="470" y="652"/>
      <point x="338" y="652" type="curve" smooth="yes"/>
      <point x="149" y="652"/>
      <point x="55" y="506"/>
      <point x="55" y="266" type="curve" smooth="yes"/>
      <point x="55" y="78"/>
      <point x="152" y="-13"/>
    </contour>
    <contour>
      <point x="304" y="64" type="curve" smooth="yes"/>
      <point x="276" y="64"/>
      <point x="257" y="151"/>
      <point x="257" y="273" type="curve" smooth="yes"/>
      <point x="257" y="452"/>
      <point x="278" y="573"/>
      <point x="316" y="573" type="curve" smooth="yes"/>
      <point x="346" y="573"/>
      <point x="364" y="486"/>
      <point x="364" y="366" type="curve" smooth="yes"/>
      <point x="364" y="187"/>
      <point x="342" y="64"/>
    </contour>
  </outline>
</glyph>
<glyph name="two" format="2">
  <advance width="560"/>
  <unicode hex="0032"/>
  <outline>
    <contour>
      <point x="93" y="0" type="curve" smooth="yes"/>
      <point x="475" y="0" type="line" smooth="yes"/>
      <point x="489" y="0"/>
      <point x="509" y="20"/>
      <point x="509" y="73" type="curve" smooth="yes"/>
      <point x="509" y="115"/>
      <point x="507" y="133"/>
      <point x="500" y="133" type="curve" smooth="yes"/>
      <point x="492" y="133"/>
      <point x="403" y="120"/>
      <point x="347" y="120" type="curve" smooth="yes"/>
      <point x="325" y="120"/>
      <point x="302" y="120"/>
      <point x="279" y="120" type="curve"/>
      <point x="339" y="178"/>
      <point x="395" y="233"/>
      <point x="436" y="291" type="curve" smooth="yes"/>
      <point x="475" y="347"/>
      <point x="500" y="407"/>
      <point x="500" y="478" type="curve" smooth="yes"/>
      <point x="500" y="619"/>
      <point x="385" y="652"/>
      <point x="277" y="652" type="curve" smooth="yes"/>
      <point x="194" y="652"/>
      <point x="137" y="640"/>
      <point x="97" y="611" type="curve" smooth="yes"/>
      <point x="80" y="598"/>
      <point x="76" y="582"/>
      <point x="76" y="564" type="curve" smooth="yes"/>
      <point x="76" y="496"/>
      <point x="95" y="483"/>
      <point x="112" y="483" type="curve" smooth="yes"/>
      <point x="124" y="483"/>
      <point x="162" y="531"/>
      <point x="228" y="531" type="curve" smooth="yes"/>
      <point x="257" y="531"/>
      <point x="284" y="503"/>
      <point x="284" y="450" type="curve" smooth="yes"/>
      <point x="284" y="421"/>
      <point x="276" y="384"/>
      <point x="256" y="338" type="curve" smooth="yes"/>
      <point x="229" y="276"/>
      <point x="176" y="214"/>
      <point x="84" y="125" type="curve" smooth="yes"/>
      <point x="66" y="108"/>
      <point x="62" y="93"/>
      <point x="62" y="79" type="curve" smooth="yes"/>
      <point x="62" y="61"/>
      <point x="75" y="0"/>
    </contour>
  </outline>
</glyph>
<glyph name="four" format="2">
  <advance width="560"/>
  <unicode hex="0034"/>
  <outline>
    <contour>
      <point x="399" y="-13" type="curve" smooth="yes"/>
      <point x="443" y="-13"/>
      <point x="446" y="-4"/>
      <point x="446" y="21" type="curve" smooth="yes"/>
      <point x="446" y="74"/>
      <point x="448" y="135"/>
      <point x="449" y="161" type="curve"/>
      <point x="510" y="161" type="line" smooth="yes"/>
      <point x="533" y="161"/>
      <point x="533" y="209"/>
      <point x="533" y="228" type="curve" smooth="yes"/>
      <point x="533" y="255"/>
      <point x="530" y="261"/>
      <point x="525" y="261" type="curve" smooth="yes"/>
      <point x="514" y="261"/>
      <point x="500" y="258"/>
      <point x="453" y="257" type="curve"/>
      <point x="459" y="407"/>
      <point x="470" y="562"/>
      <point x="470" y="580" type="curve" smooth="yes"/>
      <point x="470" y="630"/>
      <point x="377" y="652"/>
      <point x="321" y="652" type="curve" smooth="yes"/>
      <point x="303" y="652"/>
      <point x="297" y="649"/>
      <point x="285" y="634" type="curve" smooth="yes"/>
      <point x="261" y="605"/>
      <point x="44" y="279"/>
      <point x="32" y="256" type="curve" smooth="yes"/>
      <point x="28" y="249"/>
      <point x="27" y="238"/>
      <point x="27" y="230" type="curve" smooth="yes"/>
      <point x="27" y="192"/>
      <point x="40" y="161"/>
      <point x="58" y="161" type="curve" smooth="yes"/>
      <point x="240" y="161" type="line"/>
      <point x="238" y="145"/>
      <point x="232" y="74"/>
      <point x="232" y="59" type="curve" smooth="yes"/>
      <point x="232" y="9"/>
      <point x="335" y="-13"/>
    </contour>
    <contour>
      <point x="130" y="252" type="line"/>
      <point x="142" y="275"/>
      <point x="215" y="392"/>
      <point x="252" y="431" type="curve"/>
      <point x="251" y="386"/>
      <point x="247" y="325"/>
      <point x="242" y="252" type="curve"/>
    </contour>
  </outline>
</glyph>
<glyph name="seven" format="2">
  <advance width="510"/>
  <unicode hex="0037"/>
  <outline>
    <contour>
      <point x="172" y="-13" type="curve" smooth="yes"/>
      <point x="209" y="-13"/>
      <point x="232" y="-11"/>
      <point x="245" y="10" type="curve" smooth="yes"/>
      <point x="327" y="147"/>
      <point x="472" y="419"/>
      <point x="481" y="478" type="curve" smooth="yes"/>
      <point x="483" y="490"/>
      <point x="489" y="529"/>
      <point x="489" y="550" type="curve" smooth="yes"/>
      <point x="489" y="610"/>
      <point x="482" y="639"/>
      <point x="462" y="639" type="curve" smooth="yes"/>
      <point x="134" y="639" type="line" smooth="yes"/>
      <point x="100" y="639"/>
      <point x="74" y="602"/>
      <point x="74" y="479" type="curve" smooth="yes"/>
      <point x="74" y="437"/>
      <point x="80" y="433"/>
      <point x="96" y="433" type="curve" smooth="yes"/>
      <point x="106" y="433"/>
      <point x="224" y="441"/>
      <point x="320" y="441" type="curve"/>
      <point x="294" y="341"/>
      <point x="175" y="142"/>
      <point x="95" y="44" type="curve" smooth="yes"/>
      <point x="87" y="35"/>
      <point x="85" y="28"/>
      <point x="85" y="18" type="curve" smooth="yes"/>
      <point x="85" y="3"/>
      <point x="127" y="-13"/>
    </contour>
  </outline>
</glyph>
<glyph name="eight" format="2">
  <advance width="572"/>
  <unicode hex="0038"/>
  <outline>
    <contour>
      <point x="254" y="-13" type="curve" smooth="yes"/>
      <point x="446" y="-13"/>
      <point x="527" y="93"/>
      <point x="527" y="197" type="curve" smooth="yes"/>
      <point x="527" y="268"/>
      <point x="487" y="333"/>
      <point x="425" y="369" type="curve"/>
      <point x="491" y="390"/>
      <point x="524" y="443"/>
      <point x="524" y="496" type="curve" smooth="yes"/>
      <point x="524" y="569"/>
      <point x="473" y="652"/>
      <point x="307" y="652" type="curve" smooth="yes"/>
      <point x="156" y="652"/>
      <point x="73" y="556"/>
      <point x="73" y="457" type="curve" smooth="yes"/>
      <point x="73" y="394"/>
      <point x="99" y="335"/>
      <point x="153" y="301" type="curve"/>
      <point x="88" y="268"/>
      <point x="55" y="212"/>
      <point x="55" y="155" type="curve" smooth="yes"/>
      <point x="55" y="74"/>
      <point x="111" y="-13"/>
    </contour>
    <contour>
      <point x="267" y="65" type="curve" smooth="yes"/>
      <point x="224" y="65"/>
      <point x="197" y="94"/>
      <point x="197" y="148" type="curve" smooth="yes"/>
      <point x="197" y="182"/>
      <point x="214" y="222"/>
      <point x="235" y="249" type="curve"/>
      <point x="307" y="200"/>
      <point x="328" y="154"/>
      <point x="328" y="119" type="curve" smooth="yes"/>
      <point x="328" y="84"/>
      <point x="299" y="65"/>
    </contour>
    <contour>
      <point x="352" y="417" type="curve"/>
      <point x="289" y="451"/>
      <point x="261" y="485"/>
      <point x="261" y="525" type="curve" smooth="yes"/>
      <point x="261" y="557"/>
      <point x="282" y="573"/>
      <point x="314" y="573" type="curve" smooth="yes"/>
      <point x="356" y="573"/>
      <point x="385" y="549"/>
      <point x="385" y="496" type="curve" smooth="yes"/>
      <point x="385" y="464"/>
      <point x="369" y="436"/>
    </contour>
  </outline>
</glyph>
<glyph name="nine" format="2">
  <advance width="560"/>
  <unicode hex="0039"/>
  <outline>
    <contour>
      <point x="200" y="-13" type="curve" smooth="yes"/>
      <point x="311" y="-13"/>
      <point x="550" y="86"/>
      <point x="550" y="380" type="curve" smooth="yes"/>
      <point x="550" y="549"/>
      <point x="476" y="652"/>
      <point x="301" y="652" type="curve" smooth="yes"/>
      <point x="136" y="652"/>
      <point x="40" y="558"/>
      <point x="40" y="418" type="curve" smooth="yes"/>
      <point x="40" y="254"/>
      <point x="141" y="220"/>
      <point x="252" y="220" type="curve" smooth="yes"/>
      <point x="294" y="220"/>
      <point x="323" y="225"/>
      <point x="332" y="231" type="curve"/>
      <point x="332" y="191"/>
      <point x="266" y="81"/>
      <point x="152" y="81" type="curve" smooth="yes"/>
      <point x="141" y="81"/>
      <point x="137" y="69"/>
      <point x="137" y="53" type="curve" smooth="yes"/>
      <point x="137" y="10"/>
      <point x="148" y="-13"/>
    </contour>
    <contour>
      <point x="288" y="297" type="curve" smooth="yes"/>
      <point x="264" y="297"/>
      <point x="241" y="332"/>
      <point x="241" y="422" type="curve" smooth="yes"/>
      <point x="241" y="519"/>
      <point x="268" y="572"/>
      <point x="294" y="572" type="curve" smooth="yes"/>
      <point x="338" y="572"/>
      <point x="348" y="479"/>
      <point x="348" y="411" type="curve" smooth="yes"/>
      <point x="348" y="401"/>
      <point x="348" y="379"/>
      <point x="347" y="374" type="curve" smooth="yes"/>
      <point x="339" y="322"/>
      <point x="319" y="297"/>
    </contour>
  </outline>
</glyph>
<glyph name="colon" format="2">
  <advance width="275"/>
  <unicode hex="003A"/>
  <outline>
    <contour>
      <point x="147" y="299" type="curve" smooth="yes"/>
      <point x="198" y="299"/>
      <point x="263" y="342"/>
      <point x="263" y="399" type="curve" smooth="yes"/>
      <point x="263" y="467"/>
      <point x="217" y="490"/>
      <point x="170" y="490" type="curve" smooth="yes"/>
      <point x="113" y="490"/>
      <point x="56" y="466"/>
      <point x="56" y="395" type="curve" smooth="yes"/>
      <point x="56" y="353"/>
      <point x="92" y="299"/>
    </contour>
    <contour>
      <point x="133" y="-1" type="curve" smooth="yes"/>
      <point x="190" y="-1"/>
      <point x="247" y="23"/>
      <point x="247" y="94" type="curve" smooth="yes"/>
      <point x="247" y="136"/>
      <point x="211" y="190"/>
      <point x="156" y="190" type="curve" smooth="yes"/>
      <point x="105" y="190"/>
      <point x="40" y="147"/>
      <point x="40" y="89" type="curve" smooth="yes"/>
      <point x="40" y="22"/>
      <point x="86" y="-1"/>
    </contour>
  </outline>
</glyph>
<glyph name="less" format="2">
  <advance width="540"/>
  <unicode hex="003C"/>
  <outline>
    <contour>
      <point x="419" y="84" type="curve" smooth="yes"/>
      <point x="428" y="84"/>
      <point x="434" y="117"/>
      <point x="434" y="145" type="curve" smooth="yes"/>
      <point x="434" y="171"/>
      <point x="429" y="190"/>
      <point x="393" y="207" type="curve" smooth="yes"/>
      <point x="246" y="275" type="line"/>
      <point x="448" y="358" type="line" smooth="yes"/>
      <point x="474" y="369"/>
      <point x="484" y="399"/>
      <point x="484" y="482" type="curve" smooth="yes"/>
      <point x="484" y="529"/>
      <point x="475" y="542"/>
      <point x="466" y="542" type="curve" smooth="yes"/>
      <point x="459" y="542"/>
      <point x="449" y="539"/>
      <point x="432" y="532" type="curve" smooth="yes"/>
      <point x="85" y="382" type="line" smooth="yes"/>
      <point x="67" y="374"/>
      <point x="59" y="359"/>
      <point x="59" y="335" type="curve" smooth="yes"/>
      <point x="59" y="293"/>
      <point x="65" y="248"/>
      <point x="88" y="237" type="curve" smooth="yes"/>
      <point x="399" y="91" type="line" smooth="yes"/>
      <point x="412" y="85"/>
      <point x="415" y="84"/>
    </contour>
  </outline>
</glyph>
<glyph name="C" format="2">
  <advance width="647"/>
  <unicode hex="0043"/>
  <anchor x="378" y="0" name="bottom"/>
  <anchor x="417" y="652" name="top"/>
  <outline>
    <contour>
      <point x="402" y="-13" type="curve" smooth="yes"/>
      <point x="476" y="-13"/>
      <point x="515" y="-10"/>
      <point x="574" y="7" type="curve" smooth="yes"/>
      <point x="603" y="15"/>
      <point x="622" y="46"/>
      <point x="622" y="117" type="curve" smooth="yes"/>
      <point x="622" y="131"/>
      <point x="620" y="137"/>
      <point x="611" y="137" type="curve" smooth="yes"/>
      <point x="606" y="137"/>
      <point x="599" y="135"/>
      <point x="589" y="132" type="curve" smooth="yes"/>
      <point x="532" y="113"/>
      <point x="492" y="110"/>
      <point x="439" y="110" type="curve" smooth="yes"/>
      <point x="322" y="110"/>
      <point x="273" y="165"/>
      <point x="273" y="313" type="curve"/>
      <point x="273" y="492"/>
      <point x="348" y="526"/>
      <point x="423" y="526" type="curve" smooth="yes"/>
      <point x="532" y="526"/>
      <point x="586" y="486"/>
      <point x="603" y="486" type="curve"/>
      <point x="636" y="486"/>
      <point x="639" y="555"/>
      <point x="639" y="571" type="curve"/>
      <point x="639" y="595"/>
      <point x="635" y="613"/>
      <point x="612" y="621" type="curve"/>
      <point x="549" y="643"/>
      <point x="483" y="652"/>
      <point x="416" y="652" type="curve"/>
      <point x="201" y="652"/>
      <point x="45" y="594"/>
      <point x="45" y="275" type="curve"/>
      <point x="45" y="63"/>
      <point x="169" y="-13"/>
    </contour>
  </outline>
</glyph>
<glyph name="D" format="2">
  <advance width="783"/>
  <unicode hex="0044"/>
  <anchor x="379" y="0" name="bottom"/>
  <anchor x="379" y="326" name="center"/>
  <anchor x="438" y="652" name="top"/>
  <outline>
    <contour>
      <point x="63" y="0" type="curve"/>
      <point x="415" y="0" type="line" smooth="yes"/>
      <point x="605" y="0"/>
      <point x="763" y="80"/>
      <point x="763" y="364" type="curve" smooth="yes"/>
      <point x="763" y="623"/>
      <point x="602" y="639"/>
      <point x="446" y="639" type="curve" smooth="yes"/>
      <point x="92" y="639" type="line"/>
      <point x="92" y="441"/>
      <point x="63" y="42"/>
    </contour>
    <contour>
      <point x="376" y="92" type="curve" smooth="yes"/>
      <point x="299" y="92"/>
      <point x="288" y="98"/>
      <point x="288" y="137" type="curve"/>
      <point x="288" y="327"/>
      <point x="306" y="519"/>
      <point x="308" y="542" type="curve"/>
      <point x="328" y="545"/>
      <point x="352" y="547"/>
      <point x="398" y="547" type="curve" smooth="yes"/>
      <point x="483" y="547"/>
      <point x="535" y="496"/>
      <point x="535" y="364" type="curve" smooth="yes"/>
      <point x="535" y="122"/>
      <point x="471" y="92"/>
    </contour>
  </outline>
</glyph>
<glyph name="G" format="2">
  <advance width="733"/>
  <unicode hex="0047"/>
  <anchor x="369" y="0" name="bottom"/>
  <anchor x="403" y="652" name="top"/>
  <outline>
    <contour>
      <point x="402" y="-13" type="curve" smooth="yes"/>
      <point x="527" y="-13"/>
      <point x="645" y="12"/>
      <point x="686" y="29" type="curve"/>
      <point x="693" y="160"/>
      <point x="700" y="296"/>
      <point x="703" y="338" type="curve"/>
      <point x="439" y="338" type="line" smooth="yes"/>
      <point x="425" y="338"/>
      <point x="410" y="326"/>
      <point x="410" y="289" type="curve" smooth="yes"/>
      <point x="410" y="265"/>
      <point x="412" y="243"/>
      <point x="420" y="243" type="curve" smooth="yes"/>
      <point x="428" y="243"/>
      <point x="462" y="244"/>
      <point x="495" y="244" type="curve"/>
      <point x="495" y="169"/>
      <point x="490" y="122"/>
      <point x="489" y="93" type="curve"/>
      <point x="473" y="93"/>
      <point x="456" y="93"/>
      <point x="439" y="93" type="curve" smooth="yes"/>
      <point x="361" y="93"/>
      <point x="273" y="145"/>
      <point x="273" y="307" type="curve" smooth="yes"/>
      <point x="273" y="460"/>
      <point x="332" y="526"/>
      <point x="433" y="526" type="curve" smooth="yes"/>
      <point x="512" y="526"/>
      <point x="567" y="509"/>
      <point x="600" y="498" type="curve" smooth="yes"/>
      <point x="620" y="491"/>
      <point x="633" y="486"/>
      <point x="639" y="486" type="curve" smooth="yes"/>
      <point x="672" y="486"/>
      <point x="675" y="555"/>
      <point x="675" y="572" type="curve" smooth="yes"/>
      <point x="675" y="599"/>
      <point x="668" y="614"/>
      <point x="648" y="621" type="curve" smooth="yes"/>
      <point x="608" y="635"/>
      <point x="510" y="652"/>
      <point x="416" y="652" type="curve" smooth="yes"/>
      <point x="201" y="652"/>
      <point x="45" y="594"/>
      <point x="45" y="275" type="curve" smooth="yes"/>
      <point x="45" y="63"/>
      <point x="169" y="-13"/>
    </contour>
  </outline>
</glyph>
<glyph name="H" format="2">
  <advance width="817"/>
  <unicode hex="0048"/>
  <anchor x="386" y="0" name="bottom"/>
  <anchor x="406" y="326" name="center"/>
  <anchor x="431" y="652" name="top"/>
  <anchor x="30" y="652" name="topleft"/>
  <outline>
    <contour>
      <point x="234" y="-13" type="curve" smooth="yes"/>
      <point x="278" y="-13"/>
      <point x="283" y="-4"/>
      <point x="283" y="21" type="curve" smooth="yes"/>
      <point x="283" y="85"/>
      <point x="286" y="171"/>
      <point x="290" y="256" type="curve"/>
      <point x="341" y="262"/>
      <point x="390" y="265"/>
      <point x="437" y="265" type="curve"/>
      <point x="477" y="265"/>
      <point x="516" y="263"/>
      <point x="551" y="259" type="curve"/>
      <point x="545" y="152"/>
      <point x="540" y="67"/>
      <point x="540" y="59" type="curve" smooth="yes"/>
      <point x="540" y="9"/>
      <point x="647" y="-13"/>
      <point x="711" y="-13" type="curve" smooth="yes"/>
      <point x="755" y="-13"/>
      <point x="760" y="-4"/>
      <point x="760" y="21" type="curve" smooth="yes"/>
      <point x="760" y="199"/>
      <point x="784" y="562"/>
      <point x="784" y="580" type="curve" smooth="yes"/>
      <point x="784" y="630"/>
      <point x="677" y="652"/>
      <point x="613" y="652" type="curve" smooth="yes"/>
      <point x="569" y="652"/>
      <point x="564" y="643"/>
      <point x="564" y="618" type="curve" smooth="yes"/>
      <point x="564" y="553"/>
      <point x="561" y="465"/>
      <point x="557" y="379" type="curve"/>
      <point x="296" y="379" type="line"/>
      <point x="302" y="487"/>
      <point x="307" y="572"/>
      <point x="307" y="580" type="curve" smooth="yes"/>
      <point x="307" y="630"/>
      <point x="200" y="652"/>
      <point x="136" y="652" type="curve" smooth="yes"/>
      <point x="92" y="652"/>
      <point x="87" y="643"/>
      <point x="87" y="618" type="curve" smooth="yes"/>
      <point x="87" y="440"/>
      <point x="63" y="77"/>
      <point x="63" y="59" type="curve" smooth="yes"/>
      <point x="63" y="9"/>
      <point x="170" y="-13"/>
    </contour>
  </outline>
</glyph>
<glyph name="I" format="2">
  <advance width="344"/>
  <unicode hex="0049"/>
  <anchor x="172" y="0" name="bottom"/>
  <anchor x="273" y="10" name="ogonek"/>
  <anchor x="206" y="652" name="top"/>
  <anchor x="32" y="652" name="topleft"/>
  <outline>
    <contour>
      <point x="236" y="-13" type="curve"/>
      <point x="280" y="-13"/>
      <point x="285" y="-4"/>
      <point x="285" y="21" type="curve"/>
      <point x="285" y="199"/>
      <point x="309" y="562"/>
      <point x="309" y="579" type="curve"/>
      <point x="309" y="630"/>
      <point x="202" y="652"/>
      <point x="138" y="652" type="curve"/>
      <point x="94" y="652"/>
      <point x="89" y="643"/>
      <point x="89" y="618" type="curve"/>
      <point x="89" y="440"/>
      <point x="65" y="77"/>
      <point x="65" y="59" type="curve"/>
      <point x="65" y="9"/>
      <point x="172" y="-13"/>
    </contour>
  </outline>
</glyph>
<glyph name="J" format="2">
  <advance width="365"/>
  <unicode hex="004A"/>
  <anchor x="152" y="0" name="bottom"/>
  <anchor x="237" y="652" name="top"/>
  <outline>
    <contour>
      <point x="120" y="-13" type="curve" smooth="yes"/>
      <point x="208" y="-13"/>
      <point x="269" y="27"/>
      <point x="292" y="97" type="curve" smooth="yes"/>
      <point x="326" y="200"/>
      <point x="335" y="503"/>
      <point x="335" y="580" type="curve" smooth="yes"/>
      <point x="335" y="630"/>
      <point x="228" y="652"/>
      <point x="164" y="652" type="curve" smooth="yes"/>
      <point x="120" y="652"/>
      <point x="115" y="643"/>
      <point x="115" y="618" type="curve" smooth="yes"/>
      <point x="115" y="413"/>
      <point x="108" y="118"/>
      <point x="87" y="91" type="curve" smooth="yes"/>
      <point x="79" y="80"/>
      <point x="69" y="77"/>
      <point x="55" y="77" type="curve" smooth="yes"/>
      <point x="45" y="77"/>
      <point x="37" y="79"/>
      <point x="32" y="79" type="curve" smooth="yes"/>
      <point x="25" y="79"/>
      <point x="20" y="61"/>
      <point x="20" y="49" type="curve" smooth="yes"/>
      <point x="20" y="32"/>
      <point x="26" y="3"/>
      <point x="36" y="-1" type="curve"/>
      <point x="54" y="-9"/>
      <point x="92" y="-13"/>
    </contour>
  </outline>
</glyph>
<glyph name="L" format="2">
  <advance width="505"/>
  <unicode hex="004C"/>
  <anchor x="282" y="0" name="bottom"/>
  <anchor x="239" y="326" name="center"/>
  <anchor x="246" y="632" name="top"/>
  <anchor x="419" y="524" name="topright"/>
  <outline>
    <contour>
      <point x="63" y="0" type="curve"/>
      <point x="464" y="0" type="line" smooth="yes"/>
      <point x="493" y="0"/>
      <point x="500" y="62"/>
      <point x="500" y="81" type="curve" smooth="yes"/>
      <point x="500" y="107"/>
      <point x="500" y="113"/>
      <point x="492" y="113" type="curve" smooth="yes"/>
      <point x="482" y="113"/>
      <point x="428" y="106"/>
      <point x="376" y="106" type="curve" smooth="yes"/>
      <point x="299" y="106"/>
      <point x="288" y="115"/>
      <point x="288" y="146" type="curve" smooth="yes"/>
      <point x="288" y="213"/>
      <point x="310" y="565"/>
      <point x="310" y="580" type="curve" smooth="yes"/>
      <point x="310" y="630"/>
      <point x="203" y="652"/>
      <point x="139" y="652" type="curve" smooth="yes"/>
      <point x="95" y="652"/>
      <point x="90" y="643"/>
      <point x="90" y="618" type="curve" smooth="yes"/>
      <point x="90" y="432"/>
      <point x="63" y="28"/>
    </contour>
  </outline>
</glyph>
<glyph name="O" format="2">
  <advance width="763"/>
  <unicode hex="004F"/>
  <anchor x="375" y="0" name="bottom"/>
  <anchor x="392" y="326" name="center"/>
  <anchor x="443" y="10" name="ogonek"/>
  <anchor x="409" y="652" name="top"/>
  <anchor x="55" y="652" name="topleft"/>
  <anchor x="593" y="608" name="topright"/>
  <outline>
    <contour>
      <point x="368" y="-13" type="curve" smooth="yes"/>
      <point x="582" y="-13"/>
      <point x="738" y="45"/>
      <point x="738" y="365" type="curve" smooth="yes"/>
      <point x="738" y="635"/>
      <point x="577" y="652"/>
      <point x="421" y="652" type="curve" smooth="yes"/>
      <point x="206" y="652"/>
      <point x="50" y="594"/>
      <point x="50" y="275" type="curve" smooth="yes"/>
      <point x="50" y="5"/>
      <point x="211" y="-13"/>
    </contour>
    <contour>
      <point x="415" y="68" type="curve" smooth="yes"/>
      <point x="330" y="68"/>
      <point x="278" y="125"/>
      <point x="278" y="279" type="curve" smooth="yes"/>
      <point x="278" y="401"/>
      <point x="295" y="580"/>
      <point x="373" y="580" type="curve" smooth="yes"/>
      <point x="458" y="580"/>
      <point x="510" y="522"/>
      <point x="510" y="370" type="curve" smooth="yes"/>
      <point x="510" y="246"/>
      <point x="494" y="68"/>
    </contour>
  </outline>
</glyph>
<glyph name="P" format="2">
  <advance width="665"/>
  <unicode hex="0050"/>
  <anchor x="265" y="0" name="bottom"/>
  <anchor x="299" y="652" name="top"/>
  <outline>
    <contour>
      <point x="234" y="-13" type="curve" smooth="yes"/>
      <point x="278" y="-13"/>
      <point x="282" y="-4"/>
      <point x="282" y="21" type="curve" smooth="yes"/>
      <point x="282" y="79"/>
      <point x="285" y="154"/>
      <point x="288" y="231" type="curve"/>
      <point x="293" y="223"/>
      <point x="319" y="204"/>
      <point x="339" y="204" type="curve" smooth="yes"/>
      <point x="539" y="204"/>
      <point x="670" y="319"/>
      <point x="670" y="459" type="curve" smooth="yes"/>
      <point x="670" y="571"/>
      <point x="601" y="639"/>
      <point x="456" y="639" type="curve" smooth="yes"/>
      <point x="87" y="639" type="line"/>
      <point x="87" y="426"/>
      <point x="63" y="77"/>
      <point x="63" y="59" type="curve" smooth="yes"/>
      <point x="63" y="9"/>
      <point x="170" y="-13"/>
    </contour>
    <contour>
      <point x="289" y="272" type="curve"/>
      <point x="289" y="287"/>
      <point x="304" y="541"/>
      <point x="305" y="553" type="curve"/>
      <point x="314" y="553"/>
      <point x="323" y="553"/>
      <point x="341" y="553" type="curve" smooth="yes"/>
      <point x="410" y="553"/>
      <point x="443" y="498"/>
      <point x="443" y="437" type="curve" smooth="yes"/>
      <point x="443" y="390"/>
      <point x="428" y="343"/>
      <point x="394" y="311" type="curve" smooth="yes"/>
      <point x="358" y="278"/>
      <point x="320" y="272"/>
    </contour>
  </outline>
</glyph>
<glyph name="Q" format="2">
  <advance width="763"/>
  <unicode hex="0051"/>
  <outline>
    <contour>
      <point x="619" y="-152" type="curve" smooth="yes"/>
      <point x="683" y="-152"/>
      <point x="759" y="-67"/>
      <point x="759" y="-14" type="curve" smooth="yes"/>
      <point x="759" y="-4"/>
      <point x="756" y="-2"/>
      <point x="748" y="0" type="curve" smooth="yes"/>
      <point x="706" y="8"/>
      <point x="628" y="35"/>
      <point x="596" y="53" type="curve"/>
      <point x="671" y="94"/>
      <point x="738" y="195"/>
      <point x="738" y="365" type="curve" smooth="yes"/>
      <point x="738" y="635"/>
      <point x="577" y="652"/>
      <point x="421" y="652" type="curve" smooth="yes"/>
      <point x="206" y="652"/>
      <point x="50" y="594"/>
      <point x="50" y="275" type="curve" smooth="yes"/>
      <point x="50" y="107"/>
      <point x="125" y="33"/>
      <point x="257" y="0" type="curve" smooth="yes"/>
      <point x="291" y="-8"/>
      <point x="510" y="-121"/>
      <point x="568" y="-140" type="curve" smooth="yes"/>
      <point x="587" y="-146"/>
      <point x="600" y="-152"/>
    </contour>
    <contour>
      <point x="415" y="50" type="curve" smooth="yes"/>
      <point x="330" y="50"/>
      <point x="278" y="109"/>
      <point x="278" y="269" type="curve" smooth="yes"/>
      <point x="278" y="395"/>
      <point x="295" y="580"/>
      <point x="373" y="580" type="curve" smooth="yes"/>
      <point x="458" y="580"/>
      <point x="510" y="520"/>
      <point x="510" y="363" type="curve" smooth="yes"/>
      <point x="510" y="234"/>
      <point x="494" y="50"/>
    </contour>
  </outline>
</glyph>
<glyph name="R" format="2">
  <advance width="693"/>
  <unicode hex="0052"/>
  <anchor x="346" y="0" name="bottom"/>
  <anchor x="380" y="652" name="top"/>
  <outline>
    <contour>
      <point x="234" y="-13" type="curve"/>
      <point x="278" y="-13"/>
      <point x="283" y="-4"/>
      <point x="283" y="21" type="curve"/>
      <point x="283" y="88"/>
      <point x="287" y="170"/>
      <point x="291" y="261" type="curve"/>
      <point x="301" y="250"/>
      <point x="327" y="239"/>
      <point x="336" y="239" type="curve"/>
      <point x="395" y="125"/>
      <point x="449" y="24"/>
      <point x="461" y="7" type="curve"/>
      <point x="473" y="-10"/>
      <point x="485" y="-13"/>
      <point x="510" y="-13" type="curve"/>
      <point x="562" y="-13"/>
      <point x="678" y="37"/>
      <point x="678" y="66" type="curve"/>
      <point x="678" y="75"/>
      <point x="673" y="80"/>
      <point x="659" y="104" type="curve"/>
      <point x="629" y="156"/>
      <point x="564" y="273"/>
      <point x="550" y="298" type="curve"/>
      <point x="611" y="327"/>
      <point x="671" y="394"/>
      <point x="671" y="478" type="curve"/>
      <point x="671" y="597"/>
      <point x="600" y="639"/>
      <point x="456" y="639" type="curve"/>
      <point x="87" y="639" type="line"/>
      <point x="87" y="426"/>
      <point x="63" y="77"/>
      <point x="63" y="59" type="curve"/>
      <point x="63" y="9"/>
      <point x="170" y="-13"/>
    </contour>
    <contour>
      <point x="292" y="304" type="curve"/>
      <point x="293" y="320"/>
      <point x="304" y="523"/>
      <point x="306" y="553" type="curve"/>
      <point x="318" y="553"/>
      <point x="329" y="553"/>
      <point x="341" y="553" type="curve"/>
      <point x="409" y="553"/>
      <point x="444" y="505"/>
      <point x="444" y="451" type="curve"/>
      <point x="444" y="411"/>
      <point x="431" y="373"/>
      <point x="402" y="344" type="curve"/>
      <point x="365" y="307"/>
      <point x="315" y="304"/>
    </contour>
  </outline>
</glyph>
<glyph name="S" format="2">
  <advance width="574"/>
  <unicode hex="0053"/>
  <anchor x="269" y="0" name="bottom"/>
  <anchor x="305" y="652" name="top"/>
  <outline>
    <contour>
      <point x="280" y="-13" type="curve" smooth="yes"/>
      <point x="409" y="-13"/>
      <point x="522" y="70"/>
      <point x="522" y="200" type="curve" smooth="yes"/>
      <point x="522" y="240"/>
      <point x="516" y="285"/>
      <point x="477" y="326" type="curve" smooth="yes"/>
      <point x="418" y="388"/>
      <point x="337" y="420"/>
      <point x="299" y="455" type="curve" smooth="yes"/>
      <point x="287" y="466"/>
      <point x="282" y="474"/>
      <point x="282" y="489" type="curve" smooth="yes"/>
      <point x="282" y="521"/>
      <point x="310" y="526"/>
      <point x="340" y="526" type="curve" smooth="yes"/>
      <point x="396" y="526"/>
      <point x="438" y="507"/>
      <point x="468" y="492" type="curve" smooth="yes"/>
      <point x="480" y="486"/>
      <point x="492" y="483"/>
      <point x="502" y="483" type="curve" smooth="yes"/>
      <point x="517" y="483"/>
      <point x="526" y="511"/>
      <point x="526" y="551" type="curve" smooth="yes"/>
      <point x="526" y="576"/>
      <point x="522" y="592"/>
      <point x="498" y="608" type="curve" smooth="yes"/>
      <point x="443" y="645"/>
      <point x="366" y="652"/>
      <point x="302" y="652" type="curve" smooth="yes"/>
      <point x="163" y="652"/>
      <point x="70" y="560"/>
      <point x="70" y="437" type="curve" smooth="yes"/>
      <point x="70" y="392"/>
      <point x="81" y="342"/>
      <point x="134" y="293" type="curve" smooth="yes"/>
      <point x="180" y="251"/>
      <point x="246" y="225"/>
      <point x="285" y="186" type="curve" smooth="yes"/>
      <point x="301" y="170"/>
      <point x="306" y="158"/>
      <point x="306" y="146" type="curve" smooth="yes"/>
      <point x="306" y="124"/>
      <point x="280" y="112"/>
      <point x="241" y="112" type="curve" smooth="yes"/>
      <point x="193" y="112"/>
      <point x="146" y="130"/>
      <point x="121" y="141" type="curve" smooth="yes"/>
      <point x="100" y="150"/>
      <point x="84" y="155"/>
      <point x="74" y="155" type="curve" smooth="yes"/>
      <point x="58" y="155"/>
      <point x="48" y="127"/>
      <point x="48" y="87" type="curve" smooth="yes"/>
      <point x="48" y="58"/>
      <point x="53" y="41"/>
      <point x="90" y="23" type="curve" smooth="yes"/>
      <point x="140" y="-1"/>
      <point x="194" y="-13"/>
    </contour>
  </outline>
</glyph>
<glyph name="T" format="2">
  <advance width="541"/>
  <unicode hex="0054"/>
  <anchor x="262" y="0" name="bottom"/>
  <anchor x="281" y="326" name="center"/>
  <anchor x="303" y="652" name="top"/>
  <outline>
    <contour>
      <point x="332" y="-13" type="curve"/>
      <point x="376" y="-13"/>
      <point x="381" y="-4"/>
      <point x="381" y="21" type="curve"/>
      <point x="381" y="157"/>
      <point x="395" y="401"/>
      <point x="402" y="514" type="curve"/>
      <point x="405" y="514" type="line"/>
      <point x="418" y="514"/>
      <point x="531" y="505"/>
      <point x="540" y="505" type="curve"/>
      <point x="550" y="505"/>
      <point x="556" y="570"/>
      <point x="556" y="599" type="curve"/>
      <point x="556" y="624"/>
      <point x="552" y="639"/>
      <point x="536" y="639" type="curve"/>
      <point x="55" y="639" type="line"/>
      <point x="41" y="639"/>
      <point x="28" y="603"/>
      <point x="28" y="550" type="curve"/>
      <point x="28" y="526"/>
      <point x="32" y="505"/>
      <point x="40" y="505" type="curve"/>
      <point x="49" y="505"/>
      <point x="150" y="514"/>
      <point x="179" y="514" type="curve"/>
      <point x="183" y="514" type="line"/>
      <point x="178" y="327"/>
      <point x="161" y="74"/>
      <point x="161" y="59" type="curve"/>
      <point x="161" y="9"/>
      <point x="268" y="-13"/>
    </contour>
  </outline>
</glyph>
<glyph name="U" format="2">
  <advance width="700"/>
  <unicode hex="0055"/>
  <anchor x="374" y="0" name="bottom"/>
  <anchor x="617" y="10" name="ogonek"/>
  <anchor x="408" y="652" name="top"/>
  <anchor x="658" y="608" name="topright"/>
  <outline>
    <contour>
      <point x="348" y="-13" type="curve" smooth="yes"/>
      <point x="453" y="-13"/>
      <point x="529" y="13"/>
      <point x="583" y="64" type="curve" smooth="yes"/>
      <point x="679" y="155"/>
      <point x="708" y="327"/>
      <point x="708" y="580" type="curve" smooth="yes"/>
      <point x="708" y="630"/>
      <point x="642" y="652"/>
      <point x="603" y="652" type="curve" smooth="yes"/>
      <point x="576" y="652"/>
      <point x="573" y="643"/>
      <point x="573" y="618" type="curve" smooth="yes"/>
      <point x="573" y="343"/>
      <point x="548" y="201"/>
      <point x="506" y="145" type="curve" smooth="yes"/>
      <point x="484" y="116"/>
      <point x="450" y="99"/>
      <point x="420" y="99" type="curve" smooth="yes"/>
      <point x="384" y="99"/>
      <point x="350" y="112"/>
      <point x="328" y="146" type="curve" smooth="yes"/>
      <point x="302" y="186"/>
      <point x="295" y="264"/>
      <point x="295" y="347" type="curve" smooth="yes"/>
      <point x="295" y="420"/>
      <point x="310" y="569"/>
      <point x="310" y="580" type="curve" smooth="yes"/>
      <point x="310" y="630"/>
      <point x="203" y="652"/>
      <point x="139" y="652" type="curve" smooth="yes"/>
      <point x="95" y="652"/>
      <point x="93" y="643"/>
      <point x="90" y="618" type="curve" smooth="yes"/>
      <point x="89" y="608"/>
      <point x="74" y="447"/>
      <point x="72" y="298" type="curve" smooth="yes"/>
      <point x="71" y="195"/>
      <point x="84" y="105"/>
      <point x="139" y="55" type="curve" smooth="yes"/>
      <point x="187" y="12"/>
      <point x="266" y="-13"/>
    </contour>
  </outline>
</glyph>
<glyph name="V" format="2">
  <advance width="626"/>
  <unicode hex="0056"/>
  <anchor x="302" y="0" name="bottom"/>
  <anchor x="373" y="652" name="top"/>
  <outline>
    <contour>
      <point x="350" y="-13" type="curve" smooth="yes"/>
      <point x="385" y="-13"/>
      <point x="394" y="-6"/>
      <point x="400" y="8" type="curve" smooth="yes"/>
      <point x="420" y="59"/>
      <point x="537" y="327"/>
      <point x="633" y="540" type="curve" smooth="yes"/>
      <point x="641" y="557"/>
      <point x="646" y="569"/>
      <point x="646" y="579" type="curve" smooth="yes"/>
      <point x="646" y="630"/>
      <point x="594" y="652"/>
      <point x="562" y="652" type="curve" smooth="yes"/>
      <point x="550" y="652"/>
      <point x="544" y="649"/>
      <point x="541" y="641" type="curve" smooth="yes"/>
      <point x="501" y="532"/>
      <point x="398" y="267"/>
      <point x="354" y="185" type="curve"/>
      <point x="336" y="248"/>
      <point x="293" y="545"/>
      <point x="290" y="579" type="curve" smooth="yes"/>
      <point x="286" y="625"/>
      <point x="181" y="652"/>
      <point x="93" y="652" type="curve" smooth="yes"/>
      <point x="55" y="652"/>
      <point x="40" y="646"/>
      <point x="40" y="632" type="curve" smooth="yes"/>
      <point x="40" y="626"/>
      <point x="43" y="618"/>
      <point x="46" y="607" type="curve" smooth="yes"/>
      <point x="49" y="596"/>
      <point x="130" y="236"/>
      <point x="163" y="66" type="curve" smooth="yes"/>
      <point x="173" y="15"/>
      <point x="259" y="-13"/>
    </contour>
  </outline>
</glyph>
<glyph name="X" format="2">
  <advance width="593"/>
  <unicode hex="0058"/>
  <anchor x="233" y="0" name="bottom"/>
  <anchor x="383" y="646" name="top"/>
  <outline>
    <contour>
      <point x="82" y="-13" type="curve" smooth="yes"/>
      <point x="87" y="-13"/>
      <point x="93" y="-8"/>
      <point x="109" y="15" type="curve" smooth="yes"/>
      <point x="133" y="49"/>
      <point x="219" y="166"/>
      <point x="251" y="203" type="curve"/>
      <point x="298" y="102"/>
      <point x="339" y="16"/>
      <point x="343" y="8" type="curve" smooth="yes"/>
      <point x="351" y="-7"/>
      <point x="370" y="-13"/>
      <point x="392" y="-13" type="curve" smooth="yes"/>
      <point x="435" y="-13"/>
      <point x="492" y="7"/>
      <point x="528" y="27" type="curve" smooth="yes"/>
      <point x="553" y="41"/>
      <point x="562" y="49"/>
      <point x="562" y="60" type="curve" smooth="yes"/>
      <point x="562" y="66"/>
      <point x="558" y="72"/>
      <point x="554" y="80" type="curve" smooth="yes"/>
      <point x="519" y="146"/>
      <point x="472" y="242"/>
      <point x="428" y="333" type="curve"/>
      <point x="508" y="424"/>
      <point x="555" y="469"/>
      <point x="574" y="509" type="curve" smooth="yes"/>
      <point x="580" y="522"/>
      <point x="583" y="535"/>
      <point x="583" y="547" type="curve" smooth="yes"/>
      <point x="583" y="594"/>
      <point x="537" y="652"/>
      <point x="526" y="652" type="curve" smooth="yes"/>
      <point x="521" y="652"/>
      <point x="515" y="647"/>
      <point x="499" y="624" type="curve" smooth="yes"/>
      <point x="475" y="590"/>
      <point x="396" y="481"/>
      <point x="364" y="444" type="curve"/>
      <point x="319" y="540"/>
      <point x="281" y="623"/>
      <point x="277" y="630" type="curve" smooth="yes"/>
      <point x="268" y="646"/>
      <point x="249" y="652"/>
      <point x="226" y="652" type="curve" smooth="yes"/>
      <point x="177" y="652"/>
      <point x="58" y="612"/>
      <point x="58" y="579" type="curve" smooth="yes"/>
      <point x="58" y="573"/>
      <point x="61" y="566"/>
      <point x="65" y="558" type="curve" smooth="yes"/>
      <point x="100" y="494"/>
      <point x="144" y="398"/>
      <point x="188" y="312" type="curve"/>
      <point x="104" y="217"/>
      <point x="52" y="168"/>
      <point x="33" y="125" type="curve" smooth="yes"/>
      <point x="28" y="114"/>
      <point x="25" y="102"/>
      <point x="25" y="91" type="curve" smooth="yes"/>
      <point x="25" y="36"/>
      <point x="76" y="-13"/>
    </contour>
  </outline>
</glyph>
<glyph name="underscore" format="2">
  <advance width="500"/>
  <unicode hex="005F"/>
  <outline>
    <contour>
      <point x="-4" y="-140" type="curve" smooth="yes"/>
      <point x="510" y="-140" type="line" smooth="yes"/>
      <point x="527" y="-140"/>
      <point x="533" y="-119"/>
      <point x="533" y="-101" type="curve" smooth="yes"/>
      <point x="533" y="-95"/>
      <point x="530" y="-93"/>
      <point x="525" y="-93" type="curve" smooth="yes"/>
      <point x="11" y="-93" type="line" smooth="yes"/>
      <point x="-6" y="-93"/>
      <point x="-12" y="-115"/>
      <point x="-12" y="-133" type="curve" smooth="yes"/>
      <point x="-12" y="-139"/>
      <point x="-9" y="-140"/>
    </contour>
  </outline>
</glyph>
<glyph name="b" format="2">
  <advance width="654"/>
  <unicode hex="0062"/>
  <anchor x="319" y="0" name="bottom"/>
  <anchor x="213" y="639" name="cross"/>
  <anchor x="470" y="524" name="top"/>
  <outline>
    <contour>
      <point x="366" y="-13" type="curve" smooth="yes"/>
      <point x="465" y="-13"/>
      <point x="518" y="16"/>
      <point x="577" y="94" type="curve" smooth="yes"/>
      <point x="629" y="163"/>
      <point x="624" y="369"/>
      <point x="624" y="398" type="curve" smooth="yes"/>
      <point x="624" y="414"/>
      <point x="623" y="427"/>
      <point x="621" y="442" type="curve" smooth="yes"/>
      <point x="614" y="493"/>
      <point x="511" y="524"/>
      <point x="493" y="524" type="curve" smooth="yes"/>
      <point x="440" y="524"/>
      <point x="286" y="340"/>
      <point x="279" y="275" type="curve"/>
      <point x="279" y="311"/>
      <point x="310" y="652"/>
      <point x="310" y="665" type="curve" smooth="yes"/>
      <point x="310" y="726"/>
      <point x="207" y="756"/>
      <point x="126" y="756" type="curve" smooth="yes"/>
      <point x="100" y="756"/>
      <point x="93" y="748"/>
      <point x="93" y="729" type="curve" smooth="yes"/>
      <point x="93" y="718"/>
      <point x="56" y="161"/>
      <point x="56" y="78" type="curve"/>
      <point x="51" y="78"/>
      <point x="40" y="56"/>
      <point x="40" y="29" type="curve" smooth="yes"/>
      <point x="40" y="17"/>
      <point x="43" y="16"/>
      <point x="48" y="15" type="curve"/>
      <point x="202" y="-8"/>
      <point x="283" y="-13"/>
    </contour>
    <contour>
      <point x="327" y="55" type="curve" smooth="yes"/>
      <point x="310" y="55"/>
      <point x="290" y="57"/>
      <point x="273" y="63" type="curve"/>
      <point x="273" y="212"/>
      <point x="376" y="342"/>
      <point x="393" y="342" type="curve" smooth="yes"/>
      <point x="401" y="342"/>
      <point x="404" y="337"/>
      <point x="404" y="285" type="curve" smooth="yes"/>
      <point x="404" y="141"/>
      <point x="382" y="55"/>
    </contour>
  </outline>
</glyph>
<glyph name="e" format="2">
  <advance width="496"/>
  <unicode hex="0065"/>
  <anchor x="231" y="0" name="bottom"/>
  <anchor x="368" y="0" name="ogonek"/>
  <anchor x="296" y="524" name="top"/>
  <outline>
    <contour>
      <point x="267" y="-13" type="curve" smooth="yes"/>
      <point x="328" y="-13"/>
      <point x="399" y="16"/>
      <point x="443" y="60" type="curve" smooth="yes"/>
      <point x="455" y="72"/>
      <point x="458" y="82"/>
      <point x="458" y="88" type="curve" smooth="yes"/>
      <point x="458" y="111"/>
      <point x="454" y="129"/>
      <point x="445" y="129" type="curve" smooth="yes"/>
      <point x="441" y="129"/>
      <point x="434" y="125"/>
      <point x="424" y="119" type="curve" smooth="yes"/>
      <point x="399" y="104"/>
      <point x="361" y="87"/>
      <point x="333" y="87" type="curve" smooth="yes"/>
      <point x="272" y="87"/>
      <point x="237" y="103"/>
      <point x="237" y="207" type="curve" smooth="yes"/>
      <point x="237" y="217"/>
      <point x="237" y="228"/>
      <point x="237" y="239" type="curve"/>
      <point x="247" y="239"/>
      <point x="257" y="239"/>
      <point x="267" y="239" type="curve" smooth="yes"/>
      <point x="370" y="239"/>
      <point x="491" y="285"/>
      <point x="491" y="393" type="curve" smooth="yes"/>
      <point x="491" y="487"/>
      <point x="426" y="524"/>
      <point x="276" y="524" type="curve" smooth="yes"/>
      <point x="132" y="524"/>
      <point x="35" y="441"/>
      <point x="35" y="219" type="curve" smooth="yes"/>
      <point x="35" y="3"/>
      <point x="152" y="-13"/>
    </contour>
    <contour>
      <point x="264" y="291" type="curve" smooth="yes"/>
      <point x="249" y="289"/>
      <point x="241" y="289"/>
      <point x="238" y="289" type="curve"/>
      <point x="243" y="425"/>
      <point x="271" y="454"/>
      <point x="301" y="454" type="curve" smooth="yes"/>
      <point x="320" y="454"/>
      <point x="335" y="434"/>
      <point x="335" y="401" type="curve" smooth="yes"/>
      <point x="335" y="315"/>
      <point x="300" y="296"/>
    </contour>
  </outline>
</glyph>
<glyph name="h" format="2">
  <advance width="695"/>
  <unicode hex="0068"/>
  <anchor x="318" y="0" name="bottom"/>
  <anchor x="318" y="378" name="center"/>
  <anchor x="215" y="639" name="cross"/>
  <anchor x="172" y="718" name="top"/>
  <outline>
    <contour>
      <point x="230" y="-13" type="curve" smooth="yes"/>
      <point x="256" y="-13"/>
      <point x="263" y="-5"/>
      <point x="263" y="14" type="curve" smooth="yes"/>
      <point x="263" y="77"/>
      <point x="262" y="118"/>
      <point x="281" y="178" type="curve" smooth="yes"/>
      <point x="309" y="264"/>
      <point x="365" y="343"/>
      <point x="382" y="343" type="curve" smooth="yes"/>
      <point x="390" y="343"/>
      <point x="393" y="338"/>
      <point x="393" y="285" type="curve" smooth="yes"/>
      <point x="393" y="272"/>
      <point x="383" y="120"/>
      <point x="383" y="112" type="curve" smooth="yes"/>
      <point x="383" y="97"/>
      <point x="384" y="84"/>
      <point x="386" y="69" type="curve" smooth="yes"/>
      <point x="393" y="18"/>
      <point x="496" y="-13"/>
      <point x="514" y="-13" type="curve" smooth="yes"/>
      <point x="558" y="-13"/>
      <point x="655" y="104"/>
      <point x="677" y="137" type="curve" smooth="yes"/>
      <point x="684" y="147"/>
      <point x="688" y="157"/>
      <point x="688" y="168" type="curve" smooth="yes"/>
      <point x="688" y="187"/>
      <point x="671" y="211"/>
      <point x="660" y="211" type="curve" smooth="yes"/>
      <point x="656" y="211"/>
      <point x="654" y="209"/>
      <point x="648" y="201" type="curve"/>
      <point x="641" y="192"/>
      <point x="622" y="168"/>
      <point x="614" y="168" type="curve" smooth="yes"/>
      <point x="606" y="168"/>
      <point x="603" y="173"/>
      <point x="603" y="226" type="curve" smooth="yes"/>
      <point x="603" y="243"/>
      <point x="613" y="387"/>
      <point x="613" y="399" type="curve" smooth="yes"/>
      <point x="613" y="414"/>
      <point x="612" y="427"/>
      <point x="610" y="442" type="curve" smooth="yes"/>
      <point x="603" y="493"/>
      <point x="500" y="524"/>
      <point x="482" y="524" type="curve" smooth="yes"/>
      <point x="429" y="524"/>
      <point x="275" y="340"/>
      <point x="268" y="275" type="curve"/>
      <point x="268" y="311"/>
      <point x="299" y="652"/>
      <point x="299" y="665" type="curve" smooth="yes"/>
      <point x="299" y="726"/>
      <point x="196" y="756"/>
      <point x="115" y="756" type="curve" smooth="yes"/>
      <point x="89" y="756"/>
      <point x="82" y="748"/>
      <point x="82" y="729" type="curve" smooth="yes"/>
      <point x="82" y="718"/>
      <point x="46" y="174"/>
      <point x="46" y="78" type="curve" smooth="yes"/>
      <point x="46" y="18"/>
      <point x="149" y="-13"/>
    </contour>
  </outline>
</glyph>
<glyph name="i" format="2">
  <advance width="359"/>
  <unicode hex="0069"/>
  <anchor x="156" y="0" name="bottom"/>
  <outline>
    <contour>
      <point x="185" y="-14" type="curve" smooth="yes"/>
      <point x="229" y="-14"/>
      <point x="326" y="103"/>
      <point x="348" y="136" type="curve" smooth="yes"/>
      <point x="355" y="146"/>
      <point x="359" y="156"/>
      <point x="359" y="166" type="curve" smooth="yes"/>
      <point x="359" y="186"/>
      <point x="342" y="210"/>
      <point x="331" y="210" type="curve" smooth="yes"/>
      <point x="327" y="210"/>
      <point x="325" y="208"/>
      <point x="319" y="200" type="curve"/>
      <point x="312" y="191"/>
      <point x="293" y="167"/>
      <point x="285" y="167" type="curve" smooth="yes"/>
      <point x="277" y="167"/>
      <point x="274" y="172"/>
      <point x="274" y="225" type="curve" smooth="yes"/>
      <point x="274" y="241"/>
      <point x="292" y="420"/>
      <point x="292" y="432" type="curve" smooth="yes"/>
      <point x="292" y="493"/>
      <point x="189" y="523"/>
      <point x="108" y="523" type="curve" smooth="yes"/>
      <point x="82" y="523"/>
      <point x="75" y="515"/>
      <point x="75" y="496" type="curve" smooth="yes"/>
      <point x="75" y="485"/>
      <point x="54" y="129"/>
      <point x="54" y="111" type="curve" smooth="yes"/>
      <point x="54" y="86"/>
      <point x="56" y="75"/>
      <point x="57" y="68" type="curve" smooth="yes"/>
      <point x="64" y="17"/>
      <point x="167" y="-14"/>
    </contour>
    <contour>
      <point x="176" y="594" type="curve" smooth="yes"/>
      <point x="234" y="594"/>
      <point x="311" y="630"/>
      <point x="311" y="680" type="curve" smooth="yes"/>
      <point x="311" y="737"/>
      <point x="257" y="756"/>
      <point x="203" y="756" type="curve" smooth="yes"/>
      <point x="135" y="756"/>
      <point x="70" y="736"/>
      <point x="70" y="675" type="curve" smooth="yes"/>
      <point x="70" y="640"/>
      <point x="111" y="594"/>
    </contour>
  </outline>
</glyph>
<glyph name="j" format="2">
  <advance width="299"/>
  <unicode hex="006A"/>
  <outline>
    <contour>
      <point x="5" y="-245" type="curve" smooth="yes"/>
      <point x="55" y="-245"/>
      <point x="114" y="-228"/>
      <point x="162" y="-184" type="curve" smooth="yes"/>
      <point x="214" y="-137"/>
      <point x="252" y="-58"/>
      <point x="255" y="64" type="curve" smooth="yes"/>
      <point x="258" y="187"/>
      <point x="264" y="419"/>
      <point x="264" y="432" type="curve" smooth="yes"/>
      <point x="264" y="493"/>
      <point x="161" y="523"/>
      <point x="81" y="523" type="curve" smooth="yes"/>
      <point x="54" y="523"/>
      <point x="48" y="515"/>
      <point x="48" y="496" type="curve" smooth="yes"/>
      <point x="48" y="477"/>
      <point x="45" y="305"/>
      <point x="42" y="145" type="curve" smooth="yes"/>
      <point x="37" y="-90"/>
      <point x="35" y="-106"/>
      <point x="8" y="-138" type="curve" smooth="yes"/>
      <point x="0" y="-147"/>
      <point x="-14" y="-152"/>
      <point x="-36" y="-152" type="curve" smooth="yes"/>
      <point x="-50" y="-152"/>
      <point x="-78" y="-146"/>
      <point x="-85" y="-146" type="curve" smooth="yes"/>
      <point x="-94" y="-146"/>
      <point x="-103" y="-162"/>
      <point x="-103" y="-178" type="curve" smooth="yes"/>
      <point x="-103" y="-204"/>
      <point x="-100" y="-223"/>
      <point x="-79" y="-232" type="curve" smooth="yes"/>
      <point x="-57" y="-241"/>
      <point x="-24" y="-245"/>
    </contour>
    <contour>
      <point x="149" y="594" type="curve" smooth="yes"/>
      <point x="207" y="594"/>
      <point x="284" y="630"/>
      <point x="284" y="679" type="curve" smooth="yes"/>
      <point x="284" y="737"/>
      <point x="230" y="756"/>
      <point x="176" y="756" type="curve" smooth="yes"/>
      <point x="108" y="756"/>
      <point x="43" y="736"/>
      <point x="43" y="675" type="curve" smooth="yes"/>
      <point x="43" y="640"/>
      <point x="84" y="594"/>
    </contour>
  </outline>
</glyph>
<glyph name="l" format="2">
  <advance width="356"/>
  <unicode hex="006C"/>
  <anchor x="148" y="0" name="bottom"/>
  <anchor x="148" y="378" name="center"/>
  <anchor x="148" y="756" name="top"/>
  <anchor x="297" y="632" name="topright"/>
  <outline>
    <contour>
      <point x="177" y="-13" type="curve" smooth="yes"/>
      <point x="221" y="-13"/>
      <point x="318" y="104"/>
      <point x="340" y="137" type="curve" smooth="yes"/>
      <point x="347" y="147"/>
      <point x="351" y="157"/>
      <point x="351" y="167" type="curve" smooth="yes"/>
      <point x="351" y="187"/>
      <point x="334" y="211"/>
      <point x="323" y="211" type="curve" smooth="yes"/>
      <point x="319" y="211"/>
      <point x="317" y="209"/>
      <point x="311" y="201" type="curve"/>
      <point x="304" y="192"/>
      <point x="285" y="168"/>
      <point x="277" y="168" type="curve" smooth="yes"/>
      <point x="269" y="168"/>
      <point x="266" y="173"/>
      <point x="266" y="226" type="curve" smooth="yes"/>
      <point x="266" y="242"/>
      <point x="299" y="653"/>
      <point x="299" y="665" type="curve" smooth="yes"/>
      <point x="299" y="726"/>
      <point x="196" y="756"/>
      <point x="115" y="756" type="curve" smooth="yes"/>
      <point x="89" y="756"/>
      <point x="82" y="748"/>
      <point x="82" y="729" type="curve" smooth="yes"/>
      <point x="82" y="718"/>
      <point x="46" y="130"/>
      <point x="46" y="112" type="curve" smooth="yes"/>
      <point x="46" y="87"/>
      <point x="48" y="76"/>
      <point x="49" y="69" type="curve" smooth="yes"/>
      <point x="56" y="18"/>
      <point x="159" y="-13"/>
    </contour>
  </outline>
</glyph>
<glyph name="r" format="2">
  <advance width="462"/>
  <unicode hex="0072"/>
  <anchor x="154" y="0" name="bottom"/>
  <anchor x="290" y="524" name="top"/>
  <outline>
    <contour>
      <point x="231" y="-13" type="curve" smooth="yes"/>
      <point x="257" y="-13"/>
      <point x="264" y="-5"/>
      <point x="264" y="14" type="curve" smooth="yes"/>
      <point x="264" y="77"/>
      <point x="263" y="118"/>
      <point x="282" y="178" type="curve" smooth="yes"/>
      <point x="309" y="264"/>
      <point x="365" y="352"/>
      <point x="418" y="352" type="curve" smooth="yes"/>
      <point x="463" y="352"/>
      <point x="482" y="386"/>
      <point x="482" y="432" type="curve" smooth="yes"/>
      <point x="482" y="492"/>
      <point x="479" y="524"/>
      <point x="430" y="524" type="curve" smooth="yes"/>
      <point x="376" y="524"/>
      <point x="314" y="434"/>
      <point x="271" y="296" type="curve"/>
      <point x="277" y="357"/>
      <point x="284" y="421"/>
      <point x="284" y="433" type="curve" smooth="yes"/>
      <point x="284" y="494"/>
      <point x="181" y="524"/>
      <point x="100" y="524" type="curve" smooth="yes"/>
      <point x="74" y="524"/>
      <point x="67" y="516"/>
      <point x="67" y="497" type="curve" smooth="yes"/>
      <point x="67" y="485"/>
      <point x="47" y="174"/>
      <point x="47" y="78" type="curve" smooth="yes"/>
      <point x="47" y="18"/>
      <point x="150" y="-13"/>
    </contour>
  </outline>
</glyph>
<glyph name="t" format="2">
  <advance width="408"/>
  <unicode hex="0074"/>
  <anchor x="209" y="0" name="bottom"/>
  <anchor x="180" y="262" name="center"/>
  <anchor x="190" y="636" name="top"/>
  <anchor x="339" y="524" name="topright"/>
  <outline>
    <contour>
      <point x="214" y="-13" type="curve" smooth="yes"/>
      <point x="302" y="-13"/>
      <point x="359" y="30"/>
      <point x="386" y="62" type="curve" smooth="yes"/>
      <point x="391" y="68"/>
      <point x="394" y="78"/>
      <point x="394" y="94" type="curve" smooth="yes"/>
      <point x="394" y="110"/>
      <point x="388" y="131"/>
      <point x="381" y="131" type="curve" smooth="yes"/>
      <point x="378" y="131"/>
      <point x="362" y="119"/>
      <point x="353" y="114" type="curve" smooth="yes"/>
      <point x="344" y="109"/>
      <point x="333" y="104"/>
      <point x="321" y="104" type="curve" smooth="yes"/>
      <point x="286" y="104"/>
      <point x="281" y="126"/>
      <point x="281" y="167" type="curve" smooth="yes"/>
      <point x="281" y="246"/>
      <point x="289" y="348"/>
      <point x="299" y="415" type="curve" smooth="yes"/>
      <point x="380" y="415" type="line" smooth="yes"/>
      <point x="396" y="415"/>
      <point x="403" y="437"/>
      <point x="403" y="473" type="curve" smooth="yes"/>
      <point x="403" y="495"/>
      <point x="400" y="499"/>
      <point x="391" y="499" type="curve" smooth="yes"/>
      <point x="306" y="499" type="line" smooth="yes"/>
      <point x="310" y="534"/>
      <point x="312" y="558"/>
      <point x="312" y="560" type="curve" smooth="yes"/>
      <point x="312" y="621"/>
      <point x="209" y="651"/>
      <point x="128" y="651" type="curve" smooth="yes"/>
      <point x="102" y="651"/>
      <point x="95" y="644"/>
      <point x="95" y="625" type="curve" smooth="yes"/>
      <point x="95" y="621"/>
      <point x="90" y="569"/>
      <point x="85" y="499" type="curve" smooth="yes"/>
      <point x="68" y="499" type="line" smooth="yes"/>
      <point x="51" y="499"/>
      <point x="45" y="480"/>
      <point x="45" y="442" type="curve" smooth="yes"/>
      <point x="45" y="420"/>
      <point x="48" y="415"/>
      <point x="58" y="415" type="curve" smooth="yes"/>
      <point x="81" y="415" type="line" smooth="yes"/>
      <point x="76" y="340"/>
      <point x="69" y="217"/>
      <point x="69" y="132" type="curve" smooth="yes"/>
      <point x="69" y="47"/>
      <point x="112" y="-13"/>
    </contour>
  </outline>
</glyph>
<glyph name="u" format="2">
  <advance width="689"/>
  <unicode hex="0075"/>
  <anchor x="277" y="0" name="bottom"/>
  <anchor x="550" y="10" name="ogonek"/>
  <anchor x="327" y="524" name="top"/>
  <anchor x="577" y="479" name="topright"/>
  <outline>
    <contour>
      <point x="178" y="-13" type="curve" smooth="yes"/>
      <point x="231" y="-13"/>
      <point x="373" y="160"/>
      <point x="389" y="224" type="curve"/>
      <point x="387" y="200"/>
      <point x="384" y="144"/>
      <point x="384" y="112" type="curve" smooth="yes"/>
      <point x="384" y="97"/>
      <point x="385" y="84"/>
      <point x="387" y="69" type="curve" smooth="yes"/>
      <point x="394" y="18"/>
      <point x="497" y="-13"/>
      <point x="515" y="-13" type="curve" smooth="yes"/>
      <point x="559" y="-13"/>
      <point x="656" y="104"/>
      <point x="678" y="137" type="curve" smooth="yes"/>
      <point x="685" y="147"/>
      <point x="689" y="157"/>
      <point x="689" y="167" type="curve" smooth="yes"/>
      <point x="689" y="187"/>
      <point x="672" y="211"/>
      <point x="661" y="211" type="curve" smooth="yes"/>
      <point x="657" y="211"/>
      <point x="655" y="209"/>
      <point x="649" y="201" type="curve"/>
      <point x="642" y="192"/>
      <point x="623" y="168"/>
      <point x="615" y="168" type="curve" smooth="yes"/>
      <point x="607" y="168"/>
      <point x="604" y="173"/>
      <point x="604" y="226" type="curve" smooth="yes"/>
      <point x="604" y="263"/>
      <point x="614" y="424"/>
      <point x="614" y="433" type="curve" smooth="yes"/>
      <point x="614" y="494"/>
      <point x="512" y="524"/>
      <point x="431" y="524" type="curve" smooth="yes"/>
      <point x="405" y="524"/>
      <point x="398" y="516"/>
      <point x="398" y="497" type="curve" smooth="yes"/>
      <point x="398" y="434"/>
      <point x="399" y="393"/>
      <point x="380" y="333" type="curve" smooth="yes"/>
      <point x="353" y="247"/>
      <point x="294" y="168"/>
      <point x="278" y="168" type="curve" smooth="yes"/>
      <point x="270" y="168"/>
      <point x="267" y="173"/>
      <point x="267" y="226" type="curve" smooth="yes"/>
      <point x="267" y="270"/>
      <point x="285" y="421"/>
      <point x="285" y="433" type="curve" smooth="yes"/>
      <point x="285" y="494"/>
      <point x="182" y="524"/>
      <point x="101" y="524" type="curve" smooth="yes"/>
      <point x="75" y="524"/>
      <point x="68" y="516"/>
      <point x="68" y="497" type="curve" smooth="yes"/>
      <point x="68" y="486"/>
      <point x="47" y="241"/>
      <point x="47" y="112" type="curve" smooth="yes"/>
      <point x="47" y="97"/>
      <point x="48" y="84"/>
      <point x="50" y="69" type="curve" smooth="yes"/>
      <point x="57" y="18"/>
      <point x="160" y="-13"/>
    </contour>
  </outline>
</glyph>
<glyph name="w" format="2">
  <advance width="873"/>
  <unicode hex="0077"/>
  <anchor x="382" y="0" name="bottom"/>
  <anchor x="426" y="524" name="top"/>
  <outline>
    <contour>
      <point x="245" y="-13" type="curve" smooth="yes"/>
      <point x="272" y="-13"/>
      <point x="281" y="-8"/>
      <point x="302" y="12" type="curve" smooth="yes"/>
      <point x="344" y="51"/>
      <point x="412" y="151"/>
      <point x="448" y="254" type="curve"/>
      <point x="458" y="212"/>
      <point x="469" y="126"/>
      <point x="477" y="62" type="curve" smooth="yes"/>
      <point x="484" y="3"/>
      <point x="590" y="-13"/>
      <point x="640" y="-13" type="curve" smooth="yes"/>
      <point x="670" y="-13"/>
      <point x="676" y="-11"/>
      <point x="691" y="8" type="curve" smooth="yes"/>
      <point x="773" y="112"/>
      <point x="853" y="289"/>
      <point x="853" y="398" type="curve" smooth="yes"/>
      <point x="853" y="444"/>
      <point x="846" y="479"/>
      <point x="826" y="501" type="curve" smooth="yes"/>
      <point x="812" y="516"/>
      <point x="792" y="524"/>
      <point x="763" y="524" type="curve" smooth="yes"/>
      <point x="730" y="524"/>
      <point x="717" y="519"/>
      <point x="717" y="504" type="curve" smooth="yes"/>
      <point x="717" y="489"/>
      <point x="744" y="422"/>
      <point x="744" y="318" type="curve" smooth="yes"/>
      <point x="744" y="251"/>
      <point x="711" y="142"/>
      <point x="684" y="142" type="curve"/>
      <point x="675" y="142"/>
      <point x="674" y="145"/>
      <point x="671" y="163" type="curve" smooth="yes"/>
      <point x="658" y="232"/>
      <point x="630" y="418"/>
      <point x="625" y="433" type="curve" smooth="yes"/>
      <point x="619" y="452"/>
      <point x="614" y="465"/>
      <point x="600" y="479" type="curve" smooth="yes"/>
      <point x="564" y="515"/>
      <point x="474" y="524"/>
      <point x="435" y="524" type="curve" smooth="yes"/>
      <point x="389" y="524"/>
      <point x="384" y="515"/>
      <point x="384" y="490" type="curve" smooth="yes"/>
      <point x="384" y="419"/>
      <point x="388" y="346"/>
      <point x="374" y="276" type="curve" smooth="yes"/>
      <point x="357" y="190"/>
      <point x="323" y="142"/>
      <point x="308" y="142" type="curve"/>
      <point x="301" y="142"/>
      <point x="298" y="148"/>
      <point x="296" y="164" type="curve" smooth="yes"/>
      <point x="287" y="233"/>
      <point x="272" y="418"/>
      <point x="272" y="433" type="curve" smooth="yes"/>
      <point x="272" y="508"/>
      <point x="147" y="524"/>
      <point x="92" y="524" type="curve" smooth="yes"/>
      <point x="51" y="524"/>
      <point x="44" y="516"/>
      <point x="44" y="497" type="curve" smooth="yes"/>
      <point x="44" y="484"/>
      <point x="74" y="203"/>
      <point x="86" y="64" type="curve" smooth="yes"/>
      <point x="91" y="2"/>
      <point x="199" y="-13"/>
    </contour>
  </outline>
</glyph>
<glyph name="x" format="2">
  <advance width="445"/>
  <unicode hex="0078"/>
  <anchor x="206" y="0" name="bottom"/>
  <anchor x="246" y="524" name="top"/>
  <outline>
    <contour>
      <point x="66" y="-13" type="curve" smooth="yes"/>
      <point x="76" y="-13"/>
      <point x="103" y="34"/>
      <point x="188" y="149" type="curve"/>
      <point x="246" y="77"/>
      <point x="302" y="4"/>
      <point x="305" y="-1" type="curve" smooth="yes"/>
      <point x="312" y="-9"/>
      <point x="314" y="-13"/>
      <point x="322" y="-13" type="curve" smooth="yes"/>
      <point x="325" y="-13"/>
      <point x="330" y="-10"/>
      <point x="337" y="-3" type="curve" smooth="yes"/>
      <point x="371" y="31"/>
      <point x="426" y="120"/>
      <point x="426" y="174" type="curve" smooth="yes"/>
      <point x="426" y="188"/>
      <point x="422" y="202"/>
      <point x="416" y="213" type="curve" smooth="yes"/>
      <point x="411" y="222"/>
      <point x="357" y="288"/>
      <point x="343" y="304" type="curve"/>
      <point x="367" y="331"/>
      <point x="414" y="388"/>
      <point x="432" y="411" type="curve" smooth="yes"/>
      <point x="439" y="420"/>
      <point x="441" y="428"/>
      <point x="441" y="444" type="curve" smooth="yes"/>
      <point x="441" y="480"/>
      <point x="416" y="524"/>
      <point x="392" y="524" type="curve" smooth="yes"/>
      <point x="381" y="524"/>
      <point x="354" y="479"/>
      <point x="269" y="363" type="curve"/>
      <point x="211" y="436"/>
      <point x="158" y="505"/>
      <point x="154" y="510" type="curve" smooth="yes"/>
      <point x="148" y="518"/>
      <point x="143" y="524"/>
      <point x="137" y="524" type="curve" smooth="yes"/>
      <point x="131" y="524"/>
      <point x="128" y="521"/>
      <point x="121" y="514" type="curve" smooth="yes"/>
      <point x="85" y="480"/>
      <point x="31" y="392"/>
      <point x="31" y="336" type="curve" smooth="yes"/>
      <point x="31" y="322"/>
      <point x="35" y="309"/>
      <point x="41" y="297" type="curve" smooth="yes"/>
      <point x="46" y="288"/>
      <point x="100" y="223"/>
      <point x="114" y="207" type="curve"/>
      <point x="90" y="180"/>
      <point x="43" y="123"/>
      <point x="25" y="100" type="curve" smooth="yes"/>
      <point x="18" y="91"/>
      <point x="16" y="83"/>
      <point x="16" y="67" type="curve" smooth="yes"/>
      <point x="16" y="31"/>
      <point x="40" y="-13"/>
    </contour>
  </outline>
</glyph>
<glyph name="braceleft" format="2">
  <advance width="394"/>
  <unicode hex="007B"/>
  <outline>
    <contour>
      <point x="207" y="-244" type="curve" smooth="yes"/>
      <point x="239" y="-244"/>
      <point x="279" y="-240"/>
      <point x="310" y="-232" type="curve" smooth="yes"/>
      <point x="323" y="-229"/>
      <point x="330" y="-220"/>
      <point x="330" y="-207" type="curve" smooth="yes"/>
      <point x="330" y="-188"/>
      <point x="327" y="-182"/>
      <point x="316" y="-180" type="curve" smooth="yes"/>
      <point x="292" y="-176"/>
      <point x="276" y="-159"/>
      <point x="279" y="-111" type="curve" smooth="yes"/>
      <point x="283" y="-46"/>
      <point x="292" y="19"/>
      <point x="296" y="84" type="curve" smooth="yes"/>
      <point x="301" y="161"/>
      <point x="280" y="223"/>
      <point x="216" y="256" type="curve"/>
      <point x="285" y="289"/>
      <point x="315" y="351"/>
      <point x="321" y="428" type="curve" smooth="yes"/>
      <point x="326" y="493"/>
      <point x="326" y="558"/>
      <point x="331" y="623" type="curve" smooth="yes"/>
      <point x="335" y="671"/>
      <point x="354" y="688"/>
      <point x="378" y="692" type="curve" smooth="yes"/>
      <point x="389" y="694"/>
      <point x="397" y="703"/>
      <point x="397" y="724" type="curve" smooth="yes"/>
      <point x="397" y="735"/>
      <point x="392" y="741"/>
      <point x="380" y="744" type="curve" smooth="yes"/>
      <point x="350" y="752"/>
      <point x="310" y="756"/>
      <point x="278" y="756" type="curve" smooth="yes"/>
      <point x="158" y="756"/>
      <point x="143" y="683"/>
      <point x="143" y="608" type="curve" smooth="yes"/>
      <point x="143" y="537"/>
      <point x="143" y="465"/>
      <point x="143" y="392" type="curve" smooth="yes"/>
      <point x="143" y="322"/>
      <point x="116" y="289"/>
      <point x="76" y="282" type="curve" smooth="yes"/>
      <point x="65" y="280"/>
      <point x="57" y="271"/>
      <point x="57" y="246" type="curve" smooth="yes"/>
      <point x="57" y="239"/>
      <point x="62" y="232"/>
      <point x="74" y="230" type="curve" smooth="yes"/>
      <point x="114" y="223"/>
      <point x="134" y="190"/>
      <point x="124" y="120" type="curve" smooth="yes"/>
      <point x="114" y="49"/>
      <point x="104" y="-23"/>
      <point x="93" y="-96" type="curve" smooth="yes"/>
      <point x="82" y="-171"/>
      <point x="87" y="-244"/>
    </contour>
  </outline>
</glyph>
<glyph name="bar" format="2">
  <advance width="370"/>
  <unicode hex="007C"/>
  <outline>
    <contour>
      <point x="250" y="-166" type="curve" smooth="yes"/>
      <point x="294" y="-166"/>
      <point x="299" y="-157"/>
      <point x="299" y="-132" type="curve" smooth="yes"/>
      <point x="299" y="-17"/>
      <point x="304" y="230"/>
      <point x="304" y="260" type="curve" smooth="yes"/>
      <point x="304" y="381"/>
      <point x="322" y="590"/>
      <point x="322" y="606" type="curve" smooth="yes"/>
      <point x="322" y="656"/>
      <point x="215" y="678"/>
      <point x="152" y="678" type="curve" smooth="yes"/>
      <point x="151" y="678" type="line" smooth="yes"/>
      <point x="107" y="678"/>
      <point x="102" y="669"/>
      <point x="102" y="644" type="curve" smooth="yes"/>
      <point x="102" y="535"/>
      <point x="94" y="345"/>
      <point x="93" y="298" type="curve" smooth="yes"/>
      <point x="93" y="177"/>
      <point x="79" y="-78"/>
      <point x="79" y="-94" type="curve" smooth="yes"/>
      <point x="79" y="-144"/>
      <point x="186" y="-166"/>
    </contour>
  </outline>
</glyph>
<glyph name="braceright" format="2">
  <advance width="410"/>
  <unicode hex="007D"/>
  <outline>
    <contour>
      <point x="132" y="-244" type="curve" smooth="yes"/>
      <point x="252" y="-244"/>
      <point x="267" y="-171"/>
      <point x="267" y="-96" type="curve" smooth="yes"/>
      <point x="267" y="-25"/>
      <point x="267" y="47"/>
      <point x="267" y="120" type="curve" smooth="yes"/>
      <point x="267" y="190"/>
      <point x="294" y="223"/>
      <point x="334" y="230" type="curve" smooth="yes"/>
      <point x="345" y="232"/>
      <point x="353" y="241"/>
      <point x="353" y="266" type="curve" smooth="yes"/>
      <point x="353" y="273"/>
      <point x="348" y="280"/>
      <point x="336" y="282" type="curve" smooth="yes"/>
      <point x="296" y="289"/>
      <point x="276" y="322"/>
      <point x="286" y="392" type="curve" smooth="yes"/>
      <point x="296" y="463"/>
      <point x="306" y="535"/>
      <point x="317" y="608" type="curve" smooth="yes"/>
      <point x="328" y="683"/>
      <point x="323" y="756"/>
      <point x="203" y="756" type="curve" smooth="yes"/>
      <point x="171" y="756"/>
      <point x="131" y="752"/>
      <point x="100" y="744" type="curve" smooth="yes"/>
      <point x="87" y="741"/>
      <point x="80" y="732"/>
      <point x="80" y="719" type="curve" smooth="yes"/>
      <point x="80" y="700"/>
      <point x="83" y="694"/>
      <point x="94" y="692" type="curve" smooth="yes"/>
      <point x="118" y="688"/>
      <point x="134" y="671"/>
      <point x="131" y="623" type="curve" smooth="yes"/>
      <point x="127" y="558"/>
      <point x="118" y="493"/>
      <point x="114" y="428" type="curve" smooth="yes"/>
      <point x="109" y="351"/>
      <point x="130" y="289"/>
      <point x="194" y="256" type="curve"/>
      <point x="125" y="223"/>
      <point x="95" y="161"/>
      <point x="89" y="84" type="curve" smooth="yes"/>
      <point x="84" y="19"/>
      <point x="84" y="-46"/>
      <point x="79" y="-111" type="curve" smooth="yes"/>
      <point x="75" y="-159"/>
      <point x="56" y="-176"/>
      <point x="32" y="-180" type="curve" smooth="yes"/>
      <point x="21" y="-182"/>
      <point x="13" y="-191"/>
      <point x="13" y="-212" type="curve" smooth="yes"/>
      <point x="13" y="-223"/>
      <point x="18" y="-229"/>
      <point x="30" y="-232" type="curve" smooth="yes"/>
      <point x="60" y="-240"/>
      <point x="100" y="-244"/>
    </contour>
  </outline>
</glyph>
<glyph name="exclamdown" format="2">
  <advance width="305"/>
  <unicode hex="00A1"/>
  <outline>
    <contour>
      <point x="211" y="-129" type="curve" smooth="yes"/>
      <point x="243" y="-129"/>
      <point x="258" y="-121"/>
      <point x="258" y="-102" type="curve" smooth="yes"/>
      <point x="258" y="-50"/>
      <point x="253" y="209"/>
      <point x="253" y="255" type="curve" smooth="yes"/>
      <point x="253" y="264"/>
      <point x="231" y="268"/>
      <point x="215" y="268" type="curve" smooth="yes"/>
      <point x="142" y="268"/>
      <point x="94" y="253"/>
      <point x="88" y="225" type="curve" smooth="yes"/>
      <point x="85" y="210"/>
      <point x="26" y="25"/>
      <point x="26" y="-38" type="curve" smooth="yes"/>
      <point x="26" y="-113"/>
      <point x="139" y="-129"/>
    </contour>
    <contour>
      <point x="167" y="333" type="curve" smooth="yes"/>
      <point x="218" y="333"/>
      <point x="283" y="376"/>
      <point x="283" y="434" type="curve" smooth="yes"/>
      <point x="283" y="501"/>
      <point x="237" y="524"/>
      <point x="190" y="524" type="curve" smooth="yes"/>
      <point x="133" y="524"/>
      <point x="76" y="500"/>
      <point x="76" y="429" type="curve" smooth="yes"/>
      <point x="76" y="387"/>
      <point x="112" y="333"/>
    </contour>
  </outline>
</glyph>
<glyph name="cent" format="2">
  <advance width="444"/>
  <unicode hex="00A2"/>
  <outline>
    <contour>
      <point x="289" y="-244" type="curve" smooth="yes"/>
      <point x="324" y="-244"/>
      <point x="327" y="-235"/>
      <point x="327" y="-210" type="curve" smooth="yes"/>
      <point x="327" y="-154"/>
      <point x="325" y="-80"/>
      <point x="327" y="-4" type="curve"/>
      <point x="359" y="5"/>
      <point x="391" y="20"/>
      <point x="414" y="41" type="curve" smooth="yes"/>
      <point x="423" y="49"/>
      <point x="426" y="55"/>
      <point x="426" y="67" type="curve" smooth="yes"/>
      <point x="426" y="85"/>
      <point x="422" y="105"/>
      <point x="413" y="105" type="curve" smooth="yes"/>
      <point x="409" y="105"/>
      <point x="405" y="103"/>
      <point x="394" y="99" type="curve" smooth="yes"/>
      <point x="381" y="94"/>
      <point x="346" y="87"/>
      <point x="326" y="87" type="curve" smooth="yes"/>
      <point x="272" y="87"/>
      <point x="237" y="109"/>
      <point x="237" y="208" type="curve" smooth="yes"/>
      <point x="237" y="366"/>
      <point x="269" y="430"/>
      <point x="301" y="430" type="curve" smooth="yes"/>
      <point x="337" y="430"/>
      <point x="362" y="416"/>
      <point x="383" y="405" type="curve" smooth="yes"/>
      <point x="394" y="399"/>
      <point x="404" y="393"/>
      <point x="414" y="393" type="curve" smooth="yes"/>
      <point x="433" y="393"/>
      <point x="439" y="445"/>
      <point x="439" y="464" type="curve" smooth="yes"/>
      <point x="439" y="480"/>
      <point x="435" y="493"/>
      <point x="418" y="500" type="curve" smooth="yes"/>
      <point x="399" y="508"/>
      <point x="374" y="516"/>
      <point x="350" y="518" type="curve"/>
      <point x="352" y="553"/>
      <point x="353" y="575"/>
      <point x="353" y="580" type="curve" smooth="yes"/>
      <point x="353" y="630"/>
      <point x="270" y="652"/>
      <point x="221" y="652" type="curve" smooth="yes"/>
      <point x="186" y="652"/>
      <point x="183" y="643"/>
      <point x="183" y="618" type="curve" smooth="yes"/>
      <point x="183" y="587"/>
      <point x="183" y="550"/>
      <point x="184" y="510" type="curve"/>
      <point x="92" y="478"/>
      <point x="35" y="389"/>
      <point x="35" y="219" type="curve" smooth="yes"/>
      <point x="35" y="71"/>
      <point x="90" y="17"/>
      <point x="164" y="-3" type="curve"/>
      <point x="161" y="-95"/>
      <point x="157" y="-164"/>
      <point x="157" y="-172" type="curve" smooth="yes"/>
      <point x="157" y="-222"/>
      <point x="240" y="-244"/>
    </contour>
  </outline>
</glyph>
<glyph name="sterling" format="2">
  <advance width="439"/>
  <unicode hex="00A3"/>
  <outline>
    <contour>
      <point x="89" y="0" type="curve" smooth="yes"/>
      <point x="405" y="0" type="line" smooth="yes"/>
      <point x="427" y="0"/>
      <point x="432" y="66"/>
      <point x="432" y="83" type="curve" smooth="yes"/>
      <point x="432" y="107"/>
      <point x="432" y="113"/>
      <point x="426" y="113" type="curve" smooth="yes"/>
      <point x="419" y="113"/>
      <point x="354" y="101"/>
      <point x="295" y="101" type="curve"/>
      <point x="245" y="101" type="line"/>
      <point x="279" y="132"/>
      <point x="311" y="188"/>
      <point x="311" y="262" type="curve" smooth="yes"/>
      <point x="311" y="285" type="line"/>
      <point x="390" y="285" type="line" smooth="yes"/>
      <point x="405" y="285"/>
      <point x="416" y="307"/>
      <point x="416" y="343" type="curve" smooth="yes"/>
      <point x="416" y="366"/>
      <point x="413" y="369"/>
      <point x="403" y="369" type="curve" smooth="yes"/>
      <point x="310" y="369" type="line"/>
      <point x="310" y="432" type="line" smooth="yes"/>
      <point x="310" y="540"/>
      <point x="334" y="557"/>
      <point x="367" y="557" type="curve" smooth="yes"/>
      <point x="387" y="557"/>
      <point x="409" y="554"/>
      <point x="416" y="554" type="curve" smooth="yes"/>
      <point x="426" y="554"/>
      <point x="434" y="570"/>
      <point x="434" y="586" type="curve" smooth="yes"/>
      <point x="434" y="609"/>
      <point x="430" y="626"/>
      <point x="415" y="634" type="curve" smooth="yes"/>
      <point x="400" y="642"/>
      <point x="359" y="652"/>
      <point x="312" y="652" type="curve" smooth="yes"/>
      <point x="263" y="652"/>
      <point x="194" y="647"/>
      <point x="141" y="600" type="curve" smooth="yes"/>
      <point x="89" y="554"/>
      <point x="82" y="489"/>
      <point x="82" y="430" type="curve" smooth="yes"/>
      <point x="82" y="369" type="line"/>
      <point x="41" y="369" type="line" smooth="yes"/>
      <point x="26" y="369"/>
      <point x="15" y="347"/>
      <point x="15" y="311" type="curve" smooth="yes"/>
      <point x="15" y="288"/>
      <point x="18" y="285"/>
      <point x="28" y="285" type="curve" smooth="yes"/>
      <point x="87" y="285" type="line"/>
      <point x="87" y="198" type="line" smooth="yes"/>
      <point x="87" y="134"/>
      <point x="80" y="116"/>
      <point x="59" y="95" type="curve" smooth="yes"/>
      <point x="50" y="86"/>
      <point x="48" y="83"/>
      <point x="48" y="70" type="curve" smooth="yes"/>
      <point x="48" y="41"/>
      <point x="60" y="0"/>
    </contour>
  </outline>
</glyph>
<glyph name="yen" format="2">
  <advance width="540"/>
  <unicode hex="00A5"/>
  <outline>
    <contour>
      <point x="319" y="-13" type="curve" smooth="yes"/>
      <point x="363" y="-13"/>
      <point x="368" y="-4"/>
      <point x="368" y="21" type="curve" smooth="yes"/>
      <point x="368" y="60"/>
      <point x="369" y="101"/>
      <point x="371" y="148" type="curve"/>
      <point x="445" y="148" type="line" smooth="yes"/>
      <point x="460" y="148"/>
      <point x="471" y="170"/>
      <point x="471" y="206" type="curve" smooth="yes"/>
      <point x="471" y="229"/>
      <point x="468" y="232"/>
      <point x="458" y="232" type="curve" smooth="yes"/>
      <point x="374" y="232" type="line"/>
      <point x="402" y="277"/>
      <point x="512" y="453"/>
      <point x="531" y="483" type="curve" smooth="yes"/>
      <point x="546" y="506"/>
      <point x="553" y="535"/>
      <point x="553" y="559" type="curve" smooth="yes"/>
      <point x="553" y="610"/>
      <point x="508" y="652"/>
      <point x="493" y="652" type="curve" smooth="yes"/>
      <point x="483" y="652"/>
      <point x="478" y="642"/>
      <point x="463" y="614" type="curve" smooth="yes"/>
      <point x="439" y="568"/>
      <point x="377" y="447"/>
      <point x="334" y="381" type="curve"/>
      <point x="313" y="448"/>
      <point x="297" y="510"/>
      <point x="284" y="576" type="curve" smooth="yes"/>
      <point x="273" y="633"/>
      <point x="154" y="652"/>
      <point x="77" y="652" type="curve" smooth="yes"/>
      <point x="30" y="652"/>
      <point x="19" y="641"/>
      <point x="19" y="626" type="curve" smooth="yes"/>
      <point x="19" y="622"/>
      <point x="20" y="618"/>
      <point x="22" y="613" type="curve" smooth="yes"/>
      <point x="63" y="530"/>
      <point x="136" y="323"/>
      <point x="166" y="248" type="curve"/>
      <point x="165" y="232" type="line"/>
      <point x="84" y="232" type="line" smooth="yes"/>
      <point x="69" y="232"/>
      <point x="58" y="210"/>
      <point x="58" y="174" type="curve" smooth="yes"/>
      <point x="58" y="151"/>
      <point x="61" y="148"/>
      <point x="71" y="148" type="curve" smooth="yes"/>
      <point x="153" y="148" type="line"/>
      <point x="150" y="98"/>
      <point x="148" y="64"/>
      <point x="148" y="59" type="curve" smooth="yes"/>
      <point x="148" y="9"/>
      <point x="255" y="-13"/>
    </contour>
  </outline>
</glyph>
<glyph name="section" format="2">
  <advance width="560"/>
  <unicode hex="00A7"/>
  <outline>
    <contour>
      <point x="268" y="-13" type="curve" smooth="yes"/>
      <point x="423" y="-13"/>
      <point x="491" y="55"/>
      <point x="491" y="131" type="curve" smooth="yes"/>
      <point x="491" y="187"/>
      <point x="461" y="226"/>
      <point x="431" y="238" type="curve" smooth="yes"/>
      <point x="500" y="284"/>
      <point x="517" y="326"/>
      <point x="517" y="383" type="curve" smooth="yes"/>
      <point x="517" y="418"/>
      <point x="504" y="454"/>
      <point x="464" y="475" type="curve" smooth="yes"/>
      <point x="422" y="497"/>
      <point x="338" y="501"/>
      <point x="309" y="512" type="curve" smooth="yes"/>
      <point x="282" y="522"/>
      <point x="279" y="533"/>
      <point x="279" y="548" type="curve" smooth="yes"/>
      <point x="279" y="562"/>
      <point x="296" y="570"/>
      <point x="327" y="570" type="curve" smooth="yes"/>
      <point x="399" y="570"/>
      <point x="468" y="541"/>
      <point x="475" y="541" type="curve" smooth="yes"/>
      <point x="486" y="541"/>
      <point x="495" y="565"/>
      <point x="495" y="583" type="curve" smooth="yes"/>
      <point x="495" y="601"/>
      <point x="494" y="615"/>
      <point x="471" y="626" type="curve" smooth="yes"/>
      <point x="427" y="647"/>
      <point x="374" y="652"/>
      <point x="328" y="652" type="curve" smooth="yes"/>
      <point x="173" y="652"/>
      <point x="105" y="584"/>
      <point x="105" y="508" type="curve" smooth="yes"/>
      <point x="105" y="452"/>
      <point x="134" y="415"/>
      <point x="165" y="401" type="curve" smooth="yes"/>
      <point x="95" y="357"/>
      <point x="79" y="313"/>
      <point x="79" y="255" type="curve" smooth="yes"/>
      <point x="79" y="221"/>
      <point x="92" y="185"/>
      <point x="132" y="164" type="curve" smooth="yes"/>
      <point x="174" y="142"/>
      <point x="258" y="138"/>
      <point x="287" y="127" type="curve" smooth="yes"/>
      <point x="314" y="117"/>
      <point x="317" y="106"/>
      <point x="317" y="91" type="curve" smooth="yes"/>
      <point x="317" y="77"/>
      <point x="300" y="69"/>
      <point x="269" y="69" type="curve" smooth="yes"/>
      <point x="202" y="69"/>
      <point x="129" y="97"/>
      <point x="121" y="97" type="curve" smooth="yes"/>
      <point x="110" y="97"/>
      <point x="101" y="73"/>
      <point x="101" y="55" type="curve" smooth="yes"/>
      <point x="101" y="37"/>
      <point x="102" y="23"/>
      <point x="125" y="12" type="curve" smooth="yes"/>
      <point x="148" y="1"/>
      <point x="191" y="-13"/>
    </contour>
    <contour>
      <point x="360" y="266" type="curve" smooth="yes"/>
      <point x="346" y="268"/>
      <point x="254" y="268"/>
      <point x="227" y="286" type="curve" smooth="yes"/>
      <point x="212" y="296"/>
      <point x="208" y="308"/>
      <point x="208" y="321" type="curve" smooth="yes"/>
      <point x="208" y="341"/>
      <point x="220" y="361"/>
      <point x="236" y="370" type="curve" smooth="yes"/>
      <point x="248" y="368"/>
      <point x="342" y="368"/>
      <point x="369" y="350" type="curve" smooth="yes"/>
      <point x="384" y="340"/>
      <point x="388" y="328"/>
      <point x="388" y="316" type="curve" smooth="yes"/>
      <point x="388" y="295"/>
      <point x="374" y="275"/>
    </contour>
  </outline>
</glyph>
<glyph name="paragraph" format="2">
  <advance width="599"/>
  <unicode hex="00B6"/>
  <outline>
    <contour>
      <point x="482" y="-244" type="curve" smooth="yes"/>
      <point x="517" y="-244"/>
      <point x="520" y="-235"/>
      <point x="520" y="-210" type="curve" smooth="yes"/>
      <point x="520" y="-42"/>
      <point x="558" y="533"/>
      <point x="558" y="555" type="curve"/>
      <point x="602" y="555" type="line" smooth="yes"/>
      <point x="617" y="555"/>
      <point x="628" y="577"/>
      <point x="628" y="613" type="curve" smooth="yes"/>
      <point x="628" y="636"/>
      <point x="625" y="639"/>
      <point x="615" y="639" type="curve" smooth="yes"/>
      <point x="212" y="639" type="line" smooth="yes"/>
      <point x="135" y="639"/>
      <point x="44" y="582"/>
      <point x="44" y="431" type="curve" smooth="yes"/>
      <point x="44" y="285"/>
      <point x="124" y="236"/>
      <point x="224" y="236" type="curve" smooth="yes"/>
      <point x="255" y="236"/>
      <point x="278" y="246"/>
      <point x="295" y="259" type="curve"/>
      <point x="297" y="351"/>
      <point x="302" y="498"/>
      <point x="304" y="555" type="curve"/>
      <point x="386" y="555" type="line"/>
      <point x="381" y="340"/>
      <point x="350" y="-155"/>
      <point x="350" y="-172" type="curve" smooth="yes"/>
      <point x="350" y="-222"/>
      <point x="433" y="-244"/>
    </contour>
  </outline>
</glyph>
<glyph name="periodcentered" format="2">
  <advance width="275"/>
  <unicode hex="00B7"/>
  <outline>
    <contour>
      <point x="136" y="218" type="curve" smooth="yes"/>
      <point x="193" y="218"/>
      <point x="250" y="243"/>
      <point x="250" y="318" type="curve" smooth="yes"/>
      <point x="250" y="363"/>
      <point x="214" y="420"/>
      <point x="159" y="420" type="curve" smooth="yes"/>
      <point x="108" y="420"/>
      <point x="43" y="375"/>
      <point x="43" y="313" type="curve" smooth="yes"/>
      <point x="43" y="242"/>
      <point x="89" y="218"/>
    </contour>
  </outline>
</glyph>
<glyph name="onequarter" format="2">
  <advance width="821"/>
  <unicode hex="00BC"/>
  <outline>
    <contour>
      <point x="664" y="-13" type="curve" smooth="yes"/>
      <point x="702" y="-13"/>
      <point x="705" y="-5"/>
      <point x="705" y="14" type="curve" smooth="yes"/>
      <point x="705" y="49"/>
      <point x="707" y="91"/>
      <point x="707" y="100" type="curve" smooth="yes"/>
      <point x="740" y="100" type="line" smooth="yes"/>
      <point x="750" y="100"/>
      <point x="758" y="117"/>
      <point x="758" y="148" type="curve" smooth="yes"/>
      <point x="758" y="168"/>
      <point x="756" y="172"/>
      <point x="751" y="172" type="curve" smooth="yes"/>
      <point x="746" y="172"/>
      <point x="719" y="172"/>
      <point x="710" y="172" type="curve" smooth="yes"/>
      <point x="710" y="182"/>
      <point x="719" y="372"/>
      <point x="719" y="384" type="curve" smooth="yes"/>
      <point x="719" y="422"/>
      <point x="644" y="439"/>
      <point x="596" y="439" type="curve" smooth="yes"/>
      <point x="581" y="439"/>
      <point x="576" y="437"/>
      <point x="567" y="426" type="curve" smooth="yes"/>
      <point x="553" y="410"/>
      <point x="390" y="184"/>
      <point x="381" y="169" type="curve" smooth="yes"/>
      <point x="378" y="164"/>
      <point x="378" y="156"/>
      <point x="378" y="149" type="curve" smooth="yes"/>
      <point x="378" y="121"/>
      <point x="387" y="100"/>
      <point x="400" y="100" type="curve" smooth="yes"/>
      <point x="529" y="100" type="line" smooth="yes"/>
      <point x="529" y="94"/>
      <point x="527" y="51"/>
      <point x="527" y="41" type="curve" smooth="yes"/>
      <point x="527" y="3"/>
      <point x="612" y="-13"/>
    </contour>
    <contour>
      <point x="295" y="200" type="curve"/>
      <point x="333" y="200"/>
      <point x="336" y="208"/>
      <point x="336" y="227" type="curve"/>
      <point x="336" y="329"/>
      <point x="353" y="585"/>
      <point x="353" y="597" type="curve"/>
      <point x="353" y="635"/>
      <point x="260" y="652"/>
      <point x="245" y="652" type="curve"/>
      <point x="232" y="652"/>
      <point x="93" y="554"/>
      <point x="85" y="547" type="curve"/>
      <point x="76" y="539"/>
      <point x="75" y="516"/>
      <point x="75" y="498" type="curve"/>
      <point x="75" y="460"/>
      <point x="83" y="455"/>
      <point x="90" y="455" type="curve"/>
      <point x="100" y="455"/>
      <point x="143" y="493"/>
      <point x="166" y="507" type="curve"/>
      <point x="166" y="476"/>
      <point x="151" y="266"/>
      <point x="151" y="254" type="curve"/>
      <point x="151" y="216"/>
      <point x="242" y="200"/>
    </contour>
    <contour>
      <point x="462" y="167" type="line" smooth="yes"/>
      <point x="468" y="178"/>
      <point x="514" y="247"/>
      <point x="537" y="274" type="curve" smooth="yes"/>
      <point x="537" y="249"/>
      <point x="532" y="179"/>
      <point x="532" y="167" type="curve" smooth="yes"/>
    </contour>
  </outline>
</glyph>
<glyph name="onehalf" format="2">
  <advance width="821"/>
  <unicode hex="00BD"/>
  <outline>
    <contour>
      <point x="429" y="0" type="curve" smooth="yes"/>
      <point x="719" y="0" type="line" smooth="yes"/>
      <point x="729" y="0"/>
      <point x="746" y="13"/>
      <point x="746" y="52" type="curve" smooth="yes"/>
      <point x="746" y="86"/>
      <point x="745" y="99"/>
      <point x="738" y="99" type="curve" smooth="yes"/>
      <point x="732" y="99"/>
      <point x="671" y="90"/>
      <point x="637" y="90" type="curve" smooth="yes"/>
      <point x="623" y="90"/>
      <point x="606" y="90"/>
      <point x="588" y="90" type="curve" smooth="yes"/>
      <point x="633" y="129"/>
      <point x="671" y="161"/>
      <point x="696" y="196" type="curve" smooth="yes"/>
      <point x="722" y="232"/>
      <point x="739" y="271"/>
      <point x="739" y="319" type="curve" smooth="yes"/>
      <point x="739" y="418"/>
      <point x="649" y="439"/>
      <point x="566" y="439" type="curve" smooth="yes"/>
      <point x="502" y="439"/>
      <point x="462" y="432"/>
      <point x="431" y="412" type="curve" smooth="yes"/>
      <point x="418" y="403"/>
      <point x="414" y="391"/>
      <point x="414" y="379" type="curve" smooth="yes"/>
      <point x="414" y="328"/>
      <point x="425" y="319"/>
      <point x="438" y="319" type="curve" smooth="yes"/>
      <point x="447" y="319"/>
      <point x="478" y="347"/>
      <point x="524" y="347" type="curve" smooth="yes"/>
      <point x="557" y="347"/>
      <point x="570" y="331"/>
      <point x="570" y="298" type="curve" smooth="yes"/>
      <point x="570" y="273"/>
      <point x="560" y="246"/>
      <point x="549" y="228" type="curve" smooth="yes"/>
      <point x="519" y="180"/>
      <point x="477" y="141"/>
      <point x="422" y="94" type="curve" smooth="yes"/>
      <point x="407" y="82"/>
      <point x="405" y="71"/>
      <point x="405" y="60" type="curve" smooth="yes"/>
      <point x="405" y="47"/>
      <point x="413" y="0"/>
    </contour>
    <contour>
      <point x="295" y="200" type="curve" smooth="yes"/>
      <point x="333" y="200"/>
      <point x="336" y="208"/>
      <point x="336" y="227" type="curve" smooth="yes"/>
      <point x="336" y="329"/>
      <point x="353" y="585"/>
      <point x="353" y="597" type="curve" smooth="yes"/>
      <point x="353" y="635"/>
      <point x="260" y="652"/>
      <point x="245" y="652" type="curve" smooth="yes"/>
      <point x="232" y="652"/>
      <point x="93" y="554"/>
      <point x="85" y="547" type="curve" smooth="yes"/>
      <point x="76" y="539"/>
      <point x="75" y="516"/>
      <point x="75" y="498" type="curve" smooth="yes"/>
      <point x="75" y="460"/>
      <point x="83" y="455"/>
      <point x="90" y="455" type="curve" smooth="yes"/>
      <point x="100" y="455"/>
      <point x="143" y="493"/>
      <point x="166" y="507" type="curve" smooth="yes"/>
      <point x="166" y="476"/>
      <point x="151" y="266"/>
      <point x="151" y="254" type="curve" smooth="yes"/>
      <point x="151" y="216"/>
      <point x="242" y="200"/>
    </contour>
  </outline>
</glyph>
<glyph name="threequarters" format="2">
  <advance width="849"/>
  <unicode hex="00BE"/>
  <outline>
    <contour>
      <point x="710" y="-15" type="curve"/>
      <point x="748" y="-15"/>
      <point x="751" y="-7"/>
      <point x="751" y="12" type="curve"/>
      <point x="751" y="47"/>
      <point x="753" y="89"/>
      <point x="753" y="98" type="curve"/>
      <point x="786" y="98" type="line"/>
      <point x="796" y="98"/>
      <point x="804" y="115"/>
      <point x="804" y="146" type="curve"/>
      <point x="804" y="166"/>
      <point x="802" y="170"/>
      <point x="797" y="170" type="curve"/>
      <point x="792" y="170"/>
      <point x="765" y="170"/>
      <point x="756" y="170" type="curve"/>
      <point x="756" y="180"/>
      <point x="765" y="370"/>
      <point x="765" y="382" type="curve"/>
      <point x="765" y="420"/>
      <point x="690" y="437"/>
      <point x="642" y="437" type="curve"/>
      <point x="627" y="437"/>
      <point x="622" y="435"/>
      <point x="613" y="424" type="curve"/>
      <point x="599" y="408"/>
      <point x="436" y="182"/>
      <point x="427" y="167" type="curve"/>
      <point x="424" y="162"/>
      <point x="424" y="154"/>
      <point x="424" y="147" type="curve"/>
      <point x="424" y="119"/>
      <point x="433" y="98"/>
      <point x="446" y="98" type="curve"/>
      <point x="575" y="98" type="line"/>
      <point x="575" y="92"/>
      <point x="573" y="49"/>
      <point x="573" y="39" type="curve"/>
      <point x="573" y="1"/>
      <point x="658" y="-15"/>
    </contour>
    <contour>
      <point x="208" y="200" type="curve"/>
      <point x="360" y="200"/>
      <point x="429" y="278"/>
      <point x="429" y="344" type="curve"/>
      <point x="429" y="406"/>
      <point x="388" y="445"/>
      <point x="312" y="454" type="curve"/>
      <point x="343" y="457"/>
      <point x="424" y="491"/>
      <point x="424" y="556" type="curve"/>
      <point x="424" y="615"/>
      <point x="373" y="652"/>
      <point x="254" y="652" type="curve"/>
      <point x="194" y="652"/>
      <point x="156" y="645"/>
      <point x="119" y="632" type="curve"/>
      <point x="102" y="626"/>
      <point x="94" y="616"/>
      <point x="94" y="593" type="curve"/>
      <point x="94" y="545"/>
      <point x="101" y="540"/>
      <point x="110" y="540" type="curve"/>
      <point x="120" y="540"/>
      <point x="132" y="544"/>
      <point x="149" y="550" type="curve"/>
      <point x="164" y="555"/>
      <point x="182" y="560"/>
      <point x="204" y="560" type="curve"/>
      <point x="243" y="560"/>
      <point x="255" y="548"/>
      <point x="255" y="524" type="curve"/>
      <point x="255" y="496"/>
      <point x="239" y="464"/>
      <point x="174" y="455" type="curve"/>
      <point x="164" y="454"/>
      <point x="159" y="446"/>
      <point x="159" y="431" type="curve"/>
      <point x="159" y="419"/>
      <point x="161" y="405"/>
      <point x="172" y="405" type="curve"/>
      <point x="216" y="405"/>
      <point x="251" y="389"/>
      <point x="251" y="348" type="curve"/>
      <point x="251" y="319"/>
      <point x="235" y="290"/>
      <point x="191" y="290" type="curve"/>
      <point x="143" y="290"/>
      <point x="99" y="307"/>
      <point x="96" y="307" type="curve"/>
      <point x="84" y="307"/>
      <point x="79" y="302"/>
      <point x="79" y="259" type="curve"/>
      <point x="79" y="237"/>
      <point x="90" y="228"/>
      <point x="106" y="220" type="curve"/>
      <point x="129" y="209"/>
      <point x="160" y="200"/>
    </contour>
    <contour>
      <point x="508" y="165" type="line"/>
      <point x="514" y="176"/>
      <point x="560" y="245"/>
      <point x="583" y="272" type="curve"/>
      <point x="583" y="247"/>
      <point x="578" y="177"/>
      <point x="578" y="165" type="curve"/>
    </contour>
  </outline>
</glyph>
<glyph name="AE" format="2">
  <advance width="814"/>
  <unicode hex="00C6"/>
  <anchor x="424" y="0" name="bottom"/>
  <anchor x="436" y="652" name="top"/>
  <outline>
    <contour>
      <point x="108" y="-13" type="curve"/>
      <point x="125" y="-13"/>
      <point x="126" y="-8"/>
      <point x="128" y="-3" type="curve"/>
      <point x="150" y="58"/>
      <point x="187" y="139"/>
      <point x="197" y="154" type="curve"/>
      <point x="211" y="155"/>
      <point x="250" y="157"/>
      <point x="296" y="157" type="curve"/>
      <point x="345" y="157" type="line"/>
      <point x="341" y="76"/>
      <point x="337" y="15"/>
      <point x="337" y="0" type="curve"/>
      <point x="767" y="0" type="line"/>
      <point x="796" y="0"/>
      <point x="802" y="67"/>
      <point x="802" y="86" type="curve"/>
      <point x="802" y="112"/>
      <point x="802" y="119"/>
      <point x="795" y="119" type="curve"/>
      <point x="785" y="119"/>
      <point x="713" y="106"/>
      <point x="637" y="106" type="curve"/>
      <point x="560" y="106"/>
      <point x="549" y="115"/>
      <point x="549" y="146" type="curve"/>
      <point x="549" y="190"/>
      <point x="554" y="264"/>
      <point x="554" y="277" type="curve"/>
      <point x="576" y="277" type="line"/>
      <point x="655" y="277"/>
      <point x="729" y="272"/>
      <point x="738" y="272" type="curve"/>
      <point x="748" y="272"/>
      <point x="754" y="313"/>
      <point x="754" y="342" type="curve"/>
      <point x="754" y="367"/>
      <point x="749" y="374"/>
      <point x="733" y="374" type="curve"/>
      <point x="557" y="374" type="line"/>
      <point x="557" y="418"/>
      <point x="564" y="524"/>
      <point x="569" y="541" type="curve"/>
      <point x="595" y="541" type="line"/>
      <point x="657" y="541"/>
      <point x="740" y="537"/>
      <point x="749" y="537" type="curve"/>
      <point x="759" y="537"/>
      <point x="765" y="577"/>
      <point x="765" y="606" type="curve"/>
      <point x="765" y="631"/>
      <point x="760" y="639"/>
      <point x="744" y="639" type="curve"/>
      <point x="369" y="639" type="line"/>
      <point x="324" y="639"/>
      <point x="321" y="632"/>
      <point x="311" y="613" type="curve"/>
      <point x="292" y="576"/>
      <point x="135" y="284"/>
      <point x="31" y="87" type="curve"/>
      <point x="22" y="70"/>
      <point x="22" y="66"/>
      <point x="22" y="58" type="curve"/>
      <point x="22" y="16"/>
      <point x="67" y="-13"/>
    </contour>
    <contour>
      <point x="232" y="247" type="line"/>
      <point x="262" y="302"/>
      <point x="339" y="443"/>
      <point x="361" y="476" type="curve"/>
      <point x="360" y="439"/>
      <point x="352" y="271"/>
      <point x="351" y="247" type="curve"/>
    </contour>
  </outline>
</glyph>
<glyph name="multiply" format="2">
  <advance width="550"/>
  <unicode hex="00D7"/>
  <outline>
    <contour>
      <point x="473" y="401" type="curve" smooth="yes"/>
      <point x="473" y="441"/>
      <point x="427" y="493"/>
      <point x="414" y="493" type="curve" smooth="yes"/>
      <point x="407" y="493"/>
      <point x="403" y="490"/>
      <point x="390" y="478" type="curve" smooth="yes"/>
      <point x="371" y="461"/>
      <point x="321" y="410"/>
      <point x="296" y="389" type="curve" smooth="yes"/>
      <point x="273" y="414"/>
      <point x="237" y="456"/>
      <point x="218" y="480" type="curve" smooth="yes"/>
      <point x="207" y="494"/>
      <point x="203" y="498"/>
      <point x="197" y="498" type="curve" smooth="yes"/>
      <point x="180" y="498"/>
      <point x="119" y="437"/>
      <point x="119" y="412" type="curve" smooth="yes"/>
      <point x="119" y="407"/>
      <point x="119" y="402"/>
      <point x="125" y="392" type="curve" smooth="yes"/>
      <point x="128" y="387"/>
      <point x="176" y="330"/>
      <point x="198" y="307" type="curve" smooth="yes"/>
      <point x="171" y="279"/>
      <point x="131" y="245"/>
      <point x="122" y="236" type="curve" smooth="yes"/>
      <point x="114" y="228"/>
      <point x="108" y="219"/>
      <point x="108" y="209" type="curve" smooth="yes"/>
      <point x="108" y="170"/>
      <point x="154" y="118"/>
      <point x="167" y="118" type="curve" smooth="yes"/>
      <point x="174" y="118"/>
      <point x="178" y="121"/>
      <point x="191" y="133" type="curve" smooth="yes"/>
      <point x="210" y="150"/>
      <point x="260" y="201"/>
      <point x="285" y="222" type="curve" smooth="yes"/>
      <point x="308" y="197"/>
      <point x="338" y="161"/>
      <point x="357" y="137" type="curve" smooth="yes"/>
      <point x="368" y="123"/>
      <point x="372" y="119"/>
      <point x="378" y="119" type="curve" smooth="yes"/>
      <point x="395" y="119"/>
      <point x="456" y="180"/>
      <point x="456" y="205" type="curve" smooth="yes"/>
      <point x="456" y="210"/>
      <point x="456" y="215"/>
      <point x="450" y="225" type="curve" smooth="yes"/>
      <point x="447" y="230"/>
      <point x="405" y="281"/>
      <point x="383" y="304" type="curve" smooth="yes"/>
      <point x="410" y="332"/>
      <point x="450" y="366"/>
      <point x="459" y="375" type="curve" smooth="yes"/>
      <point x="467" y="383"/>
      <point x="473" y="392"/>
    </contour>
  </outline>
</glyph>
<glyph name="ae" format="2">
  <advance width="827"/>
  <unicode hex="00E6"/>
  <anchor x="387" y="0" name="bottom"/>
  <anchor x="501" y="524" name="top"/>
  <outline>
    <contour>
      <point x="175" y="-13" type="curve" smooth="yes"/>
      <point x="228" y="-13"/>
      <point x="370" y="160"/>
      <point x="386" y="224" type="curve"/>
      <point x="386" y="206"/>
      <point x="386" y="190"/>
      <point x="388" y="174" type="curve" smooth="yes"/>
      <point x="403" y="19"/>
      <point x="490" y="-13"/>
      <point x="598" y="-13" type="curve" smooth="yes"/>
      <point x="659" y="-13"/>
      <point x="730" y="16"/>
      <point x="774" y="60" type="curve" smooth="yes"/>
      <point x="786" y="72"/>
      <point x="789" y="82"/>
      <point x="789" y="88" type="curve" smooth="yes"/>
      <point x="789" y="111"/>
      <point x="785" y="129"/>
      <point x="776" y="129" type="curve" smooth="yes"/>
      <point x="772" y="129"/>
      <point x="765" y="125"/>
      <point x="755" y="119" type="curve" smooth="yes"/>
      <point x="730" y="104"/>
      <point x="692" y="87"/>
      <point x="664" y="87" type="curve" smooth="yes"/>
      <point x="613" y="87"/>
      <point x="568" y="110"/>
      <point x="568" y="207" type="curve" smooth="yes"/>
      <point x="568" y="217"/>
      <point x="568" y="228"/>
      <point x="568" y="239" type="curve"/>
      <point x="578" y="239"/>
      <point x="588" y="239"/>
      <point x="598" y="239" type="curve" smooth="yes"/>
      <point x="701" y="239"/>
      <point x="822" y="285"/>
      <point x="822" y="392" type="curve" smooth="yes"/>
      <point x="822" y="487"/>
      <point x="757" y="524"/>
      <point x="607" y="524" type="curve" smooth="yes"/>
      <point x="574" y="524"/>
      <point x="541" y="516"/>
      <point x="513" y="507" type="curve"/>
      <point x="449" y="518"/>
      <point x="363" y="524"/>
      <point x="302" y="524" type="curve" smooth="yes"/>
      <point x="201" y="524"/>
      <point x="146" y="482"/>
      <point x="98" y="417" type="curve" smooth="yes"/>
      <point x="47" y="348"/>
      <point x="44" y="142"/>
      <point x="44" y="112" type="curve" smooth="yes"/>
      <point x="44" y="97"/>
      <point x="45" y="84"/>
      <point x="47" y="69" type="curve" smooth="yes"/>
      <point x="54" y="18"/>
      <point x="157" y="-13"/>
    </contour>
    <contour>
      <point x="275" y="168" type="curve" smooth="yes"/>
      <point x="267" y="168"/>
      <point x="264" y="173"/>
      <point x="264" y="226" type="curve" smooth="yes"/>
      <point x="264" y="369"/>
      <point x="286" y="455"/>
      <point x="341" y="455" type="curve" smooth="yes"/>
      <point x="358" y="455"/>
      <point x="378" y="453"/>
      <point x="395" y="447" type="curve"/>
      <point x="395" y="298"/>
      <point x="292" y="168"/>
    </contour>
    <contour>
      <point x="595" y="291" type="curve" smooth="yes"/>
      <point x="580" y="289"/>
      <point x="572" y="289"/>
      <point x="569" y="289" type="curve"/>
      <point x="574" y="425"/>
      <point x="602" y="454"/>
      <point x="632" y="454" type="curve" smooth="yes"/>
      <point x="651" y="454"/>
      <point x="666" y="434"/>
      <point x="666" y="401" type="curve" smooth="yes"/>
      <point x="666" y="315"/>
      <point x="631" y="296"/>
    </contour>
  </outline>
</glyph>
<glyph name="idieresis" format="2">
  <advance width="312"/>
  <unicode hex="00EF"/>
  <anchor x="156" y="0" name="bottom"/>
  <anchor x="281" y="10" name="ogonek"/>
  <anchor x="184" y="696" name="top"/>
  <outline>
    <contour>
      <point x="185" y="-14" type="curve" smooth="yes"/>
      <point x="229" y="-14"/>
      <point x="326" y="103"/>
      <point x="348" y="136" type="curve" smooth="yes"/>
      <point x="355" y="146"/>
      <point x="359" y="156"/>
      <point x="359" y="166" type="curve" smooth="yes"/>
      <point x="359" y="186"/>
      <point x="342" y="210"/>
      <point x="331" y="210" type="curve" smooth="yes"/>
      <point x="327" y="210"/>
      <point x="325" y="208"/>
      <point x="319" y="200" type="curve" smooth="yes"/>
      <point x="312" y="191"/>
      <point x="293" y="167"/>
      <point x="285" y="167" type="curve" smooth="yes"/>
      <point x="277" y="167"/>
      <point x="274" y="172"/>
      <point x="274" y="225" type="curve" smooth="yes"/>
      <point x="274" y="241"/>
      <point x="292" y="420"/>
      <point x="292" y="432" type="curve" smooth="yes"/>
      <point x="292" y="493"/>
      <point x="189" y="523"/>
      <point x="108" y="523" type="curve" smooth="yes"/>
      <point x="82" y="523"/>
      <point x="75" y="515"/>
      <point x="75" y="496" type="curve" smooth="yes"/>
      <point x="75" y="485"/>
      <point x="54" y="129"/>
      <point x="54" y="111" type="curve" smooth="yes"/>
      <point x="54" y="86"/>
      <point x="56" y="75"/>
      <point x="57" y="68" type="curve" smooth="yes"/>
      <point x="64" y="17"/>
      <point x="167" y="-14"/>
    </contour>
    <contour>
      <point x="59" y="594" type="curve" smooth="yes"/>
      <point x="100" y="594"/>
      <point x="155" y="629"/>
      <point x="155" y="676" type="curve" smooth="yes"/>
      <point x="155" y="731"/>
      <point x="116" y="750"/>
      <point x="78" y="750" type="curve" smooth="yes"/>
      <point x="30" y="750"/>
      <point x="-16" y="730"/>
      <point x="-16" y="672" type="curve" smooth="yes"/>
      <point x="-16" y="639"/>
      <point x="14" y="594"/>
    </contour>
    <contour>
      <point x="289" y="593" type="curve" smooth="yes"/>
      <point x="330" y="593"/>
      <point x="378" y="628"/>
      <point x="378" y="675" type="curve" smooth="yes"/>
      <point x="378" y="730"/>
      <point x="339" y="749"/>
      <point x="301" y="749" type="curve" smooth="yes"/>
      <point x="253" y="749"/>
      <point x="207" y="729"/>
      <point x="207" y="671" type="curve" smooth="yes"/>
      <point x="207" y="638"/>
      <point x="243" y="593"/>
    </contour>
  </outline>
</glyph>
<glyph name="oslash" format="2">
  <advance width="548"/>
  <unicode hex="00F8"/>
  <anchor x="290" y="524" name="top"/>
  <outline>
    <contour>
      <point x="53" y="-92" type="curve" smooth="yes"/>
      <point x="56" y="-92"/>
      <point x="61" y="-86"/>
      <point x="70" y="-73" type="curve" smooth="yes"/>
      <point x="126" y="9" type="line"/>
      <point x="170" y="-10"/>
      <point x="226" y="-13"/>
      <point x="283" y="-13" type="curve" smooth="yes"/>
      <point x="430" y="-13"/>
      <point x="524" y="72"/>
      <point x="524" y="292" type="curve" smooth="yes"/>
      <point x="524" y="384"/>
      <point x="505" y="439"/>
      <point x="472" y="471" type="curve"/>
      <point x="521" y="540" type="line" smooth="yes"/>
      <point x="529" y="552"/>
      <point x="534" y="555"/>
      <point x="534" y="561" type="curve" smooth="yes"/>
      <point x="534" y="582"/>
      <point x="501" y="601"/>
      <point x="495" y="601" type="curve" smooth="yes"/>
      <point x="490" y="601"/>
      <point x="486" y="597"/>
      <point x="476" y="582" type="curve" smooth="yes"/>
      <point x="422" y="502" type="line"/>
      <point x="378" y="521"/>
      <point x="322" y="524"/>
      <point x="265" y="524" type="curve" smooth="yes"/>
      <point x="118" y="524"/>
      <point x="24" y="441"/>
      <point x="24" y="219" type="curve" smooth="yes"/>
      <point x="24" y="128"/>
      <point x="43" y="72"/>
      <point x="76" y="40" type="curve"/>
      <point x="27" y="-29" type="line" smooth="yes"/>
      <point x="17" y="-43"/>
      <point x="14" y="-46"/>
      <point x="14" y="-52" type="curve" smooth="yes"/>
      <point x="14" y="-73"/>
      <point x="47" y="-92"/>
    </contour>
    <contour>
      <point x="260" y="56" type="curve" smooth="yes"/>
      <point x="232" y="56"/>
      <point x="219" y="82"/>
      <point x="219" y="120" type="curve"/>
      <point x="268" y="203"/>
      <point x="301" y="255"/>
      <point x="339" y="311" type="curve"/>
      <point x="339" y="300"/>
      <point x="336" y="237"/>
      <point x="332" y="204" type="curve" smooth="yes"/>
      <point x="323" y="123"/>
      <point x="293" y="56"/>
    </contour>
    <contour>
      <point x="208" y="200" type="curve"/>
      <point x="208" y="211"/>
      <point x="211" y="274"/>
      <point x="215" y="307" type="curve" smooth="yes"/>
      <point x="224" y="388"/>
      <point x="254" y="456"/>
      <point x="287" y="456" type="curve" smooth="yes"/>
      <point x="315" y="456"/>
      <point x="330" y="431"/>
      <point x="330" y="393" type="curve"/>
      <point x="281" y="310"/>
      <point x="246" y="256"/>
    </contour>
  </outline>
</glyph>
<glyph name="aogonek" format="2">
  <advance width="686"/>
  <unicode hex="0105"/>
  <outline>
    <contour>
      <point x="175" y="-13" type="curve"/>
      <point x="228" y="-13"/>
      <point x="370" y="160"/>
      <point x="386" y="224" type="curve"/>
      <point x="384" y="200"/>
      <point x="381" y="144"/>
      <point x="381" y="112" type="curve"/>
      <point x="381" y="97"/>
      <point x="382" y="84"/>
      <point x="384" y="69" type="curve"/>
      <point x="391" y="18"/>
      <point x="494" y="-13"/>
      <point x="512" y="-13" type="curve"/>
      <point x="556" y="-13"/>
      <point x="653" y="104"/>
      <point x="675" y="137" type="curve"/>
      <point x="682" y="147"/>
      <point x="686" y="157"/>
      <point x="686" y="167" type="curve"/>
      <point x="686" y="187"/>
      <point x="669" y="211"/>
      <point x="658" y="211" type="curve"/>
      <point x="654" y="211"/>
      <point x="652" y="209"/>
      <point x="646" y="201" type="curve"/>
      <point x="639" y="192"/>
      <point x="620" y="168"/>
      <point x="612" y="168" type="curve"/>
      <point x="604" y="168"/>
      <point x="601" y="173"/>
      <point x="601" y="226" type="curve"/>
      <point x="601" y="263"/>
      <point x="611" y="424"/>
      <point x="611" y="433" type="curve"/>
      <point x="617" y="433"/>
      <point x="628" y="455"/>
      <point x="628" y="482" type="curve"/>
      <point x="628" y="494"/>
      <point x="625" y="495"/>
      <point x="620" y="496" type="curve"/>
      <point x="466" y="519"/>
      <point x="385" y="524"/>
      <point x="302" y="524" type="curve"/>
      <point x="201" y="524"/>
      <point x="146" y="482"/>
      <point x="98" y="417" type="curve"/>
      <point x="47" y="348"/>
      <point x="44" y="142"/>
      <point x="44" y="112" type="curve"/>
      <point x="44" y="97"/>
      <point x="45" y="84"/>
      <point x="47" y="69" type="curve"/>
      <point x="54" y="18"/>
      <point x="157" y="-13"/>
    </contour>
    <contour>
      <point x="275" y="167" type="curve"/>
      <point x="267" y="167"/>
      <point x="264" y="172"/>
      <point x="264" y="224" type="curve"/>
      <point x="264" y="368"/>
      <point x="286" y="454"/>
      <point x="341" y="454" type="curve"/>
      <point x="358" y="454"/>
      <point x="378" y="452"/>
      <point x="395" y="446" type="curve"/>
      <point x="395" y="297"/>
      <point x="292" y="167"/>
    </contour>
    <contour>
      <point x="515" y="-224" type="curve"/>
      <point x="559" y="-224"/>
      <point x="656" y="-107"/>
      <point x="678" y="-74" type="curve" smooth="yes"/>
      <point x="685" y="-64"/>
      <point x="689" y="-54"/>
      <point x="689" y="-44" type="curve" smooth="yes"/>
      <point x="689" y="-24"/>
      <point x="672" y="0"/>
      <point x="661" y="0" type="curve" smooth="yes"/>
      <point x="657" y="0"/>
      <point x="655" y="-2"/>
      <point x="649" y="-10" type="curve"/>
      <point x="642" y="-19"/>
      <point x="587" y="-77"/>
      <point x="560" y="-77" type="curve"/>
      <point x="546" y="-77"/>
      <point x="527" y="-71"/>
      <point x="527" y="-44" type="curve" smooth="yes"/>
      <point x="527" y="25"/>
      <point x="692" y="81"/>
      <point x="561" y="69" type="curve" smooth="yes"/>
      <point x="494" y="65"/>
      <point x="384" y="-29"/>
      <point x="384" y="-99" type="curve" smooth="yes"/>
      <point x="384" y="-114"/>
      <point x="385" y="-127"/>
      <point x="387" y="-142" type="curve" smooth="yes"/>
      <point x="394" y="-193"/>
      <point x="497" y="-224"/>
    </contour>
  </outline>
</glyph>
<glyph name="eogonek" format="2">
  <advance width="496"/>
  <unicode hex="0119"/>
  <outline>
    <contour>
      <point x="267" y="-13" type="curve" smooth="yes"/>
      <point x="328" y="-13"/>
      <point x="399" y="16"/>
      <point x="443" y="60" type="curve" smooth="yes"/>
      <point x="455" y="72"/>
      <point x="458" y="82"/>
      <point x="458" y="88" type="curve" smooth="yes"/>
      <point x="458" y="111"/>
      <point x="454" y="129"/>
      <point x="445" y="129" type="curve" smooth="yes"/>
      <point x="441" y="129"/>
      <point x="434" y="125"/>
      <point x="424" y="119" type="curve" smooth="yes"/>
      <point x="399" y="104"/>
      <point x="361" y="87"/>
      <point x="333" y="87" type="curve" smooth="yes"/>
      <point x="272" y="87"/>
      <point x="237" y="103"/>
      <point x="237" y="207" type="curve" smooth="yes"/>
      <point x="237" y="217"/>
      <point x="237" y="228"/>
      <point x="237" y="239" type="curve"/>
      <point x="247" y="239"/>
      <point x="257" y="239"/>
      <point x="267" y="239" type="curve" smooth="yes"/>
      <point x="370" y="239"/>
      <point x="491" y="285"/>
      <point x="491" y="393" type="curve" smooth="yes"/>
      <point x="491" y="487"/>
      <point x="426" y="524"/>
      <point x="276" y="524" type="curve" smooth="yes"/>
      <point x="132" y="524"/>
      <point x="35" y="441"/>
      <point x="35" y="219" type="curve" smooth="yes"/>
      <point x="35" y="3"/>
      <point x="152" y="-13"/>
    </contour>
    <contour>
      <point x="238" y="289" type="curve"/>
      <point x="243" y="425"/>
      <point x="271" y="454"/>
      <point x="301" y="454" type="curve" smooth="yes"/>
      <point x="320" y="454"/>
      <point x="335" y="434"/>
      <point x="335" y="401" type="curve" smooth="yes"/>
      <point x="335" y="315"/>
      <point x="300" y="296"/>
      <point x="264" y="291" type="curve" smooth="yes"/>
      <point x="249" y="289"/>
      <point x="241" y="289"/>
    </contour>
    <contour>
      <point x="333" y="-234" type="curve" smooth="yes"/>
      <point x="377" y="-234"/>
      <point x="474" y="-117"/>
      <point x="496" y="-84" type="curve" smooth="yes"/>
      <point x="503" y="-74"/>
      <point x="507" y="-64"/>
      <point x="507" y="-54" type="curve" smooth="yes"/>
      <point x="507" y="-34"/>
      <point x="490" y="-10"/>
      <point x="479" y="-10" type="curve" smooth="yes"/>
      <point x="475" y="-10"/>
      <point x="473" y="-12"/>
      <point x="467" y="-20" type="curve"/>
      <point x="460" y="-29"/>
      <point x="405" y="-87"/>
      <point x="378" y="-87" type="curve"/>
      <point x="364" y="-87"/>
      <point x="345" y="-81"/>
      <point x="345" y="-54" type="curve" smooth="yes"/>
      <point x="345" y="15"/>
      <point x="510" y="71"/>
      <point x="379" y="59" type="curve" smooth="yes"/>
      <point x="312" y="55"/>
      <point x="202" y="-39"/>
      <point x="202" y="-109" type="curve" smooth="yes"/>
      <point x="202" y="-124"/>
      <point x="203" y="-137"/>
      <point x="205" y="-152" type="curve" smooth="yes"/>
      <point x="212" y="-203"/>
      <point x="315" y="-234"/>
    </contour>
  </outline>
</glyph>
<glyph name="Hbar" format="2">
  <advance width="878"/>
  <unicode hex="0126"/>
  <anchor x="427" y="0" name="bottom"/>
  <anchor x="447" y="326" name="center"/>
  <anchor x="465" y="652" name="top"/>
  <anchor x="59" y="652" name="topleft"/>
  <outline>
    <contour>
      <point x="255" y="-13" type="curve" smooth="yes"/>
      <point x="299" y="-13"/>
      <point x="304" y="-4"/>
      <point x="304" y="21" type="curve" smooth="yes"/>
      <point x="304" y="85"/>
      <point x="306" y="127"/>
      <point x="310" y="212" type="curve"/>
      <point x="361" y="218"/>
      <point x="410" y="221"/>
      <point x="457" y="221" type="curve"/>
      <point x="497" y="221"/>
      <point x="536" y="219"/>
      <point x="571" y="215" type="curve"/>
      <point x="565" y="108"/>
      <point x="561" y="67"/>
      <point x="561" y="59" type="curve" smooth="yes"/>
      <point x="561" y="9"/>
      <point x="668" y="-13"/>
      <point x="732" y="-13" type="curve" smooth="yes"/>
      <point x="776" y="-13"/>
      <point x="781" y="-4"/>
      <point x="781" y="21" type="curve" smooth="yes"/>
      <point x="781" y="199"/>
      <point x="805" y="562"/>
      <point x="805" y="580" type="curve" smooth="yes"/>
      <point x="805" y="630"/>
      <point x="698" y="652"/>
      <point x="634" y="652" type="curve" smooth="yes"/>
      <point x="590" y="652"/>
      <point x="585" y="643"/>
      <point x="585" y="618" type="curve" smooth="yes"/>
      <point x="585" y="553"/>
      <point x="581" y="421"/>
      <point x="577" y="335" type="curve"/>
      <point x="316" y="335" type="line"/>
      <point x="322" y="443"/>
      <point x="328" y="572"/>
      <point x="328" y="580" type="curve" smooth="yes"/>
      <point x="328" y="630"/>
      <point x="221" y="652"/>
      <point x="157" y="652" type="curve" smooth="yes"/>
      <point x="113" y="652"/>
      <point x="108" y="643"/>
      <point x="108" y="618" type="curve" smooth="yes"/>
      <point x="108" y="440"/>
      <point x="84" y="77"/>
      <point x="84" y="59" type="curve" smooth="yes"/>
      <point x="84" y="9"/>
      <point x="191" y="-13"/>
    </contour>
    <contour>
      <point x="58" y="415" type="curve" smooth="yes"/>
      <point x="189" y="415"/>
      <point x="320" y="419"/>
      <point x="451" y="419" type="curve" smooth="yes"/>
      <point x="580" y="419"/>
      <point x="708" y="415"/>
      <point x="837" y="415" type="curve" smooth="yes"/>
      <point x="852" y="415"/>
      <point x="863" y="437"/>
      <point x="863" y="473" type="curve" smooth="yes"/>
      <point x="863" y="496"/>
      <point x="860" y="499"/>
      <point x="850" y="499" type="curve" smooth="yes"/>
      <point x="71" y="499" type="line" smooth="yes"/>
      <point x="56" y="499"/>
      <point x="45" y="477"/>
      <point x="45" y="441" type="curve" smooth="yes"/>
      <point x="45" y="418"/>
      <point x="48" y="415"/>
    </contour>
  </outline>
</glyph>
<glyph name="kgreenlandic" format="2">
  <advance width="635"/>
  <unicode hex="0138"/>
  <outline>
    <contour>
      <point x="231" y="-13" type="curve" smooth="yes"/>
      <point x="257" y="-13"/>
      <point x="264" y="-5"/>
      <point x="264" y="14" type="curve" smooth="yes"/>
      <point x="264" y="77"/>
      <point x="262" y="118"/>
      <point x="282" y="178" type="curve"/>
      <point x="310" y="264"/>
      <point x="366" y="343"/>
      <point x="382" y="343" type="curve" smooth="yes"/>
      <point x="394" y="343"/>
      <point x="411" y="337"/>
      <point x="411" y="307" type="curve" smooth="yes"/>
      <point x="411" y="253"/>
      <point x="342" y="197"/>
      <point x="302" y="185" type="curve"/>
      <point x="323" y="170"/>
      <point x="483" y="18"/>
      <point x="506" y="-4" type="curve" smooth="yes"/>
      <point x="512" y="-10"/>
      <point x="518" y="-13"/>
      <point x="524" y="-13" type="curve" smooth="yes"/>
      <point x="530" y="-13"/>
      <point x="538" y="-8"/>
      <point x="548" y="4" type="curve" smooth="yes"/>
      <point x="585" y="48"/>
      <point x="617" y="106"/>
      <point x="617" y="154" type="curve" smooth="yes"/>
      <point x="617" y="173"/>
      <point x="613" y="190"/>
      <point x="600" y="203" type="curve" smooth="yes"/>
      <point x="572" y="232"/>
      <point x="533" y="266"/>
      <point x="516" y="277" type="curve"/>
      <point x="527" y="285"/>
      <point x="604" y="347"/>
      <point x="604" y="411" type="curve" smooth="yes"/>
      <point x="604" y="498"/>
      <point x="501" y="524"/>
      <point x="483" y="524" type="curve" smooth="yes"/>
      <point x="429" y="524"/>
      <point x="276" y="340"/>
      <point x="269" y="275" type="curve"/>
      <point x="269" y="311"/>
      <point x="290" y="420"/>
      <point x="290" y="433" type="curve" smooth="yes"/>
      <point x="290" y="494"/>
      <point x="187" y="524"/>
      <point x="106" y="524" type="curve" smooth="yes"/>
      <point x="80" y="524"/>
      <point x="73" y="516"/>
      <point x="73" y="497" type="curve" smooth="yes"/>
      <point x="73" y="486"/>
      <point x="47" y="174"/>
      <point x="47" y="78" type="curve" smooth="yes"/>
      <point x="47" y="18"/>
      <point x="150" y="-13"/>
    </contour>
  </outline>
</glyph>
<glyph name="Lslash" format="2">
  <advance width="494"/>
  <unicode hex="0141"/>
  <outline>
    <contour>
      <point x="52" y="0" type="curve"/>
      <point x="453" y="0" type="line" smooth="yes"/>
      <point x="482" y="0"/>
      <point x="489" y="62"/>
      <point x="489" y="81" type="curve" smooth="yes"/>
      <point x="489" y="107"/>
      <point x="489" y="113"/>
      <point x="481" y="113" type="curve" smooth="yes"/>
      <point x="471" y="113"/>
      <point x="417" y="106"/>
      <point x="365" y="106" type="curve" smooth="yes"/>
      <point x="288" y="106"/>
      <point x="277" y="115"/>
      <point x="277" y="146" type="curve" smooth="yes"/>
      <point x="277" y="174"/>
      <point x="281" y="251"/>
      <point x="285" y="331" type="curve"/>
      <point x="329" y="373"/>
      <point x="390" y="428"/>
      <point x="397" y="437" type="curve" smooth="yes"/>
      <point x="402" y="444"/>
      <point x="406" y="449"/>
      <point x="406" y="460" type="curve" smooth="yes"/>
      <point x="406" y="475"/>
      <point x="399" y="503"/>
      <point x="386" y="504" type="curve" smooth="yes"/>
      <point x="382" y="504"/>
      <point x="352" y="473"/>
      <point x="290" y="411" type="curve"/>
      <point x="295" y="503"/>
      <point x="299" y="573"/>
      <point x="299" y="580" type="curve" smooth="yes"/>
      <point x="299" y="630"/>
      <point x="192" y="652"/>
      <point x="128" y="652" type="curve" smooth="yes"/>
      <point x="84" y="652"/>
      <point x="79" y="643"/>
      <point x="79" y="618" type="curve" smooth="yes"/>
      <point x="79" y="525"/>
      <point x="72" y="379"/>
      <point x="66" y="254" type="curve"/>
      <point x="24" y="215"/>
      <point x="-23" y="171"/>
      <point x="-29" y="163" type="curve" smooth="yes"/>
      <point x="-34" y="156"/>
      <point x="-38" y="151"/>
      <point x="-38" y="140" type="curve" smooth="yes"/>
      <point x="-38" y="125"/>
      <point x="-31" y="96"/>
      <point x="-18" y="96" type="curve" smooth="yes"/>
      <point x="-14" y="96"/>
      <point x="11" y="122"/>
      <point x="62" y="173" type="curve"/>
      <point x="56" y="80"/>
      <point x="52" y="11"/>
    </contour>
  </outline>
</glyph>
<glyph name="Tbar" format="2">
  <advance width="541"/>
  <unicode hex="0166"/>
  <outline>
    <contour>
      <point x="332" y="-13" type="curve"/>
      <point x="376" y="-13"/>
      <point x="381" y="-4"/>
      <point x="381" y="21" type="curve"/>
      <point x="381" y="157"/>
      <point x="395" y="401"/>
      <point x="402" y="514" type="curve"/>
      <point x="405" y="514" type="line"/>
      <point x="418" y="514"/>
      <point x="531" y="505"/>
      <point x="540" y="505" type="curve"/>
      <point x="550" y="505"/>
      <point x="556" y="570"/>
      <point x="556" y="599" type="curve"/>
      <point x="556" y="624"/>
      <point x="552" y="639"/>
      <point x="536" y="639" type="curve"/>
      <point x="55" y="639" type="line"/>
      <point x="41" y="639"/>
      <point x="28" y="603"/>
      <point x="28" y="550" type="curve"/>
      <point x="28" y="526"/>
      <point x="32" y="505"/>
      <point x="40" y="505" type="curve"/>
      <point x="49" y="505"/>
      <point x="150" y="514"/>
      <point x="179" y="514" type="curve"/>
      <point x="183" y="514" type="line"/>
      <point x="178" y="327"/>
      <point x="161" y="74"/>
      <point x="161" y="59" type="curve"/>
      <point x="161" y="9"/>
      <point x="268" y="-13"/>
    </contour>
    <contour>
      <point x="71" y="276" type="curve" smooth="yes"/>
      <point x="202" y="276"/>
      <point x="263" y="280"/>
      <point x="294" y="280" type="curve" smooth="yes"/>
      <point x="333" y="280"/>
      <point x="371" y="276"/>
      <point x="500" y="276" type="curve" smooth="yes"/>
      <point x="515" y="276"/>
      <point x="526" y="298"/>
      <point x="526" y="334" type="curve" smooth="yes"/>
      <point x="526" y="357"/>
      <point x="523" y="360"/>
      <point x="513" y="360" type="curve" smooth="yes"/>
      <point x="84" y="360" type="line" smooth="yes"/>
      <point x="69" y="360"/>
      <point x="58" y="338"/>
      <point x="58" y="302" type="curve" smooth="yes"/>
      <point x="58" y="279"/>
      <point x="61" y="276"/>
    </contour>
  </outline>
</glyph>
<glyph name="Oopen" format="2">
  <advance width="669"/>
  <unicode hex="0186"/>
  <anchor x="279" y="0" name="bottom"/>
  <anchor x="318" y="652" name="top"/>
  <outline>
    <contour>
      <point x="287" y="665" type="curve" smooth="yes"/>
      <point x="213" y="665"/>
      <point x="174" y="662"/>
      <point x="115" y="645" type="curve" smooth="yes"/>
      <point x="86" y="637"/>
      <point x="67" y="606"/>
      <point x="67" y="535" type="curve" smooth="yes"/>
      <point x="67" y="521"/>
      <point x="69" y="515"/>
      <point x="78" y="515" type="curve" smooth="yes"/>
      <point x="83" y="515"/>
      <point x="90" y="517"/>
      <point x="100" y="520" type="curve" smooth="yes"/>
      <point x="157" y="539"/>
      <point x="197" y="542"/>
      <point x="250" y="542" type="curve" smooth="yes"/>
      <point x="367" y="542"/>
      <point x="416" y="487"/>
      <point x="416" y="339" type="curve"/>
      <point x="416" y="160"/>
      <point x="341" y="126"/>
      <point x="266" y="126" type="curve" smooth="yes"/>
      <point x="157" y="126"/>
      <point x="103" y="166"/>
      <point x="86" y="166" type="curve"/>
      <point x="53" y="166"/>
      <point x="50" y="97"/>
      <point x="50" y="81" type="curve"/>
      <point x="50" y="57"/>
      <point x="54" y="39"/>
      <point x="77" y="31" type="curve"/>
      <point x="140" y="9"/>
      <point x="206" y="0"/>
      <point x="273" y="0" type="curve"/>
      <point x="488" y="0"/>
      <point x="644" y="58"/>
      <point x="644" y="377" type="curve"/>
      <point x="644" y="589"/>
      <point x="520" y="665"/>
    </contour>
  </outline>
</glyph>
<glyph name="Ereversed" format="2">
  <advance width="566"/>
  <unicode hex="018E"/>
  <outline>
    <contour>
      <point x="60" y="0" type="curve" smooth="yes"/>
      <point x="495" y="0" type="line"/>
      <point x="500" y="42"/>
      <point x="512" y="441"/>
      <point x="533" y="639" type="curve"/>
      <point x="142" y="639" type="line" smooth="yes"/>
      <point x="126" y="639"/>
      <point x="120" y="631"/>
      <point x="118" y="606" type="curve" smooth="yes"/>
      <point x="114" y="577"/>
      <point x="116" y="537"/>
      <point x="126" y="537" type="curve" smooth="yes"/>
      <point x="135" y="537"/>
      <point x="218" y="541"/>
      <point x="280" y="541" type="curve" smooth="yes"/>
      <point x="306" y="541" type="line"/>
      <point x="310" y="524"/>
      <point x="305" y="418"/>
      <point x="302" y="374" type="curve"/>
      <point x="126" y="374" type="line" smooth="yes"/>
      <point x="110" y="374"/>
      <point x="103" y="367"/>
      <point x="101" y="342" type="curve" smooth="yes"/>
      <point x="97" y="313"/>
      <point x="100" y="272"/>
      <point x="110" y="272" type="curve" smooth="yes"/>
      <point x="119" y="272"/>
      <point x="193" y="277"/>
      <point x="272" y="277" type="curve" smooth="yes"/>
      <point x="294" y="277" type="line"/>
      <point x="293" y="264"/>
      <point x="290" y="190"/>
      <point x="286" y="146" type="curve"/>
      <point x="282" y="115"/>
      <point x="270" y="106"/>
      <point x="193" y="106" type="curve" smooth="yes"/>
      <point x="125" y="106"/>
      <point x="54" y="119"/>
      <point x="44" y="119" type="curve" smooth="yes"/>
      <point x="37" y="119"/>
      <point x="37" y="112"/>
      <point x="35" y="86" type="curve" smooth="yes"/>
      <point x="32" y="67"/>
      <point x="31" y="0"/>
    </contour>
  </outline>
</glyph>
<glyph name="Schwa" format="2">
  <advance width="682"/>
  <unicode hex="018F"/>
  <outline>
    <contour>
      <point x="292" y="-14" type="curve" smooth="yes"/>
      <point x="500" y="-14"/>
      <point x="657" y="45"/>
      <point x="657" y="365" type="curve" smooth="yes"/>
      <point x="657" y="558"/>
      <point x="544" y="652"/>
      <point x="340" y="652" type="curve" smooth="yes"/>
      <point x="205" y="652"/>
      <point x="91" y="586"/>
      <point x="55" y="550" type="curve" smooth="yes"/>
      <point x="41" y="536"/>
      <point x="36" y="526"/>
      <point x="36" y="517" type="curve" smooth="yes"/>
      <point x="36" y="459"/>
      <point x="44" y="430"/>
      <point x="67" y="430" type="curve" smooth="yes"/>
      <point x="75" y="430"/>
      <point x="88" y="431"/>
      <point x="97" y="439" type="curve" smooth="yes"/>
      <point x="157" y="496"/>
      <point x="232" y="527"/>
      <point x="292" y="527" type="curve" smooth="yes"/>
      <point x="377" y="527"/>
      <point x="428" y="502"/>
      <point x="428" y="389" type="curve" smooth="yes"/>
      <point x="428" y="372"/>
      <point x="429" y="321"/>
      <point x="428" y="315" type="curve"/>
      <point x="420" y="309" type="line"/>
      <point x="410" y="311"/>
      <point x="365" y="315"/>
      <point x="306" y="315" type="curve" smooth="yes"/>
      <point x="82" y="315"/>
      <point x="20" y="239"/>
      <point x="20" y="134" type="curve" smooth="yes"/>
      <point x="20" y="43"/>
      <point x="128" y="-14"/>
    </contour>
    <contour>
      <point x="320" y="49" type="curve" smooth="yes"/>
      <point x="284" y="49"/>
      <point x="259" y="93"/>
      <point x="259" y="131" type="curve" smooth="yes"/>
      <point x="259" y="210"/>
      <point x="304" y="249"/>
      <point x="364" y="249" type="curve" smooth="yes"/>
      <point x="388" y="249"/>
      <point x="411" y="241"/>
      <point x="419" y="234" type="curve"/>
      <point x="421" y="227" type="line"/>
      <point x="402" y="96"/>
      <point x="351" y="49"/>
    </contour>
  </outline>
</glyph>
<glyph name="Istroke" format="2">
  <advance width="350"/>
  <unicode hex="0197"/>
  <anchor x="160" y="0" name="bottom"/>
  <anchor x="261" y="10" name="ogonek"/>
  <anchor x="194" y="652" name="top"/>
  <anchor x="20" y="652" name="topleft"/>
  <outline>
    <contour>
      <point x="224" y="-13" type="curve"/>
      <point x="268" y="-13"/>
      <point x="273" y="-4"/>
      <point x="273" y="21" type="curve"/>
      <point x="273" y="199"/>
      <point x="297" y="562"/>
      <point x="297" y="579" type="curve"/>
      <point x="297" y="630"/>
      <point x="190" y="652"/>
      <point x="126" y="652" type="curve"/>
      <point x="82" y="652"/>
      <point x="77" y="643"/>
      <point x="77" y="618" type="curve"/>
      <point x="77" y="440"/>
      <point x="53" y="77"/>
      <point x="53" y="59" type="curve"/>
      <point x="53" y="9"/>
      <point x="160" y="-13"/>
    </contour>
    <contour>
      <point x="12" y="300" type="curve"/>
      <point x="319" y="300" type="line"/>
      <point x="334" y="300"/>
      <point x="345" y="322"/>
      <point x="345" y="358" type="curve" smooth="yes"/>
      <point x="345" y="381"/>
      <point x="342" y="384"/>
      <point x="332" y="384" type="curve"/>
      <point x="25" y="384" type="line"/>
      <point x="10" y="384"/>
      <point x="-1" y="362"/>
      <point x="-1" y="326" type="curve" smooth="yes"/>
      <point x="-1" y="303"/>
      <point x="2" y="300"/>
    </contour>
  </outline>
</glyph>
<glyph name="Nhookleft" format="2">
  <advance width="744"/>
  <unicode hex="019D"/>
  <anchor x="419" y="0" name="bottom"/>
  <anchor x="453" y="652" name="top"/>
  <outline>
    <contour>
      <point x="-22" y="-195" type="curve" smooth="yes"/>
      <point x="28" y="-195"/>
      <point x="89" y="-183"/>
      <point x="135" y="-134" type="curve" smooth="yes"/>
      <point x="167" y="-100"/>
      <point x="181" y="-34"/>
      <point x="181" y="21" type="curve" smooth="yes"/>
      <point x="181" y="112"/>
      <point x="188" y="317"/>
      <point x="192" y="361" type="curve"/>
      <point x="234" y="319"/>
      <point x="529" y="8"/>
      <point x="536" y="0" type="curve" smooth="yes"/>
      <point x="543" y="-9"/>
      <point x="553" y="-13"/>
      <point x="563" y="-13" type="curve" smooth="yes"/>
      <point x="595" y="-13"/>
      <point x="689" y="53"/>
      <point x="689" y="86" type="curve" smooth="yes"/>
      <point x="689" y="156"/>
      <point x="711" y="546"/>
      <point x="711" y="580" type="curve" smooth="yes"/>
      <point x="711" y="630"/>
      <point x="654" y="652"/>
      <point x="620" y="652" type="curve" smooth="yes"/>
      <point x="596" y="652"/>
      <point x="593" y="643"/>
      <point x="593" y="618" type="curve" smooth="yes"/>
      <point x="593" y="527"/>
      <point x="586" y="322"/>
      <point x="582" y="280" type="curve"/>
      <point x="540" y="319"/>
      <point x="245" y="631"/>
      <point x="238" y="639" type="curve" smooth="yes"/>
      <point x="231" y="648"/>
      <point x="221" y="652"/>
      <point x="211" y="652" type="curve" smooth="yes"/>
      <point x="179" y="652"/>
      <point x="85" y="586"/>
      <point x="85" y="553" type="curve" smooth="yes"/>
      <point x="85" y="520"/>
      <point x="80" y="398"/>
      <point x="69" y="187" type="curve" smooth="yes"/>
      <point x="66" y="134"/>
      <point x="63" y="77"/>
      <point x="63" y="52" type="curve" smooth="yes"/>
      <point x="58" y="-49"/>
      <point x="52" y="-64"/>
      <point x="32" y="-88" type="curve" smooth="yes"/>
      <point x="24" y="-97"/>
      <point x="10" y="-102"/>
      <point x="-12" y="-102" type="curve" smooth="yes"/>
      <point x="-26" y="-102"/>
      <point x="-85" y="-96"/>
      <point x="-92" y="-96" type="curve" smooth="yes"/>
      <point x="-101" y="-96"/>
      <point x="-110" y="-112"/>
      <point x="-110" y="-128" type="curve" smooth="yes"/>
      <point x="-110" y="-154"/>
      <point x="-107" y="-173"/>
      <point x="-86" y="-182" type="curve" smooth="yes"/>
      <point x="-64" y="-191"/>
      <point x="-51" y="-195"/>
    </contour>
  </outline>
</glyph>
<glyph name="Ezh" format="2">
  <advance width="579"/>
  <unicode hex="01B7"/>
  <anchor x="290" y="0" name="bottom"/>
  <anchor x="311" y="652" name="top"/>
  <outline>
    <contour>
      <point x="231" y="-13" type="curve" smooth="yes"/>
      <point x="422" y="-13"/>
      <point x="515" y="95"/>
      <point x="515" y="197" type="curve" smooth="yes"/>
      <point x="515" y="262"/>
      <point x="486" y="310"/>
      <point x="434" y="338" type="curve"/>
      <point x="486" y="411"/>
      <point x="534" y="477"/>
      <point x="542" y="491" type="curve" smooth="yes"/>
      <point x="550" y="503"/>
      <point x="550" y="511"/>
      <point x="550" y="523" type="curve" smooth="yes"/>
      <point x="550" y="544"/>
      <point x="517" y="639"/>
      <point x="486" y="639" type="curve" smooth="yes"/>
      <point x="122" y="639" type="line" smooth="yes"/>
      <point x="108" y="639"/>
      <point x="88" y="622"/>
      <point x="88" y="561" type="curve" smooth="yes"/>
      <point x="88" y="524"/>
      <point x="90" y="506"/>
      <point x="97" y="506" type="curve" smooth="yes"/>
      <point x="105" y="506"/>
      <point x="194" y="519"/>
      <point x="220" y="519" type="curve" smooth="yes"/>
      <point x="302" y="519" type="line"/>
      <point x="289" y="500"/>
      <point x="237" y="432"/>
      <point x="182" y="355" type="curve"/>
      <point x="180" y="351"/>
      <point x="173" y="347"/>
      <point x="173" y="323" type="curve" smooth="yes"/>
      <point x="173" y="307"/>
      <point x="176" y="299"/>
      <point x="188" y="299" type="curve" smooth="yes"/>
      <point x="260" y="299"/>
      <point x="304" y="262"/>
      <point x="304" y="198" type="curve" smooth="yes"/>
      <point x="304" y="124"/>
      <point x="260" y="104"/>
      <point x="210" y="104" type="curve" smooth="yes"/>
      <point x="142" y="104"/>
      <point x="85" y="135"/>
      <point x="78" y="135" type="curve" smooth="yes"/>
      <point x="62" y="135"/>
      <point x="58" y="127"/>
      <point x="58" y="72" type="curve" smooth="yes"/>
      <point x="58" y="41"/>
      <point x="72" y="27"/>
      <point x="91" y="16" type="curve" smooth="yes"/>
      <point x="122" y="-1"/>
      <point x="162" y="-13"/>
    </contour>
  </outline>
</glyph>
<glyph name="Gstroke" format="2">
  <advance width="733"/>
  <unicode hex="01E4"/>
  <anchor x="369" y="0" name="bottom"/>
  <anchor x="403" y="652" name="top"/>
  <outline>
    <contour>
      <point x="402" y="-13" type="curve" smooth="yes"/>
      <point x="527" y="-13"/>
      <point x="645" y="12"/>
      <point x="686" y="29" type="curve"/>
      <point x="693" y="160"/>
      <point x="700" y="336"/>
      <point x="703" y="378" type="curve"/>
      <point x="459" y="378" type="line" smooth="yes"/>
      <point x="445" y="378"/>
      <point x="430" y="366"/>
      <point x="430" y="329" type="curve" smooth="yes"/>
      <point x="430" y="305"/>
      <point x="432" y="283"/>
      <point x="440" y="283" type="curve" smooth="yes"/>
      <point x="448" y="283"/>
      <point x="462" y="284"/>
      <point x="495" y="284" type="curve"/>
      <point x="495" y="209"/>
      <point x="490" y="122"/>
      <point x="489" y="93" type="curve"/>
      <point x="473" y="93"/>
      <point x="456" y="93"/>
      <point x="439" y="93" type="curve" smooth="yes"/>
      <point x="361" y="93"/>
      <point x="273" y="145"/>
      <point x="273" y="307" type="curve" smooth="yes"/>
      <point x="273" y="460"/>
      <point x="332" y="526"/>
      <point x="433" y="526" type="curve" smooth="yes"/>
      <point x="512" y="526"/>
      <point x="567" y="509"/>
      <point x="600" y="498" type="curve" smooth="yes"/>
      <point x="620" y="491"/>
      <point x="633" y="486"/>
      <point x="639" y="486" type="curve" smooth="yes"/>
      <point x="672" y="486"/>
      <point x="675" y="555"/>
      <point x="675" y="572" type="curve" smooth="yes"/>
      <point x="675" y="599"/>
      <point x="668" y="614"/>
      <point x="648" y="621" type="curve" smooth="yes"/>
      <point x="608" y="635"/>
      <point x="510" y="652"/>
      <point x="416" y="652" type="curve" smooth="yes"/>
      <point x="201" y="652"/>
      <point x="45" y="594"/>
      <point x="45" y="275" type="curve" smooth="yes"/>
      <point x="45" y="63"/>
      <point x="169" y="-13"/>
    </contour>
    <contour>
      <point x="404" y="140" type="curve" smooth="yes"/>
      <point x="729" y="140" type="line" smooth="yes"/>
      <point x="744" y="140"/>
      <point x="755" y="162"/>
      <point x="755" y="213" type="curve" smooth="yes"/>
      <point x="755" y="242"/>
      <point x="752" y="245"/>
      <point x="742" y="245" type="curve" smooth="yes"/>
      <point x="417" y="245" type="line" smooth="yes"/>
      <point x="402" y="245"/>
      <point x="391" y="218"/>
      <point x="391" y="178" type="curve" smooth="yes"/>
      <point x="391" y="144"/>
      <point x="394" y="140"/>
    </contour>
  </outline>
</glyph>
<glyph name="oogonek" format="2">
  <advance width="571"/>
  <unicode hex="01EB"/>
  <outline>
    <contour>
      <point x="296" y="-13" type="curve" smooth="yes"/>
      <point x="441" y="-13"/>
      <point x="536" y="71"/>
      <point x="536" y="292" type="curve" smooth="yes"/>
      <point x="536" y="510"/>
      <point x="424" y="524"/>
      <point x="276" y="524" type="curve" smooth="yes"/>
      <point x="131" y="524"/>
      <point x="35" y="441"/>
      <point x="35" y="219" type="curve" smooth="yes"/>
      <point x="35" y="1"/>
      <point x="147" y="-13"/>
    </contour>
    <contour>
      <point x="271" y="55" type="curve" smooth="yes"/>
      <point x="239" y="55"/>
      <point x="237" y="71"/>
      <point x="237" y="205" type="curve" smooth="yes"/>
      <point x="237" y="372"/>
      <point x="269" y="454"/>
      <point x="301" y="454" type="curve" smooth="yes"/>
      <point x="332" y="454"/>
      <point x="335" y="438"/>
      <point x="335" y="303" type="curve" smooth="yes"/>
      <point x="335" y="137"/>
      <point x="302" y="55"/>
    </contour>
    <contour>
      <point x="329" y="-224" type="curve"/>
      <point x="373" y="-224"/>
      <point x="460" y="-127"/>
      <point x="482" y="-94" type="curve" smooth="yes"/>
      <point x="489" y="-84"/>
      <point x="493" y="-74"/>
      <point x="493" y="-64" type="curve" smooth="yes"/>
      <point x="493" y="-44"/>
      <point x="476" y="-20"/>
      <point x="465" y="-20" type="curve" smooth="yes"/>
      <point x="461" y="-20"/>
      <point x="459" y="-22"/>
      <point x="453" y="-30" type="curve"/>
      <point x="446" y="-39"/>
      <point x="401" y="-77"/>
      <point x="374" y="-77" type="curve"/>
      <point x="360" y="-77"/>
      <point x="341" y="-71"/>
      <point x="341" y="-44" type="curve" smooth="yes"/>
      <point x="341" y="0"/>
      <point x="526" y="57"/>
      <point x="395" y="45" type="curve" smooth="yes"/>
      <point x="328" y="41"/>
      <point x="198" y="-29"/>
      <point x="198" y="-99" type="curve" smooth="yes"/>
      <point x="198" y="-114"/>
      <point x="199" y="-127"/>
      <point x="201" y="-142" type="curve" smooth="yes"/>
      <point x="208" y="-193"/>
      <point x="311" y="-224"/>
    </contour>
  </outline>
</glyph>
<glyph name="Bstroke" format="2">
  <advance width="720"/>
  <unicode hex="0243"/>
  <outline>
    <contour>
      <point x="70" y="0" type="curve"/>
      <point x="420" y="0" type="line" smooth="yes"/>
      <point x="586" y="0"/>
      <point x="687" y="85"/>
      <point x="687" y="205" type="curve" smooth="yes"/>
      <point x="687" y="294"/>
      <point x="621" y="342"/>
      <point x="532" y="351" type="curve"/>
      <point x="596" y="364"/>
      <point x="675" y="413"/>
      <point x="675" y="502" type="curve" smooth="yes"/>
      <point x="675" y="603"/>
      <point x="597" y="639"/>
      <point x="461" y="639" type="curve" smooth="yes"/>
      <point x="99" y="639" type="line"/>
      <point x="99" y="441"/>
      <point x="70" y="42"/>
    </contour>
    <contour>
      <point x="305" y="354" type="curve"/>
      <point x="303" y="386"/>
      <point x="312" y="529"/>
      <point x="317" y="553" type="curve"/>
      <point x="329" y="553"/>
      <point x="340" y="553"/>
      <point x="352" y="553" type="curve" smooth="yes"/>
      <point x="417" y="553"/>
      <point x="450" y="520"/>
      <point x="450" y="471" type="curve" smooth="yes"/>
      <point x="450" y="441"/>
      <point x="439" y="411"/>
      <point x="413" y="388" type="curve" smooth="yes"/>
      <point x="390" y="368"/>
      <point x="355" y="354"/>
    </contour>
    <contour>
      <point x="350" y="88" type="curve"/>
      <point x="309" y="88"/>
      <point x="292" y="100"/>
      <point x="294" y="135" type="curve"/>
      <point x="297" y="193"/>
      <point x="299" y="250"/>
      <point x="302" y="308" type="curve"/>
      <point x="311" y="308"/>
      <point x="321" y="308"/>
      <point x="334" y="306" type="curve" smooth="yes"/>
      <point x="400" y="296"/>
      <point x="459" y="265"/>
      <point x="459" y="185" type="curve" smooth="yes"/>
      <point x="459" y="140"/>
      <point x="423" y="88"/>
    </contour>
    <contour>
      <point x="28" y="140" type="curve" smooth="yes"/>
      <point x="343" y="140" type="line" smooth="yes"/>
      <point x="358" y="140"/>
      <point x="369" y="162"/>
      <point x="369" y="213" type="curve" smooth="yes"/>
      <point x="369" y="242"/>
      <point x="366" y="245"/>
      <point x="356" y="245" type="curve" smooth="yes"/>
      <point x="41" y="245" type="line" smooth="yes"/>
      <point x="26" y="245"/>
      <point x="15" y="218"/>
      <point x="15" y="178" type="curve" smooth="yes"/>
      <point x="15" y="144"/>
      <point x="18" y="140"/>
    </contour>
  </outline>
</glyph>
<glyph name="esh" format="2">
  <advance width="320"/>
  <unicode hex="0283"/>
  <anchor x="133" y="0" name="bottom"/>
  <anchor x="179" y="756" name="top"/>
  <outline>
    <contour>
      <point x="29" y="-244" type="curve" smooth="yes"/>
      <point x="79" y="-244"/>
      <point x="133" y="-229"/>
      <point x="181" y="-185" type="curve" smooth="yes"/>
      <point x="231" y="-139"/>
      <point x="270" y="-61"/>
      <point x="274" y="65" type="curve"/>
      <point x="284" y="499" type="line"/>
      <point x="284" y="536" type="line" smooth="yes"/>
      <point x="284" y="644"/>
      <point x="308" y="661"/>
      <point x="341" y="661" type="curve" smooth="yes"/>
      <point x="355" y="661"/>
      <point x="365" y="660"/>
      <point x="375" y="659" type="curve" smooth="yes"/>
      <point x="383" y="658"/>
      <point x="387" y="657"/>
      <point x="390" y="657" type="curve" smooth="yes"/>
      <point x="400" y="657"/>
      <point x="408" y="674"/>
      <point x="408" y="690" type="curve" smooth="yes"/>
      <point x="408" y="713"/>
      <point x="404" y="730"/>
      <point x="389" y="738" type="curve" smooth="yes"/>
      <point x="374" y="746"/>
      <point x="333" y="756"/>
      <point x="286" y="756" type="curve" smooth="yes"/>
      <point x="237" y="756"/>
      <point x="173" y="751"/>
      <point x="120" y="704" type="curve" smooth="yes"/>
      <point x="68" y="658"/>
      <point x="61" y="593"/>
      <point x="61" y="534" type="curve" smooth="yes"/>
      <point x="61" y="499" type="line"/>
      <point x="66" y="146" type="line"/>
      <point x="66" y="-90"/>
      <point x="63" y="-151"/>
      <point x="-12" y="-151" type="curve" smooth="yes"/>
      <point x="-21" y="-151"/>
      <point x="-35" y="-149"/>
      <point x="-46" y="-147" type="curve" smooth="yes"/>
      <point x="-53" y="-146"/>
      <point x="-58" y="-145"/>
      <point x="-61" y="-145" type="curve" smooth="yes"/>
      <point x="-71" y="-145"/>
      <point x="-79" y="-160"/>
      <point x="-79" y="-182" type="curve" smooth="yes"/>
      <point x="-79" y="-203"/>
      <point x="-76" y="-222"/>
      <point x="-55" y="-231" type="curve" smooth="yes"/>
      <point x="-33" y="-240"/>
      <point x="0" y="-244"/>
    </contour>
  </outline>
</glyph>
<glyph name="ubar" format="2">
  <advance width="712"/>
  <unicode hex="0289"/>
  <anchor x="290" y="0" name="bottom"/>
  <anchor x="521" y="10" name="ogonek"/>
  <anchor x="340" y="524" name="top"/>
  <anchor x="624" y="524" name="topright"/>
  <outline>
    <contour>
      <point x="191" y="-13" type="curve" smooth="yes"/>
      <point x="244" y="-13"/>
      <point x="386" y="160"/>
      <point x="402" y="224" type="curve"/>
      <point x="400" y="200"/>
      <point x="397" y="144"/>
      <point x="397" y="112" type="curve" smooth="yes"/>
      <point x="397" y="97"/>
      <point x="398" y="84"/>
      <point x="400" y="69" type="curve" smooth="yes"/>
      <point x="407" y="18"/>
      <point x="510" y="-13"/>
      <point x="528" y="-13" type="curve" smooth="yes"/>
      <point x="572" y="-13"/>
      <point x="669" y="104"/>
      <point x="691" y="137" type="curve" smooth="yes"/>
      <point x="698" y="147"/>
      <point x="702" y="157"/>
      <point x="702" y="167" type="curve" smooth="yes"/>
      <point x="702" y="187"/>
      <point x="685" y="211"/>
      <point x="674" y="211" type="curve" smooth="yes"/>
      <point x="670" y="211"/>
      <point x="668" y="209"/>
      <point x="662" y="201" type="curve"/>
      <point x="655" y="192"/>
      <point x="636" y="168"/>
      <point x="628" y="168" type="curve" smooth="yes"/>
      <point x="620" y="168"/>
      <point x="617" y="173"/>
      <point x="617" y="226" type="curve" smooth="yes"/>
      <point x="617" y="263"/>
      <point x="627" y="424"/>
      <point x="627" y="433" type="curve" smooth="yes"/>
      <point x="627" y="494"/>
      <point x="525" y="524"/>
      <point x="444" y="524" type="curve" smooth="yes"/>
      <point x="418" y="524"/>
      <point x="411" y="516"/>
      <point x="411" y="497" type="curve" smooth="yes"/>
      <point x="411" y="434"/>
      <point x="412" y="393"/>
      <point x="393" y="333" type="curve" smooth="yes"/>
      <point x="366" y="247"/>
      <point x="307" y="168"/>
      <point x="291" y="168" type="curve" smooth="yes"/>
      <point x="283" y="168"/>
      <point x="280" y="173"/>
      <point x="280" y="226" type="curve" smooth="yes"/>
      <point x="280" y="270"/>
      <point x="298" y="421"/>
      <point x="298" y="433" type="curve" smooth="yes"/>
      <point x="298" y="494"/>
      <point x="195" y="524"/>
      <point x="114" y="524" type="curve" smooth="yes"/>
      <point x="88" y="524"/>
      <point x="81" y="516"/>
      <point x="81" y="497" type="curve" smooth="yes"/>
      <point x="81" y="486"/>
      <point x="60" y="241"/>
      <point x="60" y="112" type="curve" smooth="yes"/>
      <point x="60" y="97"/>
      <point x="61" y="84"/>
      <point x="63" y="69" type="curve" smooth="yes"/>
      <point x="70" y="18"/>
      <point x="173" y="-13"/>
    </contour>
    <contour>
      <point x="16" y="301" type="curve" smooth="yes"/>
      <point x="19" y="301"/>
      <point x="657" y="302"/>
      <point x="662" y="302" type="curve" smooth="yes"/>
      <point x="671" y="302"/>
      <point x="680" y="321"/>
      <point x="680" y="372" type="curve" smooth="yes"/>
      <point x="680" y="378"/>
      <point x="673" y="382"/>
      <point x="668" y="382" type="curve"/>
      <point x="24" y="382" type="line"/>
      <point x="11" y="382"/>
      <point x="5" y="329"/>
      <point x="5" y="311" type="curve" smooth="yes"/>
      <point x="5" y="305"/>
      <point x="11" y="301"/>
    </contour>
  </outline>
</glyph>
<glyph name="ezh" format="2">
  <advance width="490"/>
  <unicode hex="0292"/>
  <anchor x="245" y="0" name="bottom"/>
  <anchor x="265" y="524" name="top"/>
  <outline>
    <contour>
      <point x="165" y="-144" type="curve" smooth="yes"/>
      <point x="356" y="-144"/>
      <point x="449" y="-36"/>
      <point x="449" y="66" type="curve" smooth="yes"/>
      <point x="449" y="151"/>
      <point x="416" y="189"/>
      <point x="364" y="207" type="curve"/>
      <point x="416" y="280"/>
      <point x="464" y="346"/>
      <point x="472" y="360" type="curve" smooth="yes"/>
      <point x="480" y="372"/>
      <point x="480" y="380"/>
      <point x="480" y="392" type="curve" smooth="yes"/>
      <point x="480" y="413"/>
      <point x="477" y="508"/>
      <point x="446" y="508" type="curve" smooth="yes"/>
      <point x="82" y="508" type="line" smooth="yes"/>
      <point x="68" y="508"/>
      <point x="48" y="507"/>
      <point x="48" y="446" type="curve" smooth="yes"/>
      <point x="48" y="409"/>
      <point x="50" y="391"/>
      <point x="57" y="391" type="curve" smooth="yes"/>
      <point x="65" y="391"/>
      <point x="154" y="404"/>
      <point x="180" y="404" type="curve" smooth="yes"/>
      <point x="262" y="404" type="line"/>
      <point x="249" y="385"/>
      <point x="197" y="301"/>
      <point x="142" y="224" type="curve"/>
      <point x="140" y="220"/>
      <point x="133" y="216"/>
      <point x="133" y="192" type="curve" smooth="yes"/>
      <point x="133" y="176"/>
      <point x="136" y="168"/>
      <point x="148" y="168" type="curve" smooth="yes"/>
      <point x="220" y="168"/>
      <point x="238" y="131"/>
      <point x="238" y="67" type="curve" smooth="yes"/>
      <point x="238" y="-7"/>
      <point x="194" y="-27"/>
      <point x="144" y="-27" type="curve" smooth="yes"/>
      <point x="86" y="-27"/>
      <point x="29" y="4"/>
      <point x="22" y="4" type="curve" smooth="yes"/>
      <point x="6" y="4"/>
      <point x="2" y="-4"/>
      <point x="2" y="-59" type="curve" smooth="yes"/>
      <point x="2" y="-90"/>
      <point x="16" y="-104"/>
      <point x="35" y="-115" type="curve" smooth="yes"/>
      <point x="66" y="-132"/>
      <point x="106" y="-144"/>
    </contour>
  </outline>
</glyph>
<glyph name="commaturnedmod" format="2">
  <advance width="293"/>
  <unicode hex="02BB"/>
  <outline>
    <contour>
      <point x="141" y="578" type="curve" smooth="yes"/>
      <point x="151" y="578"/>
      <point x="156" y="581"/>
      <point x="163" y="600" type="curve" smooth="yes"/>
      <point x="173" y="628"/>
      <point x="222" y="727"/>
      <point x="243" y="769" type="curve" smooth="yes"/>
      <point x="248" y="779"/>
      <point x="252" y="784"/>
      <point x="252" y="787" type="curve" smooth="yes"/>
      <point x="252" y="790"/>
      <point x="223" y="808"/>
      <point x="199" y="808" type="curve" smooth="yes"/>
      <point x="174" y="808"/>
      <point x="164" y="807"/>
      <point x="140" y="790" type="curve" smooth="yes"/>
      <point x="108" y="768"/>
      <point x="41" y="701"/>
      <point x="41" y="675" type="curve" smooth="yes"/>
      <point x="41" y="660"/>
      <point x="48" y="647"/>
      <point x="66" y="626" type="curve" smooth="yes"/>
      <point x="83" y="608"/>
      <point x="123" y="578"/>
    </contour>
  </outline>
</glyph>
<glyph name="commareversedmod" format="2">
  <advance width="309"/>
  <unicode hex="02BD"/>
  <outline>
    <contour>
      <point x="207" y="575" type="curve" smooth="yes"/>
      <point x="231" y="575"/>
      <point x="260" y="594"/>
      <point x="260" y="596" type="curve" smooth="yes"/>
      <point x="260" y="599"/>
      <point x="257" y="604"/>
      <point x="251" y="614" type="curve" smooth="yes"/>
      <point x="230" y="656"/>
      <point x="181" y="755"/>
      <point x="171" y="783" type="curve" smooth="yes"/>
      <point x="164" y="802"/>
      <point x="160" y="805"/>
      <point x="149" y="805" type="curve" smooth="yes"/>
      <point x="131" y="805"/>
      <point x="92" y="775"/>
      <point x="74" y="757" type="curve" smooth="yes"/>
      <point x="56" y="737"/>
      <point x="49" y="723"/>
      <point x="49" y="708" type="curve" smooth="yes"/>
      <point x="49" y="682"/>
      <point x="116" y="615"/>
      <point x="149" y="593" type="curve" smooth="yes"/>
      <point x="171" y="577"/>
      <point x="180" y="575"/>
    </contour>
  </outline>
</glyph>
<glyph name="ringhalfright" format="2">
  <advance width="237"/>
  <unicode hex="02BE"/>
  <anchor x="92" y="524" name="_top"/>
  <outline>
    <contour>
      <point x="44" y="578" type="line"/>
      <point x="47" y="578"/>
      <point x="50" y="578"/>
      <point x="53" y="578" type="curve" smooth="yes"/>
      <point x="141" y="578"/>
      <point x="193" y="614"/>
      <point x="193" y="681" type="curve" smooth="yes"/>
      <point x="193" y="742"/>
      <point x="137" y="782"/>
      <point x="49" y="782" type="curve" smooth="yes"/>
      <point x="47" y="782"/>
      <point x="46" y="782"/>
      <point x="44" y="782" type="curve"/>
      <point x="44" y="723" type="line"/>
      <point x="47" y="723"/>
      <point x="49" y="723"/>
      <point x="52" y="723" type="curve" smooth="yes"/>
      <point x="82" y="723"/>
      <point x="107" y="707"/>
      <point x="107" y="679" type="curve" smooth="yes"/>
      <point x="107" y="650"/>
      <point x="82" y="634"/>
      <point x="52" y="634" type="curve" smooth="yes"/>
      <point x="49" y="634"/>
      <point x="47" y="634"/>
      <point x="44" y="634" type="curve"/>
    </contour>
  </outline>
</glyph>
<glyph name="ringhalfleft" format="2">
  <advance width="169"/>
  <unicode hex="02BF"/>
  <anchor x="132" y="524" name="_top"/>
  <outline>
    <contour>
      <point x="140" y="578" type="curve" smooth="yes"/>
      <point x="143" y="578"/>
      <point x="146" y="578"/>
      <point x="149" y="578" type="curve"/>
      <point x="149" y="634" type="line"/>
      <point x="146" y="634"/>
      <point x="144" y="634"/>
      <point x="141" y="634" type="curve" smooth="yes"/>
      <point x="111" y="634"/>
      <point x="86" y="650"/>
      <point x="86" y="679" type="curve" smooth="yes"/>
      <point x="86" y="707"/>
      <point x="111" y="723"/>
      <point x="141" y="723" type="curve" smooth="yes"/>
      <point x="144" y="723"/>
      <point x="146" y="723"/>
      <point x="149" y="723" type="curve"/>
      <point x="149" y="782" type="line"/>
      <point x="147" y="782"/>
      <point x="146" y="782"/>
      <point x="144" y="782" type="curve" smooth="yes"/>
      <point x="56" y="782"/>
      <point x="0" y="742"/>
      <point x="0" y="681" type="curve" smooth="yes"/>
      <point x="0" y="614"/>
      <point x="52" y="578"/>
    </contour>
  </outline>
</glyph>
<glyph name="firsttonechinese" format="2">
  <advance width="600"/>
  <unicode hex="02C9"/>
  <anchor x="182" y="524" name="_top"/>
  <anchor x="196" y="661" name="top"/>
  <outline>
    <contour>
      <point x="33" y="592" type="curve" smooth="yes"/>
      <point x="358" y="592" type="line" smooth="yes"/>
      <point x="373" y="592"/>
      <point x="384" y="614"/>
      <point x="384" y="650" type="curve" smooth="yes"/>
      <point x="384" y="673"/>
      <point x="381" y="676"/>
      <point x="371" y="676" type="curve" smooth="yes"/>
      <point x="46" y="676" type="line" smooth="yes"/>
      <point x="31" y="676"/>
      <point x="20" y="654"/>
      <point x="20" y="618" type="curve" smooth="yes"/>
      <point x="20" y="595"/>
      <point x="23" y="592"/>
    </contour>
  </outline>
</glyph>
<glyph name="verticallinelowmod" format="2">
  <advance width="162"/>
  <unicode hex="02CC"/>
  <outline>
    <contour>
      <point x="113" y="-370" type="curve" smooth="yes"/>
      <point x="141" y="-370"/>
      <point x="144" y="-365"/>
      <point x="144" y="-347" type="curve" smooth="yes"/>
      <point x="144" y="-301"/>
      <point x="156" y="-118"/>
      <point x="156" y="-112" type="curve" smooth="yes"/>
      <point x="156" y="-78"/>
      <point x="90" y="-62"/>
      <point x="50" y="-62" type="curve" smooth="yes"/>
      <point x="22" y="-62"/>
      <point x="18" y="-69"/>
      <point x="18" y="-86" type="curve" smooth="yes"/>
      <point x="18" y="-132"/>
      <point x="6" y="-314"/>
      <point x="6" y="-320" type="curve" smooth="yes"/>
      <point x="6" y="-355"/>
      <point x="73" y="-370"/>
    </contour>
  </outline>
</glyph>
<glyph name="acutecomb" format="2">
  <unicode hex="0301"/>
  <anchor x="62" y="524" name="_top"/>
  <anchor x="42" y="747" name="top"/>
  <outline>
    <contour>
      <point x="67" y="581" type="curve"/>
      <point x="90" y="603"/>
      <point x="147" y="647"/>
      <point x="187" y="677" type="curve" smooth="yes"/>
      <point x="207" y="692"/>
      <point x="211" y="704"/>
      <point x="211" y="712" type="curve" smooth="yes"/>
      <point x="211" y="748"/>
      <point x="155" y="806"/>
      <point x="134" y="806" type="curve" smooth="yes"/>
      <point x="121" y="806"/>
      <point x="104" y="797"/>
      <point x="72" y="767" type="curve" smooth="yes"/>
      <point x="46" y="743"/>
      <point x="22" y="713"/>
      <point x="11" y="696" type="curve" smooth="yes"/>
      <point x="2" y="683"/>
      <point x="0" y="672"/>
      <point x="0" y="658" type="curve" smooth="yes"/>
      <point x="0" y="640"/>
      <point x="20" y="602"/>
    </contour>
  </outline>
</glyph>
<glyph name="circumflexcomb" format="2">
  <unicode hex="0302"/>
  <anchor x="135" y="524" name="_top"/>
  <anchor x="194" y="806" name="top"/>
  <outline>
    <contour>
      <point x="42" y="580" type="curve" smooth="yes"/>
      <point x="61" y="596"/>
      <point x="148" y="628"/>
      <point x="182" y="640" type="curve" smooth="yes"/>
      <point x="209" y="626"/>
      <point x="269" y="593"/>
      <point x="283" y="580" type="curve" smooth="yes"/>
      <point x="314" y="605"/>
      <point x="322" y="626"/>
      <point x="322" y="639" type="curve" smooth="yes"/>
      <point x="322" y="648"/>
      <point x="321" y="656"/>
      <point x="317" y="665" type="curve" smooth="yes"/>
      <point x="310" y="680"/>
      <point x="260" y="739"/>
      <point x="219" y="771" type="curve" smooth="yes"/>
      <point x="204" y="782"/>
      <point x="199" y="786"/>
      <point x="186" y="786" type="curve" smooth="yes"/>
      <point x="173" y="786"/>
      <point x="166" y="782"/>
      <point x="149" y="771" type="curve" smooth="yes"/>
      <point x="102" y="741"/>
      <point x="37" y="691"/>
      <point x="22" y="672" type="curve" smooth="yes"/>
      <point x="11" y="659"/>
      <point x="10" y="646"/>
      <point x="10" y="634" type="curve" smooth="yes"/>
      <point x="10" y="622"/>
      <point x="16" y="605"/>
    </contour>
  </outline>
</glyph>
<glyph name="tildecomb" format="2">
  <unicode hex="0303"/>
  <anchor x="161" y="524" name="_top"/>
  <anchor x="198" y="718" name="top"/>
  <outline>
    <contour>
      <point x="232" y="573" type="curve" smooth="yes"/>
      <point x="265" y="573"/>
      <point x="289" y="588"/>
      <point x="308" y="610" type="curve" smooth="yes"/>
      <point x="330" y="636"/>
      <point x="340" y="672"/>
      <point x="340" y="701" type="curve" smooth="yes"/>
      <point x="340" y="738"/>
      <point x="328" y="748"/>
      <point x="315" y="748" type="curve" smooth="yes"/>
      <point x="308" y="748"/>
      <point x="305" y="745"/>
      <point x="302" y="736" type="curve" smooth="yes"/>
      <point x="299" y="726"/>
      <point x="286" y="715"/>
      <point x="269" y="715" type="curve" smooth="yes"/>
      <point x="231" y="715"/>
      <point x="205" y="752"/>
      <point x="128" y="752" type="curve" smooth="yes"/>
      <point x="95" y="752"/>
      <point x="71" y="737"/>
      <point x="52" y="715" type="curve" smooth="yes"/>
      <point x="30" y="689"/>
      <point x="20" y="653"/>
      <point x="20" y="624" type="curve" smooth="yes"/>
      <point x="20" y="587"/>
      <point x="32" y="577"/>
      <point x="45" y="577" type="curve" smooth="yes"/>
      <point x="52" y="577"/>
      <point x="55" y="580"/>
      <point x="58" y="589" type="curve" smooth="yes"/>
      <point x="61" y="599"/>
      <point x="74" y="610"/>
      <point x="91" y="610" type="curve" smooth="yes"/>
      <point x="129" y="610"/>
      <point x="156" y="573"/>
    </contour>
  </outline>
</glyph>
<glyph name="hookabovecomb" format="2">
  <unicode hex="0309"/>
  <anchor x="96" y="524" name="_top"/>
  <anchor x="106" y="716" name="top"/>
  <outline>
    <contour>
      <point x="67" y="548" type="curve" smooth="yes"/>
      <point x="148" y="549"/>
      <point x="199" y="606"/>
      <point x="199" y="688" type="curve" smooth="yes"/>
      <point x="199" y="730"/>
      <point x="172" y="759"/>
      <point x="121" y="763" type="curve"/>
      <point x="102" y="764" type="line"/>
      <point x="64" y="764"/>
      <point x="38" y="750"/>
      <point x="38" y="708" type="curve" smooth="yes"/>
      <point x="38" y="666"/>
      <point x="42" y="661"/>
      <point x="60" y="661" type="curve" smooth="yes"/>
      <point x="79" y="661"/>
      <point x="89" y="649"/>
      <point x="89" y="633" type="curve" smooth="yes"/>
      <point x="89" y="616"/>
      <point x="78" y="603"/>
      <point x="57" y="589" type="curve" smooth="yes"/>
      <point x="45" y="581"/>
      <point x="38" y="574"/>
      <point x="38" y="562" type="curve" smooth="yes"/>
      <point x="38" y="553"/>
      <point x="45" y="548"/>
    </contour>
  </outline>
</glyph>
<glyph name="ringcomb" format="2">
  <unicode hex="030A"/>
  <anchor x="132" y="524" name="_top"/>
  <anchor x="231" y="654" name="top"/>
  <outline>
    <contour>
      <point x="140" y="578" type="curve" smooth="yes"/>
      <point x="228" y="578"/>
      <point x="284" y="619"/>
      <point x="284" y="681" type="curve" smooth="yes"/>
      <point x="284" y="747"/>
      <point x="232" y="782"/>
      <point x="144" y="782" type="curve" smooth="yes"/>
      <point x="56" y="782"/>
      <point x="0" y="742"/>
      <point x="0" y="681" type="curve" smooth="yes"/>
      <point x="0" y="614"/>
      <point x="52" y="578"/>
    </contour>
    <contour>
      <point x="141" y="634" type="curve" smooth="yes"/>
      <point x="111" y="634"/>
      <point x="86" y="650"/>
      <point x="86" y="679" type="curve" smooth="yes"/>
      <point x="86" y="707"/>
      <point x="111" y="723"/>
      <point x="141" y="723" type="curve" smooth="yes"/>
      <point x="172" y="723"/>
      <point x="197" y="707"/>
      <point x="197" y="680" type="curve" smooth="yes"/>
      <point x="197" y="650"/>
      <point x="172" y="634"/>
    </contour>
  </outline>
</glyph>
<glyph name="hungarumlautcomb" format="2">
  <unicode hex="030B"/>
  <anchor x="196" y="524" name="_top"/>
  <anchor x="196" y="806" name="top"/>
  <outline>
    <contour>
      <point x="317" y="570" type="curve"/>
      <point x="340" y="592"/>
      <point x="397" y="636"/>
      <point x="437" y="666" type="curve" smooth="yes"/>
      <point x="457" y="681"/>
      <point x="461" y="693"/>
      <point x="461" y="702" type="curve" smooth="yes"/>
      <point x="461" y="737"/>
      <point x="405" y="795"/>
      <point x="384" y="795" type="curve" smooth="yes"/>
      <point x="371" y="795"/>
      <point x="354" y="786"/>
      <point x="322" y="756" type="curve" smooth="yes"/>
      <point x="296" y="732"/>
      <point x="272" y="702"/>
      <point x="261" y="685" type="curve" smooth="yes"/>
      <point x="252" y="672"/>
      <point x="250" y="661"/>
      <point x="250" y="647" type="curve" smooth="yes"/>
      <point x="250" y="629"/>
      <point x="270" y="591"/>
    </contour>
    <contour>
      <point x="97" y="571" type="curve"/>
      <point x="120" y="593"/>
      <point x="177" y="637"/>
      <point x="217" y="667" type="curve" smooth="yes"/>
      <point x="237" y="682"/>
      <point x="241" y="694"/>
      <point x="241" y="703" type="curve" smooth="yes"/>
      <point x="241" y="738"/>
      <point x="185" y="796"/>
      <point x="164" y="796" type="curve" smooth="yes"/>
      <point x="151" y="796"/>
      <point x="134" y="787"/>
      <point x="102" y="757" type="curve" smooth="yes"/>
      <point x="76" y="733"/>
      <point x="52" y="703"/>
      <point x="41" y="686" type="curve" smooth="yes"/>
      <point x="32" y="673"/>
      <point x="30" y="662"/>
      <point x="30" y="648" type="curve" smooth="yes"/>
      <point x="30" y="630"/>
      <point x="50" y="592"/>
    </contour>
  </outline>
</glyph>
<glyph name="caroncomb" format="2">
  <unicode hex="030C"/>
  <anchor x="116" y="524" name="_top"/>
  <anchor x="154" y="727" name="top"/>
  <outline>
    <contour>
      <point x="136" y="580" type="curve" smooth="yes"/>
      <point x="149" y="580"/>
      <point x="156" y="584"/>
      <point x="173" y="595" type="curve" smooth="yes"/>
      <point x="220" y="625"/>
      <point x="285" y="675"/>
      <point x="300" y="694" type="curve" smooth="yes"/>
      <point x="311" y="707"/>
      <point x="312" y="720"/>
      <point x="312" y="731" type="curve" smooth="yes"/>
      <point x="312" y="744"/>
      <point x="306" y="761"/>
      <point x="280" y="786" type="curve" smooth="yes"/>
      <point x="261" y="770"/>
      <point x="174" y="738"/>
      <point x="140" y="726" type="curve" smooth="yes"/>
      <point x="113" y="740"/>
      <point x="53" y="773"/>
      <point x="39" y="786" type="curve" smooth="yes"/>
      <point x="8" y="761"/>
      <point x="0" y="740"/>
      <point x="0" y="727" type="curve" smooth="yes"/>
      <point x="0" y="718"/>
      <point x="1" y="710"/>
      <point x="5" y="701" type="curve" smooth="yes"/>
      <point x="12" y="686"/>
      <point x="62" y="627"/>
      <point x="103" y="595" type="curve" smooth="yes"/>
      <point x="118" y="584"/>
      <point x="123" y="580"/>
    </contour>
  </outline>
</glyph>
<glyph name="verticallineabovecomb" format="2">
  <unicode hex="030D"/>
  <outline>
    <contour>
      <point x="48" y="590" type="curve"/>
      <point x="96" y="572"/>
      <point x="137" y="584"/>
      <point x="149" y="596" type="curve" smooth="yes"/>
      <point x="160" y="607"/>
      <point x="166" y="616"/>
      <point x="169" y="632" type="curve" smooth="yes"/>
      <point x="173" y="652"/>
      <point x="177" y="691"/>
      <point x="178" y="723" type="curve" smooth="yes"/>
      <point x="180" y="767"/>
      <point x="171" y="785"/>
      <point x="162" y="794" type="curve" smooth="yes"/>
      <point x="146" y="811"/>
      <point x="68" y="805"/>
      <point x="47" y="784" type="curve" smooth="yes"/>
      <point x="41" y="778"/>
      <point x="37" y="767"/>
      <point x="39" y="742" type="curve" smooth="yes"/>
      <point x="43" y="695"/>
      <point x="50" y="620"/>
    </contour>
  </outline>
</glyph>
<glyph name="breveinvertedcomb" format="2">
  <unicode hex="0311"/>
  <anchor x="103" y="524" name="_top"/>
  <anchor x="103" y="772" name="top"/>
  <outline>
    <contour>
      <point x="93" y="595" type="curve" smooth="yes"/>
      <point x="136" y="595"/>
      <point x="141" y="599"/>
      <point x="141" y="617" type="curve" smooth="yes"/>
      <point x="141" y="636"/>
      <point x="153" y="646"/>
      <point x="169" y="646" type="curve" smooth="yes"/>
      <point x="186" y="646"/>
      <point x="206" y="634"/>
      <point x="213" y="627" type="curve" smooth="yes"/>
      <point x="230" y="611"/>
      <point x="237" y="595"/>
      <point x="249" y="595" type="curve" smooth="yes"/>
      <point x="258" y="595"/>
      <point x="263" y="602"/>
      <point x="263" y="624" type="curve" smooth="yes"/>
      <point x="263" y="705"/>
      <point x="196" y="756"/>
      <point x="114" y="756" type="curve" smooth="yes"/>
      <point x="60" y="756"/>
      <point x="0" y="718"/>
      <point x="0" y="642" type="curve" smooth="yes"/>
      <point x="0" y="604"/>
      <point x="44" y="595"/>
    </contour>
  </outline>
</glyph>
<glyph name="commaturnedabovecomb" format="2">
  <unicode hex="0312"/>
  <anchor x="113" y="524" name="_top"/>
  <anchor x="125" y="766" name="top"/>
  <outline>
    <contour>
      <point x="112" y="592" type="curve" smooth="yes"/>
      <point x="123" y="592"/>
      <point x="127" y="596"/>
      <point x="135" y="613" type="curve" smooth="yes"/>
      <point x="146" y="639"/>
      <point x="199" y="730"/>
      <point x="222" y="769" type="curve" smooth="yes"/>
      <point x="228" y="778"/>
      <point x="231" y="783"/>
      <point x="231" y="785" type="curve" smooth="yes"/>
      <point x="231" y="788"/>
      <point x="200" y="805"/>
      <point x="174" y="805" type="curve" smooth="yes"/>
      <point x="145" y="805"/>
      <point x="135" y="802"/>
      <point x="111" y="788" type="curve" smooth="yes"/>
      <point x="76" y="768"/>
      <point x="3" y="706"/>
      <point x="3" y="682" type="curve" smooth="yes"/>
      <point x="3" y="668"/>
      <point x="10" y="656"/>
      <point x="30" y="637" type="curve" smooth="yes"/>
      <point x="49" y="621"/>
      <point x="92" y="592"/>
    </contour>
  </outline>
</glyph>
<glyph name="minusbelowcomb" format="2">
  <unicode hex="0320"/>
  <anchor x="187" y="0" name="_bottom"/>
  <anchor x="182" y="-159" name="bottom"/>
  <outline>
    <contour>
      <point x="16" y="-159" type="curve" smooth="yes"/>
      <point x="341" y="-159" type="line" smooth="yes"/>
      <point x="356" y="-159"/>
      <point x="367" y="-137"/>
      <point x="367" y="-101" type="curve" smooth="yes"/>
      <point x="367" y="-78"/>
      <point x="364" y="-75"/>
      <point x="354" y="-75" type="curve" smooth="yes"/>
      <point x="29" y="-75" type="line" smooth="yes"/>
      <point x="14" y="-75"/>
      <point x="3" y="-97"/>
      <point x="3" y="-133" type="curve" smooth="yes"/>
      <point x="3" y="-156"/>
      <point x="6" y="-159"/>
    </contour>
  </outline>
</glyph>
<glyph name="dotbelowcomb" format="2">
  <unicode hex="0323"/>
  <anchor x="129" y="0" name="_bottom"/>
  <anchor x="120" y="-138" name="bottom"/>
  <outline>
    <contour>
      <point x="113" y="-218" type="curve" smooth="yes"/>
      <point x="171" y="-218"/>
      <point x="248" y="-182"/>
      <point x="248" y="-132" type="curve" smooth="yes"/>
      <point x="248" y="-75"/>
      <point x="194" y="-56"/>
      <point x="140" y="-56" type="curve" smooth="yes"/>
      <point x="72" y="-56"/>
      <point x="7" y="-76"/>
      <point x="7" y="-137" type="curve" smooth="yes"/>
      <point x="7" y="-172"/>
      <point x="48" y="-218"/>
    </contour>
  </outline>
</glyph>
<glyph name="ogonekcomb" format="2">
  <unicode hex="0328"/>
  <anchor x="201" y="0" name="_ogonek"/>
  <outline>
    <contour>
      <point x="166" y="-234" type="curve"/>
      <point x="210" y="-234"/>
      <point x="307" y="-117"/>
      <point x="329" y="-84" type="curve" smooth="yes"/>
      <point x="336" y="-74"/>
      <point x="340" y="-64"/>
      <point x="340" y="-54" type="curve" smooth="yes"/>
      <point x="340" y="-34"/>
      <point x="323" y="-10"/>
      <point x="312" y="-10" type="curve" smooth="yes"/>
      <point x="308" y="-10"/>
      <point x="306" y="-12"/>
      <point x="300" y="-20" type="curve"/>
      <point x="293" y="-29"/>
      <point x="238" y="-87"/>
      <point x="211" y="-87" type="curve"/>
      <point x="197" y="-87"/>
      <point x="178" y="-81"/>
      <point x="178" y="-54" type="curve" smooth="yes"/>
      <point x="178" y="15"/>
      <point x="343" y="71"/>
      <point x="212" y="59" type="curve" smooth="yes"/>
      <point x="145" y="55"/>
      <point x="35" y="-39"/>
      <point x="35" y="-109" type="curve" smooth="yes"/>
      <point x="35" y="-124"/>
      <point x="36" y="-137"/>
      <point x="38" y="-152" type="curve" smooth="yes"/>
      <point x="45" y="-203"/>
      <point x="148" y="-234"/>
    </contour>
  </outline>
</glyph>
<glyph name="verticallinebelowcomb" format="2">
  <unicode hex="0329"/>
  <anchor x="157" y="0" name="_bottom"/>
  <anchor x="157" y="-254" name="bottom"/>
  <outline>
    <contour>
      <point x="190" y="-254" type="curve" smooth="yes"/>
      <point x="218" y="-254"/>
      <point x="222" y="-247"/>
      <point x="222" y="-230" type="curve" smooth="yes"/>
      <point x="222" y="-221"/>
      <point x="229" y="-95"/>
      <point x="229" y="-89" type="curve" smooth="yes"/>
      <point x="229" y="-56"/>
      <point x="163" y="-40"/>
      <point x="123" y="-40" type="curve" smooth="yes"/>
      <point x="95" y="-40"/>
      <point x="91" y="-47"/>
      <point x="91" y="-64" type="curve" smooth="yes"/>
      <point x="91" y="-73"/>
      <point x="84" y="-199"/>
      <point x="84" y="-205" type="curve" smooth="yes"/>
      <point x="84" y="-238"/>
      <point x="150" y="-254"/>
    </contour>
  </outline>
</glyph>
<glyph name="circumflexbelowcomb" format="2">
  <unicode hex="032D"/>
  <anchor x="179" y="0" name="_bottom"/>
  <anchor x="147" y="-216" name="bottom"/>
  <outline>
    <contour>
      <point x="46" y="-244" type="curve"/>
      <point x="65" y="-228"/>
      <point x="152" y="-196"/>
      <point x="186" y="-184" type="curve"/>
      <point x="213" y="-198"/>
      <point x="273" y="-231"/>
      <point x="287" y="-244" type="curve"/>
      <point x="318" y="-219"/>
      <point x="326" y="-198"/>
      <point x="326" y="-185" type="curve" smooth="yes"/>
      <point x="326" y="-176"/>
      <point x="325" y="-168"/>
      <point x="321" y="-159" type="curve" smooth="yes"/>
      <point x="314" y="-144"/>
      <point x="264" y="-85"/>
      <point x="223" y="-53" type="curve" smooth="yes"/>
      <point x="208" y="-42"/>
      <point x="203" y="-38"/>
      <point x="190" y="-38" type="curve" smooth="yes"/>
      <point x="177" y="-38"/>
      <point x="170" y="-42"/>
      <point x="153" y="-53" type="curve" smooth="yes"/>
      <point x="106" y="-83"/>
      <point x="41" y="-133"/>
      <point x="26" y="-152" type="curve" smooth="yes"/>
      <point x="15" y="-165"/>
      <point x="14" y="-178"/>
      <point x="14" y="-190" type="curve" smooth="yes"/>
      <point x="14" y="-202"/>
      <point x="20" y="-219"/>
    </contour>
  </outline>
</glyph>
<glyph name="breveinvertedbelowcomb" format="2">
  <unicode hex="032F"/>
  <anchor x="113" y="0" name="_bottom"/>
  <anchor x="113" y="-161" name="bottom"/>
  <outline>
    <contour>
      <point x="93" y="-189" type="curve" smooth="yes"/>
      <point x="136" y="-189"/>
      <point x="141" y="-185"/>
      <point x="141" y="-167" type="curve" smooth="yes"/>
      <point x="141" y="-148"/>
      <point x="153" y="-138"/>
      <point x="169" y="-138" type="curve" smooth="yes"/>
      <point x="186" y="-138"/>
      <point x="206" y="-150"/>
      <point x="213" y="-157" type="curve" smooth="yes"/>
      <point x="230" y="-173"/>
      <point x="237" y="-189"/>
      <point x="249" y="-189" type="curve" smooth="yes"/>
      <point x="258" y="-189"/>
      <point x="263" y="-182"/>
      <point x="263" y="-160" type="curve" smooth="yes"/>
      <point x="263" y="-79"/>
      <point x="196" y="-28"/>
      <point x="114" y="-28" type="curve" smooth="yes"/>
      <point x="60" y="-28"/>
      <point x="0" y="-66"/>
      <point x="0" y="-142" type="curve" smooth="yes"/>
      <point x="0" y="-180"/>
      <point x="44" y="-189"/>
    </contour>
  </outline>
</glyph>
